FluxischElse-Regular.sfdir
StartChar: uni0022
Encoding: 34 34 5
GlifName: uni0022
Width: 638
GlyphClass: 2
Flags: W
LayerCount: 2
Fore
SplineSet
140 720 m 0,0,1
 144 722 144 722 151 722 c 0,2,3
 154 722 154 722 158 722 c 0,4,5
 183 719 183 719 187 718 c 0,6,7
 197 717 197 717 208 714 c 0,8,9
 214 713 214 713 221 703 c 0,10,11
 224 699 224 699 238 688 c 0,12,13
 248 680 248 680 249 675 c 0,14,15
 250 672 250 672 255 656 c 0,16,17
 258 646 258 646 258 608 c 0,18,19
 258 598 258 598 257.5 571.5 c 128,-1,20
 257 545 257 545 257 534 c 0,21,22
 255 494 255 494 253 486 c 0,23,24
 251 472 251 472 251 467 c 0,25,26
 251 459 251 459 247 451 c 0,27,28
 242 442 242 442 241 436 c 128,-1,29
 240 430 240 430 235 425 c 1,30,31
 231 422 231 422 224 422 c 0,32,33
 219 422 219 422 209 423 c 0,34,35
 189 425 189 425 177 431 c 0,36,37
 163 440 163 440 162 442 c 2,38,-1
 154 454 l 2,39,40
 152 457 152 457 148 462 c 2,41,-1
 145 467 l 1,42,43
 142 470 142 470 140 484 c 0,44,45
 138 500 138 500 137 502 c 0,46,47
 135 506 135 506 135 514 c 0,48,49
 135 520 135 520 137 530 c 0,50,51
 138 538 138 538 136 547 c 0,52,53
 134 557 134 557 134 574 c 0,54,55
 134 583 134 583 131 607 c 1,56,57
 128 618 128 618 128 631 c 0,58,59
 128 640 128 640 124 652 c 0,60,61
 121 661 121 661 121 664 c 256,62,63
 121 667 121 667 123 674 c 2,64,-1
 127 694 l 2,65,66
 129 704 129 704 132 710 c 1,67,68
 134 718 134 718 140 720 c 0,0,1
427 725 m 1,69,70
 432 727 432 727 449 727 c 0,71,72
 460 727 460 727 468 720 c 0,73,74
 476 712 476 712 488 705 c 0,75,76
 502 697 502 697 506 693 c 0,77,78
 512 688 512 688 514 681 c 0,79,80
 516 675 516 675 516 659 c 0,81,82
 517 650 517 650 517 646 c 0,83,84
 517 640 517 640 514 632 c 256,85,86
 511 624 511 624 511 616 c 0,87,88
 511 611 511 611 512 591 c 0,89,90
 513 566 513 566 516 545 c 0,91,92
 517 537 517 537 517 534 c 0,93,94
 517 529 517 529 515 523 c 0,95,96
 512 515 512 515 512 508 c 0,97,98
 512 500 512 500 509 494 c 1,99,100
 507 484 507 484 507 465 c 0,101,102
 507 443 507 443 504 439 c 0,103,104
 502 435 502 435 495 430 c 256,105,106
 488 425 488 425 478 425 c 2,107,108
 468 423 468 423 461 425 c 2,109,110
 452 425 452 425 436 434 c 0,111,112
 424 440 424 440 421.5 442 c 128,-1,113
 419 444 419 444 418 449 c 2,114,115
 413 463 413 463 413 464 c 1,116,117
 408 477 408 477 407 480 c 0,118,119
 404 495 404 495 404 505 c 0,120,121
 403 517 403 517 400 534 c 0,122,123
 400 535 400 535 394 563 c 0,124,125
 392 583 392 583 392 595 c 2,126,127
 391 599 391 599 390.5 611.5 c 128,-1,128
 390 624 390 624 390 629 c 0,129,130
 388 650 388 650 385 657 c 256,131,132
 382 664 382 664 382 686 c 0,133,134
 382 703 382 703 382.5 706.5 c 128,-1,135
 383 710 383 710 387 714 c 256,136,137
 391 718 391 718 405 721 c 0,138,139
 412 722 412 722 427 725 c 1,69,70
EndSplineSet
Validated: 1
EndChar
StartChar: uni0023
Encoding: 35 35 6
GlifName: uni0023
Width: 550
GlyphClass: 2
Flags: W
LayerCount: 2
Fore
SplineSet
283 400 m 0,0,1
 276 403 276 403 268 405 c 1,2,3
 256 405 256 405 251 404 c 2,4,5
 244 404 244 404 238 400 c 0,6,7
 233 397 233 397 231 394 c 1,8,9
 228 393 228 393 226 386 c 0,10,11
 225 383 225 383 223 358 c 0,12,13
 223 342 223 342 220 327 c 1,14,15
 217 319 217 319 215 297 c 0,16,17
 214 285 214 285 214 280 c 128,-1,18
 214 275 214 275 215 274 c 1,19,20
 216 272 216 272 242 272 c 0,21,22
 267 272 267 272 272 275 c 0,23,24
 278 278 278 278 293 277 c 0,25,26
 309 277 309 277 312 280 c 0,27,28
 317 287 317 287 318 297 c 2,29,30
 321 308 321 308 321 324 c 0,31,32
 321 342 321 342 322 346 c 0,33,34
 325 355 325 355 328 358 c 0,35,36
 334 364 334 364 334 367 c 1,37,38
 335 370 335 370 333 379 c 0,39,40
 332 383 332 383 332 394 c 1,41,42
 333 401 333 401 329 403 c 1,43,44
 325 404 325 404 319 402 c 1,45,46
 313 398 313 398 302 398 c 0,47,48
 292 397 292 397 283 400 c 0,0,1
220 686 m 1,49,50
 226 688 226 688 243 688 c 0,51,52
 257 688 257 688 260 687 c 128,-1,53
 263 686 263 686 268 681 c 1,54,-1
 277 669 l 2,55,56
 280 664 280 664 280 651 c 0,57,58
 280 637 280 637 276 629 c 0,59,60
 272 619 272 619 272 611 c 0,61,62
 272 602 272 602 270 596 c 1,63,64
 267 591 267 591 265 579 c 0,65,66
 262 564 262 564 261 558 c 0,67,68
 258 540 258 540 258 538 c 1,69,70
 257 534 257 534 254 525 c 1,71,72
 251 519 251 519 251 508 c 2,73,74
 249 497 249 497 251 490 c 2,75,76
 251 487 251 487 254 481 c 1,77,78
 256 479 256 479 269 479 c 0,79,80
 279 479 279 479 289 481 c 0,81,82
 299 484 299 484 303 482 c 1,83,84
 311 480 311 480 323 480 c 0,85,86
 337 480 337 480 341 483 c 0,87,88
 346 486 346 486 348 492 c 2,89,90
 350 495 350 495 352 516 c 0,91,92
 353 535 353 535 358 545 c 2,93,94
 366 565 l 2,95,96
 369 572 369 572 369 580 c 0,97,98
 369 586 369 586 373 596 c 0,99,100
 376 606 376 606 378 618 c 0,101,102
 381 633 381 633 379 647 c 1,103,104
 379 665 379 665 383 672 c 0,105,106
 387 678 387 678 402 683 c 0,107,108
 414 688 414 688 419 688 c 256,109,110
 424 688 424 688 433 685 c 0,111,112
 436 684 436 684 442.5 682.5 c 128,-1,113
 449 681 449 681 451 680 c 2,114,115
 456 679 456 679 458 677 c 128,-1,116
 460 675 460 675 465 664 c 0,117,118
 472 649 472 649 472 641 c 0,119,120
 472 632 472 632 469 624 c 0,121,122
 462 611 462 611 462 610 c 256,123,124
 462 609 462 609 460.5 604.5 c 128,-1,125
 459 600 459 600 459 599 c 0,126,127
 459 594 459 594 456 589 c 1,128,129
 454 579 454 579 452 562 c 0,130,131
 452 544 452 544 448 536 c 0,132,133
 447 534 447 534 443 510 c 0,134,135
 442 489 442 489 444 485 c 1,136,137
 449 480 449 480 451 480 c 1,138,139
 454 479 454 479 463 481 c 1,140,141
 469 484 469 484 477 486 c 0,142,143
 480 487 480 487 500 487 c 128,-1,144
 520 487 520 487 522 486 c 0,145,146
 525 485 525 485 531 471 c 0,147,148
 535 460 535 460 535 439 c 128,-1,149
 535 418 535 418 532 413 c 256,150,151
 529 408 529 408 516 402 c 0,152,153
 505 398 505 398 498 398 c 0,154,155
 494 398 494 398 485 399 c 0,156,157
 469 399 469 399 457 403 c 0,158,159
 446 406 446 406 440 405 c 2,160,-1
 428 402 l 2,161,162
 425 401 425 401 422 398 c 1,163,-1
 422 384 l 2,164,165
 423 372 423 372 417 359 c 256,166,167
 411 346 411 346 411 331 c 0,168,169
 411 317 411 317 407 310 c 0,170,171
 406 308 406 308 404 302 c 128,-1,172
 402 296 402 296 401 294 c 1,173,174
 400 285 400 285 401 282 c 1,175,-1
 411 277 l 2,176,177
 419 273 419 273 425 273 c 2,178,179
 430 271 430 271 444 273 c 0,180,181
 457 275 457 275 465 273 c 2,182,183
 473 273 473 273 485 267 c 0,184,185
 496 262 496 262 498 257 c 1,186,187
 501 253 501 253 501 242 c 0,188,189
 501 234 501 234 497 224 c 0,190,191
 494 218 494 218 494 207 c 0,192,193
 494 197 494 197 491 194 c 1,194,195
 490 191 490 191 480 191 c 2,196,197
 461.5 190.5 l 130,-1,198
 443 190 443 190 430 190 c 0,199,200
 388 190 388 190 385 187 c 128,-1,201
 382 184 382 184 382 168 c 0,202,203
 380 149 380 149 379 147 c 256,204,205
 378 145 378 145 376 131 c 0,206,207
 374 118 374 118 372 114 c 0,208,209
 369 108 369 108 369 88 c 0,210,211
 369 67 369 67 367 63 c 0,212,213
 363 57 363 57 360 51 c 1,214,215
 355 45 355 45 355 34 c 0,216,217
 355 22 355 22 352 17 c 2,218,219
 351 11 351 11 344 7 c 0,220,221
 338 3 338 3 305 3 c 128,-1,222
 272 3 272 3 269 6 c 0,223,224
 265 10 265 10 265 15 c 1,225,-1
 268 27 l 1,226,227
 272 35 272 35 272 67 c 0,228,229
 273 98 273 98 276 104 c 1,230,-1
 283 114 l 1,231,232
 287 118 287 118 288 140 c 0,233,234
 290 167 290 167 292 172 c 1,235,236
 293 181 293 181 292 185 c 0,237,238
 291 190 291 190 281 193 c 0,239,240
 274 196 274 196 268 196 c 0,241,242
 261 196 261 196 256 192 c 1,243,244
 248 188 248 188 234 190 c 0,245,246
 221 192 221 192 214 190 c 2,247,248
 208 190 208 190 202 187 c 0,249,250
 198 185 198 185 196 180 c 1,251,252
 196 179 196 179 194.5 174.5 c 128,-1,253
 193 170 193 170 192 169 c 0,254,255
 187 160 187 160 186 152 c 2,256,257
 182 140 182 140 182 116 c 128,-1,258
 182 92 182 92 176 77 c 0,259,260
 169 58 169 58 169 57 c 2,261,262
 167 51 167 51 172 43 c 1,263,264
 175 35 175 35 175 29 c 0,265,266
 175 25 175 25 173 21 c 1,267,-1
 163 11 l 1,268,269
 156 6 156 6 152 5 c 128,-1,270
 148 4 148 4 129 3 c 0,271,272
 103 3 103 3 92 8 c 2,273,274
 80 11 80 11 76 17 c 128,-1,275
 72 23 72 23 72 31 c 0,276,277
 71 39 71 39 74 47 c 0,278,279
 77 53 77 53 81 63 c 0,280,281
 85 75 85 75 85 90 c 0,282,283
 86 103 86 103 89 112 c 1,284,285
 92 115 92 115 96 121 c 1,286,287
 100 125 100 125 101 154 c 0,288,289
 101 182 101 182 103 184 c 0,290,291
 104 185 104 185 102 190 c 1,292,293
 99 193 99 193 90 192 c 0,294,295
 82 192 82 192 72 188 c 0,296,297
 60 184 60 184 55 184 c 0,298,299
 49 184 49 184 41 190 c 1,300,301
 36 195 36 195 27 197 c 0,302,303
 20 198 20 198 15 206 c 1,304,305
 12 213 12 213 8 227 c 0,306,307
 5 237 5 237 5 243 c 0,308,309
 5 246 5 246 10 259 c 1,310,311
 11 264 11 264 18 271 c 0,312,313
 24 276 24 276 28 278 c 1,314,315
 32 279 32 279 49 279 c 0,316,317
 57 279 57 279 67 279 c 0,318,319
 101 277 101 277 105 273 c 128,-1,320
 109 269 109 269 111 269 c 0,321,322
 115 269 115 269 117 273 c 2,323,324
 120 276 120 276 122 288 c 0,325,326
 124 303 124 303 126 306 c 0,327,328
 129 312 129 312 129 325 c 0,329,330
 129 336 129 336 131 342 c 1,331,332
 133 345 133 345 135 356 c 2,333,-1
 139 372 l 1,334,335
 142 378 142 378 142 385 c 2,336,337
 143 388 143 388 140 396 c 0,338,339
 138 400 138 400 131 403 c 0,340,341
 128 404 128 404 120 404 c 0,342,343
 119 404 119 404 115 402.5 c 128,-1,344
 111 401 111 401 109 400 c 1,345,346
 97 397 97 397 89 397 c 0,347,348
 76 397 76 397 71 400 c 2,349,350
 64 402 64 402 60 406 c 0,351,352
 55 410 55 410 53 413 c 1,353,354
 51 419 51 419 51 421 c 128,-1,355
 51 423 51 423 47 433 c 0,356,357
 44 441 44 441 45 446 c 2,358,-1
 50 461 l 2,359,360
 54 471 54 471 61 475 c 0,361,362
 70 480 70 480 96 481 c 0,363,364
 126 483 126 483 140 483 c 0,365,366
 157 484 157 484 161 488 c 1,367,368
 163 492 163 492 163 504 c 0,369,370
 163 518 163 518 166 523 c 1,371,372
 169 535 169 535 169 541 c 1,373,374
 171 554 171 554 173 556 c 1,375,376
 174 559 174 559 176 573 c 1,377,378
 176 582 176 582 179 591 c 1,379,380
 182 596 182 596 182 609 c 0,381,382
 182 619 182 619 186 631 c 0,383,384
 189 638 189 638 189 646 c 0,385,386
 189 652 189 652 191 656 c 1,387,388
 192 660 192 660 204 672 c 0,389,390
 214 682 214 682 220 686 c 1,49,50
EndSplineSet
Validated: 524289
EndChar
StartChar: uni002C
Encoding: 44 44 15
GlifName: uni002C_
Width: 251
GlyphClass: 2
Flags: W
LayerCount: 2
Fore
SplineSet
163 127 m 2,0,1
 168 128 168 128 177 128 c 1,2,3
 186 125 186 125 191 121 c 2,4,5
 202 115 202 115 204 111 c 0,6,7
 207 105 207 105 207 92 c 0,8,9
 207 78 207 78 203 70 c 0,10,11
 200 63 200 63 194 57 c 1,12,13
 188 53 188 53 187 46 c 0,14,15
 187 45 187 45 185.5 39 c 128,-1,16
 184 33 184 33 183 30 c 2,17,-1
 178 15 l 1,18,19
 178 11 178 11 172 3 c 1,20,21
 167 -2 167 -2 164 -15 c 0,22,23
 162 -28 162 -28 159 -31 c 128,-1,24
 156 -34 156 -34 155 -47 c 128,-1,25
 154 -60 154 -60 139 -85 c 2,26,-1
 119 -120 l 2,27,28
 111 -132 111 -132 108 -133 c 2,29,30
 105 -136 105 -136 96 -136 c 0,31,32
 89 -136 89 -136 73 -132 c 128,-1,33
 57 -128 57 -128 54 -127 c 0,34,35
 50 -126 50 -126 47 -114 c 0,36,37
 46 -110 46 -110 45 -104.5 c 128,-1,38
 44 -99 44 -99 44 -98 c 0,39,40
 44 -92 44 -92 47 -81 c 0,41,42
 49 -68 49 -68 51 -64 c 0,43,44
 54 -57 54 -57 55 -43 c 0,45,46
 57 -25 57 -25 61 -18 c 0,47,48
 65 -9 65 -9 65 3 c 0,49,50
 65 14 65 14 69 32 c 2,51,52
 70 46 70 46 74 53 c 1,53,54
 74 54 74 54 75 59 c 128,-1,55
 76 64 76 64 76 68 c 1,56,57
 78 76 78 76 80 83 c 0,58,59
 81 86 81 86 94 99 c 0,60,61
 106 110 106 110 122 116 c 0,62,63
 137 121 137 121 147 123 c 2,64,-1
 163 127 l 2,0,1
EndSplineSet
Validated: 1
EndChar
StartChar: uni0031
Encoding: 49 49 20
GlifName: uni0031
Width: 567
GlyphClass: 2
Flags: W
LayerCount: 2
Fore
SplineSet
307 730 m 0,0,1
 321 737 321 737 326 737 c 0,2,3
 328 737 328 737 337 734 c 1,4,5
 342 731 342 731 342 730 c 0,6,7
 342 728 342 728 351 717 c 0,8,9
 360 707 360 707 360 697 c 0,10,11
 360 694 360 694 360 686 c 2,12,-1
 360 659 l 1,13,-1
 360 634 l 2,14,15
 361 622 361 622 364 608 c 1,16,17
 366 604 366 604 368 579 c 0,18,19
 368 566 368 566 371 548 c 1,20,21
 374 540 374 540 371 530 c 0,22,23
 368 521 368 521 368 443 c 0,24,25
 367 364 367 364 364 357 c 0,26,27
 361 346 361 346 362 326 c 0,28,29
 362 307 362 307 365 295 c 0,30,31
 366 288 366 288 368 222 c 0,32,33
 370 157 370 157 372 150 c 0,34,35
 374 145 374 145 374 142 c 128,-1,36
 374 139 374 139 372 132 c 1,37,38
 368 124 368 124 368 109 c 0,39,40
 368 102 368 102 369 82 c 0,41,42
 369 43 369 43 372 34 c 1,43,44
 375 29 375 29 375 25 c 0,45,46
 375 23 375 23 374 21 c 0,47,48
 372 15 372 15 365 10 c 2,49,50
 358 3 358 3 350 0 c 1,51,52
 343 -4 343 -4 324 -4 c 0,53,54
 308 -4 308 -4 299 -1 c 1,55,56
 291 3 291 3 286 3 c 0,57,58
 280 3 280 3 270 7 c 0,59,60
 260 12 260 12 259 16 c 1,61,62
 257 20 257 20 257 32 c 128,-1,63
 257 44 257 44 254 53 c 0,64,65
 251 63 251 63 251 78 c 0,66,67
 251 97 251 97 252 101 c 0,68,69
 254 109 254 109 252 124 c 0,70,71
 251 132 251 132 248 147 c 128,-1,72
 245 162 245 162 245 166 c 128,-1,73
 245 170 245 170 248 182 c 0,74,75
 251 190 251 190 251 262 c 0,76,77
 251 335 251 335 248 344 c 0,78,79
 246 352 246 352 246 355 c 1,80,81
 248 359 248 359 252 363 c 0,82,83
 256 368 256 368 255 376 c 0,84,85
 254 381 254 381 254 393 c 2,86,-1
 254 410 l 1,87,88
 255 417 255 417 250 423 c 0,89,90
 245 430 245 430 245 435 c 1,91,-1
 248 447 l 2,92,93
 250 456 250 456 252 476 c 0,94,95
 252 480 252 480 252 490 c 128,-1,96
 252 500 252 500 252 505 c 0,97,98
 252 513 252 513 252 518 c 0,99,100
 252 535 252 535 250 547 c 1,101,102
 247 554 247 554 247 561 c 0,103,104
 247 567 247 567 250 570 c 1,105,106
 252 576 252 576 252 579 c 0,107,108
 252 584 252 584 250 586 c 128,-1,109
 248 588 248 588 246 588 c 128,-1,110
 244 588 244 588 238 584 c 128,-1,111
 232 580 232 580 225 578 c 1,112,113
 220 578 220 578 209 569 c 0,114,115
 200 560 200 560 191 557 c 0,116,117
 181 555 181 555 180 555 c 0,118,119
 178 555 178 555 174 548 c 0,120,121
 168 540 168 540 164 539 c 2,122,123
 161 536 161 536 148 534 c 0,124,125
 135 533 135 533 127 534 c 0,126,127
 116 536 116 536 115 540 c 1,128,129
 112 544 112 544 112 578 c 0,130,131
 113 612 113 612 117 616 c 128,-1,132
 121 620 121 620 133 628 c 0,133,134
 146 639 146 639 148 642 c 0,135,136
 151 647 151 647 167 656 c 0,137,138
 172 658 172 658 178 662 c 2,139,-1
 185 666 l 1,140,141
 187 669 187 669 202 677 c 0,142,143
 219 686 219 686 222 692 c 0,144,145
 226 699 226 699 241 706 c 0,146,147
 251 712 251 712 262 716 c 0,148,149
 274 719 274 719 276 720 c 1,150,-1
 288 723 l 1,151,152
 295 723 295 723 307 730 c 0,0,1
EndSplineSet
Validated: 1
EndChar
StartChar: uni0037
Encoding: 55 55 26
GlifName: uni0037
Width: 537
GlyphClass: 2
Flags: W
LayerCount: 2
Fore
SplineSet
71 744 m 0,0,1
 73 744 73 744 79 744 c 128,-1,2
 85 744 85 744 87 744 c 0,3,4
 92 744 92 744 94 744 c 0,5,6
 105 744 105 744 111 741 c 0,7,8
 118 737 118 737 174 737 c 0,9,10
 232 737 232 737 238 734 c 128,-1,11
 244 731 244 731 270 731 c 0,12,13
 308 731 308 731 324 732 c 0,14,15
 362 732 362 732 374 731 c 0,16,17
 393 729 393 729 405 727 c 1,18,19
 409 725 409 725 428 723 c 0,20,21
 439 722 439 722 454 714 c 0,22,23
 468 706 468 706 469 702 c 1,24,25
 471 698 471 698 471 690 c 0,26,27
 471 680 471 680 474 669 c 0,28,29
 476 661 476 661 476 654 c 0,30,31
 476 649 476 649 475 637 c 0,32,33
 470 608 470 608 468 604 c 0,34,35
 462 582 462 582 462 579 c 0,36,37
 462 568 462 568 456 558 c 1,38,39
 451 546 451 546 450 541 c 0,40,41
 447 529 447 529 443 517 c 0,42,43
 437 500 437 500 434 495 c 0,44,45
 431 489 431 489 421 471 c 0,46,47
 412 453 412 453 410 447 c 0,48,49
 408 439 408 439 408 433 c 1,50,51
 407 427 407 427 399 421 c 0,52,53
 391 414 391 414 389 403 c 0,54,55
 387 390 387 390 382 382 c 0,56,57
 379 377 379 377 374 362 c 1,58,59
 373 354 373 354 369 347 c 1,60,61
 367 345 367 345 355 321 c 0,62,63
 342 289 342 289 338 278 c 0,64,65
 336 272 336 272 332.5 260.5 c 128,-1,66
 329 249 329 249 329 247 c 1,67,68
 325 237 325 237 325 234 c 128,-1,69
 325 231 325 231 317 213 c 0,70,71
 315 209 315 209 310 200.5 c 128,-1,72
 305 192 305 192 304 190 c 1,73,74
 300 186 300 186 296 174 c 0,75,76
 292 163 292 163 287 157 c 1,77,78
 282 148 282 148 278 132 c 0,79,80
 275 116 275 116 271 112 c 1,81,-1
 269 108 l 2,82,83
 267 105 267 105 266 103 c 0,84,85
 263 97 263 97 263 86 c 0,86,87
 263 78 263 78 261 70 c 0,88,89
 259 65 259 65 256 60 c 1,90,91
 252 56 252 56 251 43 c 2,92,-1
 249 29 l 1,93,94
 245 24 245 24 240 19 c 0,95,96
 233 12 233 12 227 11 c 128,-1,97
 221 10 221 10 193 9 c 0,98,99
 155 9 155 9 149 10 c 1,100,101
 147 11 147 11 141.5 13 c 128,-1,102
 136 15 136 15 134 16 c 0,103,104
 126 20 126 20 125 26 c 1,105,-1
 125 53 l 2,106,107
 125 74 125 74 131 79 c 0,108,109
 135 82 135 82 139 93 c 0,110,111
 145 108 145 108 146 110 c 0,112,113
 151 120 151 120 151 122 c 1,114,115
 152 126 152 126 157 133 c 1,116,117
 161 137 161 137 165 149 c 0,118,119
 170 163 170 163 175 175 c 0,120,121
 176 178 176 178 180 188 c 128,-1,122
 184 198 184 198 185 201 c 0,123,124
 188 213 188 213 192 220 c 1,125,126
 192 221 192 221 195.5 226.5 c 128,-1,127
 199 232 199 232 200 235 c 2,128,-1
 209 256 l 2,129,130
 214 269 214 269 216 280 c 0,131,132
 217 283 217 283 218 288 c 2,133,-1
 219 292 l 1,134,135
 221 294 221 294 225 300 c 128,-1,136
 229 306 229 306 235 319 c 1,137,138
 237 327 237 327 241 339 c 0,139,140
 243 343 243 343 255 369 c 2,141,-1
 267 393 l 1,142,143
 267 398 267 398 271 406 c 0,144,145
 272 408 272 408 274.5 415 c 128,-1,146
 277 422 277 422 278 425 c 0,147,148
 280 433 280 433 288 450 c 0,149,150
 297 470 297 470 297 477 c 1,151,152
 299 485 299 485 303 494 c 1,153,154
 304 499 304 499 311 513 c 2,155,-1
 320 531 l 1,156,157
 325 538 325 538 326 538 c 1,158,159
 329 541 329 541 332 548 c 1,160,161
 334 556 334 556 340 571 c 2,162,-1
 351 592 l 1,163,164
 356 597 356 597 358 603 c 1,165,166
 361 608 361 608 359 613 c 2,167,168
 359 616 359 616 354 624 c 0,169,170
 350 629 350 629 344 629 c 128,-1,171
 338 629 338 629 332 627 c 1,172,173
 324 626 324 626 313 629 c 0,174,175
 301 633 301 633 293 633 c 0,176,177
 284 633 284 633 276 636 c 0,178,179
 266 639 266 639 202 639 c 0,180,181
 165 640 165 640 114 640 c 0,182,183
 91 640 91 640 88 642 c 0,184,185
 84 644 84 644 81 647 c 1,186,187
 73 651 73 651 68 652 c 0,188,189
 56 654 56 654 54 654 c 1,190,191
 48 657 48 657 45 660 c 0,192,193
 39 664 39 664 37 670 c 1,194,195
 34 674 34 674 34 701 c 0,196,197
 34 726 34 726 36 730 c 0,198,199
 37 733 37 733 48 738 c 0,200,201
 63 743 63 743 71 744 c 0,0,1
EndSplineSet
Validated: 1
EndChar
StartChar: uni003A
Encoding: 58 58 29
GlifName: uni003A_
Width: 326
GlyphClass: 2
Flags: W
LayerCount: 2
Fore
SplineSet
133 141 m 0,0,1
 147 146 147 146 159 146 c 128,-1,2
 171 146 171 146 179 144 c 1,3,4
 185 141 185 141 190 141 c 0,5,6
 193 141 193 141 205 136 c 0,7,8
 216 130 216 130 219 125 c 1,9,10
 221 119 221 119 221 115 c 0,11,12
 221 108 221 108 224 101 c 0,13,14
 228 89 228 89 228 85 c 2,15,-1
 225 70 l 1,16,17
 221 60 221 60 221 51 c 1,18,19
 219 41 219 41 217 39 c 1,20,21
 214 33 214 33 212 31 c 0,22,23
 209 28 209 28 201 24 c 0,24,25
 196 22 196 22 160 22 c 128,-1,26
 124 22 124 22 121 24 c 2,27,28
 120 24 120 24 111 33 c 0,29,30
 109 36 109 36 101 49 c 0,31,32
 97 57 97 57 97 64 c 0,33,34
 97 65 97 65 100 80 c 1,35,36
 103 88 103 88 102 100 c 1,37,38
 99 110 99 110 101 114 c 2,39,40
 101 115 101 115 111 127 c 0,41,42
 120 136 120 136 133 141 c 0,0,1
129 519 m 0,43,44
 136 521 136 521 142 521 c 0,45,46
 148 521 l 0,47,48
 154 520 154 520 166 520 c 0,49,50
 177 520 177 520 183 521 c 1,51,52
 192 521 192 521 204 515 c 0,53,54
 215 510 215 510 218 505 c 0,55,56
 221 499 221 499 221 459 c 0,57,58
 221 420 221 420 219 414 c 1,59,60
 216 409 216 409 210 406 c 0,61,62
 204 402 204 402 170 401 c 0,63,64
 148 400 148 400 143 400 c 0,65,66
 135 400 135 400 127 403 c 256,67,68
 119 406 119 406 114 411 c 1,69,70
 110 418 110 418 107 424 c 1,71,72
 104 439 104 439 103 448 c 0,73,74
 100 468 100 468 100 470 c 1,75,76
 97 477 97 477 101 489 c 0,77,78
 106 500 106 500 114 508 c 0,79,80
 121 517 121 517 129 519 c 0,43,44
EndSplineSet
Validated: 1
EndChar
StartChar: uni003C
Encoding: 60 60 31
GlifName: uni003C_
Width: 683
GlyphClass: 2
Flags: W
LayerCount: 2
Fore
SplineSet
570 652 m 0,0,1
 573 653 573 653 589 653 c 128,-1,2
 605 653 605 653 609 651 c 0,3,4
 615 649 615 649 617 645 c 0,5,6
 620 641 620 641 620 630 c 0,7,8
 620 618 620 618 614 613 c 0,9,10
 608 607 608 607 606 600 c 0,11,12
 605 598 605 598 603 591.5 c 128,-1,13
 601 585 601 585 600 583 c 0,14,15
 598 576 598 576 596 574 c 128,-1,16
 594 572 594 572 584 568 c 0,17,18
 570 564 570 564 564 564 c 0,19,20
 557 564 557 564 553 560 c 128,-1,21
 549 556 549 556 549 555 c 0,22,23
 549 553 549 553 539 548 c 0,24,25
 528 541 528 541 523 539 c 2,26,27
 519 536 519 536 514 536 c 0,28,29
 511 536 511 536 503 530 c 0,30,31
 497 525 497 525 485 522 c 0,32,33
 477 521 477 521 469 515 c 1,34,35
 463 509 463 509 452 508 c 0,36,37
 445 507 445 507 442 505.5 c 128,-1,38
 439 504 439 504 431 496 c 0,39,40
 429 494 429 494 423.5 489.5 c 128,-1,41
 418 485 418 485 417 484 c 256,42,43
 416 483 416 483 404 481 c 0,44,45
 395 480 395 480 386 472 c 0,46,47
 381 467 381 467 368 459 c 0,48,49
 358 454 358 454 350 454 c 0,50,51
 340 454 340 454 334 448 c 0,52,53
 327 441 327 441 318 440 c 0,54,55
 308 438 308 438 307 438 c 1,56,57
 302 436 302 436 301 432 c 1,58,59
 298 427 298 427 296 427 c 0,60,61
 295 427 295 427 279 417 c 0,62,63
 262 407 262 407 257 407 c 0,64,65
 256 407 256 407 251 406 c 128,-1,66
 246 405 246 405 244 404 c 256,67,68
 242 403 242 403 234 398 c 1,69,70
 229 393 229 393 221 390 c 0,71,72
 209 384 209 384 204 383 c 1,73,74
 196 380 196 380 190 374 c 0,75,76
 186 370 186 370 186.5 367.5 c 128,-1,77
 187 365 187 365 197 355 c 0,78,79
 210 342 210 342 216 339 c 128,-1,80
 222 336 222 336 230 334 c 1,81,82
 237 334 237 334 241 332 c 2,83,84
 246 332 246 332 249 327 c 1,85,86
 255 323 255 323 269 316 c 0,87,88
 285 308 285 308 289 304 c 128,-1,89
 293 300 293 300 298 300 c 0,90,91
 305 300 305 300 308 299 c 0,92,93
 315 297 315 297 327 285 c 256,94,95
 339 273 339 273 348 272 c 0,96,97
 358 271 358 271 370 262 c 0,98,99
 384 252 384 252 388 251 c 1,100,101
 392 251 392 251 422 236 c 0,102,103
 453 220 453 220 460 215 c 0,104,105
 468 209 468 209 470 209 c 256,106,107
 472 209 472 209 492 196 c 0,108,109
 518 183 518 183 519 183 c 256,110,111
 520 183 520 183 523 182 c 0,112,113
 530 179 530 179 533 178 c 0,114,115
 546 173 546 173 549 172 c 0,116,117
 555 170 555 170 566 164 c 0,118,119
 577 157 577 157 586 153 c 0,120,121
 596 150 596 150 596 148 c 256,122,123
 596 146 596 146 602 144 c 0,124,125
 606 142 606 142 615 131 c 2,126,127
 620 123.5 l 130,-1,128
 625 116 625 116 626 113 c 1,129,130
 632 105 632 105 635 102 c 0,131,132
 640 97 640 97 640 92 c 2,133,134
 641 90 641 90 641 87 c 0,135,136
 641 81 641 81 639 78 c 2,137,138
 638 70 638 70 629 62 c 0,139,140
 618 53 618 53 614 52 c 0,141,142
 602 49 602 49 598 49 c 0,143,144
 591 49 591 49 581 53 c 1,145,146
 576 56 576 56 567 59 c 0,147,148
 562 60 562 60 558 67 c 256,149,150
 554 74 554 74 539 81 c 0,151,152
 525 87 525 87 519 93 c 0,153,154
 512 100 512 100 507 100 c 0,155,156
 499 100 499 100 496 101 c 0,157,158
 491 103 491 103 484 108 c 256,159,160
 477 113 477 113 472 113 c 256,161,162
 467 113 467 113 461 115 c 0,163,164
 454 118 454 118 449 125 c 0,165,166
 443 133 443 133 437 134 c 0,167,168
 433 135 433 135 426 140 c 1,169,170
 422 144 422 144 416 148 c 0,171,172
 411 152 411 152 401 152 c 0,173,174
 392 152 392 152 391 153 c 0,175,176
 388 156 388 156 385 162 c 0,177,178
 381 171 381 171 372 176 c 256,179,180
 363 181 363 181 356 183 c 0,181,182
 344 187 344 187 336 190 c 1,183,184
 324 197 324 197 317 197 c 1,185,186
 308 200 308 200 304 201 c 2,187,188
 288 205 l 2,189,190
 280 208 280 208 278 214 c 1,191,192
 274 220 274 220 269 225 c 1,193,194
 263 229 263 229 261 229 c 0,195,196
 258 229 258 229 246 236 c 0,197,198
 236 241 236 241 229 247 c 0,199,200
 224 252 224 252 213 254 c 0,201,202
 201 255 201 255 196 260 c 0,203,204
 193 262 193 262 187 265 c 1,205,206
 185 265 185 265 175 267 c 0,207,208
 166 268 166 268 164 273 c 0,209,210
 162 277 162 277 156 281 c 1,211,212
 151 287 151 287 146 294 c 0,213,214
 139 303 139 303 137 304 c 2,215,216
 135 306 135 306 131 306 c 0,217,218
 126 306 126 306 115 312 c 0,219,220
 101 318 101 318 98 321 c 0,221,222
 93 325 93 325 84 328 c 0,223,224
 74 332 74 332 65 340 c 0,225,226
 56 349 56 349 53 349 c 0,227,228
 51 349 51 349 49 352 c 0,229,230
 47 354 47 354 45 369 c 0,231,232
 43 377 43 377 43 383 c 0,233,234
 43 386 43 386 44 388 c 0,235,236
 46 392 46 392 52 395 c 1,237,238
 58 397 58 397 64 397 c 0,239,240
 66 397 66 397 71 397.5 c 128,-1,241
 76 398 76 398 77 398 c 1,242,243
 83 400 83 400 91 410 c 0,244,245
 98 420 98 420 111 426 c 0,246,247
 124 433 124 433 131 434 c 128,-1,248
 138 435 138 435 147 440 c 0,249,250
 151 442 151 442 160 445 c 0,251,252
 172 449 172 449 176 451 c 2,253,-1
 195 462 l 2,254,255
 205 468 205 468 215 473 c 0,256,257
 218 474 218 474 223 477 c 2,258,-1
 228 480 l 1,259,260
 232 484 232 484 236 485 c 1,261,262
 238 485 238 485 247 492 c 0,263,264
 248 493 248 493 253 496 c 128,-1,265
 258 499 258 499 260 500 c 1,266,267
 261 500 261 500 264 500.5 c 128,-1,268
 267 501 267 501 269 501 c 0,269,270
 273 501 273 501 283 505 c 1,271,-1
 295 514 l 1,272,273
 296 518 296 518 310 524 c 0,274,275
 322 531 322 531 334 533 c 0,276,277
 344 536 344 536 354 542 c 0,278,279
 361 547 361 547 372 549 c 1,280,281
 384 553 384 553 387 555 c 0,282,283
 388 556 388 556 397 562 c 1,284,285
 404 565 404 565 407 572 c 1,286,287
 412 579 412 579 419 583 c 0,288,289
 426 588 426 588 436 590 c 2,290,291
 443 593 443 593 452 595 c 1,292,293
 456 598 456 598 464 598 c 0,294,295
 470 598 470 598 484 605 c 0,296,297
 500 611 500 611 507 621 c 0,298,299
 516 632 516 632 524 634 c 1,300,301
 536 639 536 639 544 639 c 0,302,303
 554 640 554 640 560 645 c 0,304,305
 568 651 568 651 570 652 c 0,0,1
EndSplineSet
Validated: 524289
EndChar
StartChar: uni003F
Encoding: 63 63 34
GlifName: uni003F_
Width: 488
GlyphClass: 2
Flags: W
LayerCount: 2
Fore
SplineSet
180 131 m 0,0,1
 188 133 188 133 195 133 c 0,2,3
 199 133 l 0,4,5
 208 133 208 133 216 129 c 0,6,7
 222 126 222 126 234 122 c 0,8,9
 245 119 245 119 249 113 c 1,10,11
 254 108 254 108 256 101 c 0,12,13
 257 98 257 98 257 90 c 0,14,15
 257 83 257 83 256 70 c 0,16,17
 255 47 255 47 251 35 c 0,18,19
 247 25 247 25 242 18 c 1,20,21
 237 13 237 13 222 12 c 0,22,23
 217 12 217 12 206 11.5 c 128,-1,24
 195 11 195 11 191 11 c 0,25,26
 186 11 186 11 182 11 c 0,27,28
 174 11 174 11 160 14 c 1,29,30
 144 20 144 20 142 22 c 0,31,32
 138 25 138 25 132 38 c 2,33,34
 126 47 126 47 126 55 c 0,35,36
 126 60 126 60 128 64 c 0,37,38
 129 66 129 66 131 84 c 0,39,40
 132 101 132 101 137 110 c 0,41,42
 142 120 142 120 150 124 c 0,43,44
 158 127 158 127 164 127 c 0,45,46
 168 127 168 127 180 131 c 0,0,1
153 761 m 1,47,48
 160 764 160 764 205 764 c 0,49,50
 250 763 250 763 255 760 c 0,51,52
 262 757 262 757 277 757 c 0,53,54
 290 757 290 757 300 755 c 1,55,56
 304 752 304 752 316 750 c 1,57,58
 325 747 325 747 335 743 c 0,59,60
 347 737 347 737 352 734 c 0,61,62
 362 729 362 729 365 729 c 1,63,64
 370 727 370 727 391 707 c 0,65,66
 413 685 413 685 414 680 c 0,67,68
 415 677 415 677 419 663 c 0,69,70
 422 651 422 651 428 638 c 0,71,72
 434 627 434 627 436 602 c 2,73,-1
 438 576 l 1,74,75
 437 568 437 568 436 559 c 0,76,77
 436 550 436 550 431 528 c 0,78,79
 426 513 426 513 420 499 c 0,80,81
 413 485 413 485 411 477 c 0,82,83
 409 470 409 470 403 464 c 1,84,85
 399 461 399 461 376 438 c 0,86,87
 354 416 354 416 352 410 c 1,88,89
 351 404 351 404 345 398 c 1,90,91
 339 394 339 394 331 386 c 0,92,93
 320 375 320 375 318 372 c 0,94,95
 315 366 315 366 304 361 c 0,96,97
 292 355 292 355 273 336 c 0,98,99
 266 329 266 329 258 320 c 2,100,-1
 250 311 l 1,101,102
 247 306 247 306 247 295 c 0,103,104
 247 283 247 283 244 280 c 1,105,106
 242 274 242 274 242 270 c 0,107,108
 242 263 242 263 245 257 c 0,109,110
 249 249 249 249 249 242 c 1,111,-1
 246 227 l 1,112,113
 242 217 242 217 242 206 c 1,114,115
 239 193 239 193 237 191 c 1,116,117
 230 187 230 187 219 186 c 0,118,119
 203 184 203 184 181 184 c 0,120,121
 164 184 164 184 160 185 c 128,-1,122
 156 186 156 186 151 192 c 0,123,124
 143 202 143 202 143 204 c 2,125,126
 141 207 141 207 145 222 c 1,127,128
 147 240 147 240 147 252 c 0,129,130
 147 274 147 274 146 282 c 0,131,132
 146 305 146 305 147 314 c 0,133,134
 150 332 150 332 154 338 c 0,135,136
 156 341 156 341 160 346.5 c 128,-1,137
 164 352 164 352 165 354 c 0,138,139
 177 370 177 370 178 371 c 0,140,141
 186 381 186 381 192 387 c 1,142,143
 196 390 196 390 211 405 c 0,144,145
 222 415 222 415 230 417 c 0,146,147
 237 419 237 419 240 424 c 2,148,149
 242 425 242 425 252 438 c 0,150,151
 260 448 260 448 263 455 c 0,152,153
 265 462 265 462 273 466 c 0,154,155
 282 470 282 470 284 478 c 0,156,157
 285 483 285 483 292 492 c 1,158,159
 292 493 292 493 295 498 c 128,-1,160
 298 503 298 503 299 505 c 1,161,162
 300 510 300 510 303 513 c 2,163,-1
 308 518 l 1,164,165
 311 526 311 526 312 534 c 0,166,167
 312 542 312 542 315 551 c 1,168,169
 318 556 318 556 318 566 c 0,170,171
 318 575 318 575 316 577 c 0,172,173
 315 578 315 578 313 592 c 0,174,175
 311 603 311 603 306 615 c 0,176,177
 304 619 304 619 300 626 c 128,-1,178
 296 633 296 633 296 634 c 1,179,180
 287 643 287 643 282 646 c 0,181,182
 273 652 273 652 257 660 c 0,183,184
 242 668 242 668 235 666 c 0,185,186
 231 664 231 664 220 664 c 0,187,188
 218 664 218 664 211.5 665 c 128,-1,189
 205 666 205 666 203 667 c 1,190,191
 192 667 192 667 187 665 c 0,192,193
 179 662 179 662 167 662 c 1,194,195
 160 663 160 663 143 663 c 1,196,197
 137 662 137 662 117 662 c 0,198,199
 103 661 103 661 93 666 c 0,200,201
 84 671 84 671 80 676 c 1,202,203
 76 683 76 683 75 692 c 0,204,205
 73 702 73 702 73 712 c 2,206,207
 72 718 72 718 72 720 c 0,208,209
 72 725 72 725 77 735 c 0,210,211
 84 747 84 747 95 752 c 0,212,213
 107 758 107 758 126 759 c 0,214,215
 143 759 143 759 153 761 c 1,47,48
EndSplineSet
Validated: 1
EndChar
StartChar: uni0043
Encoding: 67 67 38
GlifName: uni0043
Width: 695
GlyphClass: 2
Flags: W
LayerCount: 2
Fore
SplineSet
361 759 m 0,0,1
 370 762 370 762 377 762 c 0,2,3
 380 762 380 762 398 760 c 0,4,5
 417 757 417 757 428 759 c 0,6,7
 440 762 440 762 448 759 c 1,8,9
 454 758 454 758 467 751 c 0,10,11
 479 744 479 744 491 743 c 0,12,13
 497 742 497 742 520 737 c 0,14,15
 535 733 535 733 543 726 c 0,16,17
 550 720 550 720 559 717 c 1,18,19
 571 708 571 708 574 705 c 0,20,21
 578 700 578 700 590 690 c 0,22,23
 599 684 599 684 603 678 c 0,24,25
 604 677 604 677 609 671 c 128,-1,26
 614 665 614 665 617 661 c 0,27,28
 628 648 628 648 635 634 c 0,29,30
 641 621 641 621 643 609 c 0,31,32
 647 591 647 591 647 590 c 2,33,34
 649 585 649 585 652 572 c 0,35,36
 654 562 654 562 653 552 c 1,37,38
 652 550 652 550 650 544.5 c 128,-1,39
 648 539 648 539 648 538 c 1,40,41
 643 533 643 533 640 531 c 0,42,43
 635 528 635 528 607 527 c 0,44,45
 592 526 592 526 577 526 c 0,46,47
 576 526 576 526 570.5 528.5 c 128,-1,48
 565 531 565 531 562 533 c 0,49,50
 550 539 550 539 547 546 c 0,51,52
 545 550 545 550 539 559 c 1,53,54
 534 564 534 564 534 569 c 1,55,56
 532 576.5 l 130,-1,57
 530 584 530 584 528 589 c 0,58,59
 524 603 524 603 519 607 c 0,60,61
 515 610 515 610 513 616 c 0,62,63
 512 619 512 619 507 629 c 1,64,65
 504 633 504 633 498 639 c 1,66,67
 494 641 494 641 480 651 c 0,68,69
 464 660 464 660 457 661 c 0,70,71
 447 663 447 663 438 666 c 0,72,73
 427 670 427 670 405 670 c 256,74,75
 383 670 383 670 369 672 c 0,76,77
 357 673 357 673 349 668 c 0,78,79
 340 662 340 662 329 661 c 0,80,81
 317 659 317 659 307 654 c 256,82,83
 297 649 297 649 289 647 c 1,84,85
 282 647 282 647 270 639 c 0,86,87
 267 637 267 637 263.5 634.5 c 128,-1,88
 260 632 260 632 256.5 629 c 128,-1,89
 253 626 253 626 252 625 c 0,90,91
 241 610 241 610 237 604 c 0,92,93
 235 602 235 602 224 585 c 0,94,95
 221 581 221 581 217 570 c 0,96,97
 213 557 213 557 208 551 c 0,98,99
 202 542 202 542 198 528 c 0,100,101
 197 523 197 523 194.5 514 c 128,-1,102
 192 506 192 506 192 505 c 2,103,104
 191 502 191 502 189 494.5 c 128,-1,105
 187 487 187 487 186 485 c 0,106,107
 185 482 185 482 184 472.5 c 128,-1,108
 183 463 183 463 183 459 c 0,109,110
 182 453 182 453 180 410 c 0,111,112
 179 391 179 391 179 356 c 0,113,114
 179 337 179 337 183 327 c 1,115,116
 185 318 185 318 183 306 c 128,-1,117
 181 294 181 294 185 286 c 0,118,119
 188 279 188 279 188 272 c 256,120,121
 188 265 188 265 191 259 c 1,122,123
 194 244 194 244 194 243 c 0,124,125
 196 234 196 234 200 230 c 1,126,127
 204 224 204 224 205 215 c 0,128,129
 207 203 207 203 212 194 c 0,130,131
 218 182 218 182 220 182 c 1,132,133
 223 179 223 179 224 174 c 0,134,135
 226 168 226 168 238 158 c 0,136,137
 251 149 251 149 256 142 c 2,138,139
 266 132 266 132 271 126 c 1,140,141
 275 119 275 119 283 111 c 0,142,143
 285 109 285 109 309 99 c 0,144,145
 329 92 329 92 337 92 c 0,146,147
 340 92 340 92 345 92 c 0,148,149
 356 93 356 93 368 89 c 0,150,151
 377 86 377 86 400 86 c 0,152,153
 422 87 422 87 432 92 c 0,154,155
 442 98 442 98 453 100 c 1,156,157
 464 104 464 104 469 107 c 1,158,159
 474 112 474 112 476 112 c 256,160,161
 478 112 478 112 483 118 c 1,162,163
 489.5 123.5 l 130,-1,164
 496 129 496 129 500 131 c 0,165,166
 511 139 511 139 513 145 c 0,167,168
 514 149 514 149 521 160 c 0,169,170
 528 169 528 169 533 186 c 0,171,172
 535 191 535 191 538 200.5 c 128,-1,173
 541 210 541 210 542 212 c 2,174,175
 544 220 544 220 551 227 c 0,176,177
 557 234 557 234 564 236 c 0,178,179
 568 238 568 238 601 238 c 0,180,181
 633 237 633 237 639 234 c 0,182,183
 643 232 643 232 651 224 c 0,184,185
 656 218 656 218 657 208 c 0,186,187
 657 206 657 206 657 203 c 0,188,189
 657 195 657 195 655 188 c 0,190,191
 652 176 652 176 651 165 c 0,192,193
 651 161 651 161 650 154.5 c 128,-1,194
 649 148 649 148 649 147 c 1,195,196
 646 140 646 140 639 135 c 0,197,198
 632 129 632 129 629 120 c 0,199,200
 627 110 627 110 618 103 c 2,201,-1
 606 91 l 2,202,203
 603 88 603 88 601 82 c 128,-1,204
 599 76 599 76 586 67 c 0,205,206
 571 56 571 56 568 51 c 0,207,208
 566 48 566 48 556 44 c 1,209,210
 550 43 550 43 542 34 c 0,211,212
 535 25 535 25 529 21 c 0,213,214
 521 17 521 17 514 17 c 128,-1,215
 507 17 507 17 495 13 c 0,216,217
 492 12 492 12 485.5 9.5 c 128,-1,218
 479 7 479 7 478 7 c 0,219,220
 476 7 476 7 472.5 5.5 c 128,-1,221
 469 4 469 4 468 3 c 1,222,-1
 456 0 l 2,223,224
 448 -3 448 -3 437 -2 c 0,225,226
 432 -1 432 -1 422.5 -1 c 128,-1,227
 413 -1 413 -1 405 -2 c 0,228,229
 388 -4 388 -4 383 -6 c 1,230,231
 382 -7 382 -7 374 -9 c 0,232,233
 370 -10 370 -10 367 -10 c 256,234,235
 364 -10 364 -10 357 -8 c 0,236,237
 346 -4 346 -4 325 -4 c 0,238,239
 301 -4 301 -4 292 -1 c 0,240,241
 289 0 289 0 282.5 2.5 c 128,-1,242
 276 5 276 5 275 5 c 0,243,244
 268 7 268 7 264 10 c 1,245,246
 260 14 260 14 254 16 c 2,247,248
 253 17 253 17 243 21.5 c 128,-1,249
 233 26 233 26 227 29 c 0,250,251
 207 39 207 39 191 51 c 0,252,253
 179 60 179 60 164 77 c 0,254,255
 160 81 160 81 150.5 91 c 128,-1,256
 141 101 141 101 138 105 c 2,257,258
 123 120 123 120 122 123 c 0,259,260
 119 132 119 132 117 136 c 2,261,262
 115 145 115 145 111 149 c 1,263,-1
 104 160 l 1,264,265
 104 161 104 161 97 171 c 1,266,267
 92 176 92 176 91 187 c 0,268,269
 90 199 90 199 83 207 c 1,270,271
 77 217 77 217 76 225 c 0,272,273
 76 234 76 234 72 248 c 2,274,-1
 63 276 l 2,275,276
 58 292 58 292 58 314 c 0,277,278
 57 326 57 326 57 331 c 0,279,280
 57 339 57 339 59 342 c 0,281,282
 62 348 62 348 62 396 c 0,283,284
 62 446 62 446 65 454 c 1,285,286
 68 469 68 469 69 488 c 0,287,288
 70 511 70 511 75 518 c 0,289,290
 79 525 79 525 79 535 c 0,291,292
 79 543 79 543 83 555 c 1,293,294
 85 557 85 557 87.5 562.5 c 128,-1,295
 90 568 90 568 91 570 c 1,296,297
 92 571 92 571 98 583 c 1,298,299
 99 588 99 588 103 596 c 0,300,301
 108 604 108 604 114 614 c 0,302,303
 121 627 121 627 128 632 c 0,304,305
 136 638 136 638 140 650 c 0,306,307
 145 663 145 663 151 669 c 2,308,-1
 156 673 l 2,309,310
 162 677 162 677 164 678 c 0,311,312
 168 681 168 681 174 687 c 1,313,314
 175 691 175 691 189 701 c 0,315,316
 203 713 203 713 209 719 c 0,317,318
 219 727 219 727 224 727 c 1,319,320
 236 730 236 730 243 732 c 0,321,322
 255 737 255 737 259 737 c 128,-1,323
 263 737 263 737 269 740 c 1,324,325
 281 743 281 743 294 743 c 0,326,327
 312 744 312 744 319 750 c 128,-1,328
 326 756 326 756 337 756 c 0,329,330
 350 756 350 756 361 759 c 0,0,1
EndSplineSet
Validated: 524289
EndChar
StartChar: uni0046
Encoding: 70 70 41
GlifName: uni0046
Width: 617
GlyphClass: 2
Flags: W
LayerCount: 2
Fore
SplineSet
483 739 m 2,0,-1
 487 739 l 1,1,2
 489 737 489 737 520 737 c 0,3,4
 549 736 549 736 558 732 c 2,5,-1
 568 727 l 1,6,7
 571 724 571 724 577 712 c 128,-1,8
 583 700 583 700 583 681 c 0,9,10
 583 663 583 663 580 659 c 0,11,12
 578 655 578 655 570 651 c 0,13,14
 566 649 566 649 552 643 c 0,15,16
 545 640 545 640 537 640 c 0,17,18
 532 640 532 640 520 641 c 0,19,20
 495 643 495 643 493 645 c 1,21,22
 485 647 485 647 448 647 c 128,-1,23
 411 647 411 647 399 643 c 128,-1,24
 387 639 387 639 375 641 c 0,25,26
 371 641 371 641 360.5 641.5 c 128,-1,27
 350 642 350 642 347 642 c 0,28,29
 330 642 330 642 325 644 c 0,30,31
 317 646 317 646 306 645 c 0,32,33
 294 643 294 643 270 641 c 0,34,35
 243 639 243 639 239 637 c 0,36,37
 233 635 233 635 230 630 c 2,38,39
 225 627 225 627 223 618 c 1,40,41
 223 616 223 616 221.5 611.5 c 128,-1,42
 220 607 220 607 219 605 c 0,43,44
 216 600 216 600 216 591 c 0,45,46
 216 585 216 585 218 565 c 0,47,48
 220 548 220 548 222 542 c 0,49,50
 225 535 225 535 224 518 c 0,51,52
 224 515 224 515 223 503 c 128,-1,53
 222 491 222 491 221 486 c 0,54,55
 221 482 221 482 220 477 c 128,-1,56
 219 472 219 472 218 466 c 128,-1,57
 217 460 217 460 217 458 c 2,58,59
 214 447 214 447 216 439 c 0,60,61
 217 434 217 434 222 429 c 1,62,63
 226 426 226 426 233 424 c 0,64,65
 241 422 241 422 244 421 c 1,66,67
 246 419 246 419 258 417 c 1,68,69
 263 417 263 417 275 414 c 0,70,71
 285 411 285 411 290 413 c 0,72,73
 293 414 293 414 315 416 c 0,74,75
 341 421 341 421 343 422 c 1,76,77
 355 425 355 425 361 424 c 1,78,79
 367 424 367 424 372 419 c 0,80,81
 376 415 376 415 380 415 c 0,82,83
 383 415 383 415 391 417 c 0,84,85
 403 420 403 420 408 422 c 1,86,87
 418 424 418 424 444 424 c 0,88,89
 466 424 466 424 497 422 c 0,90,91
 524 420 524 420 531 418 c 128,-1,92
 538 416 538 416 541 409 c 1,93,94
 547 402 547 402 552 398 c 1,95,96
 558 395 558 395 560 391 c 128,-1,97
 562 387 562 387 562 369 c 128,-1,98
 562 351 562 351 560 345 c 0,99,100
 559 340 559 340 553 335 c 0,101,102
 550 332 550 332 535 328 c 0,103,104
 525 325 525 325 517 325 c 0,105,106
 511 325 511 325 505 328 c 0,107,108
 497 332 497 332 477 332 c 0,109,110
 456 332 456 332 444 328 c 128,-1,111
 432 324 432 324 425 324 c 0,112,113
 417 324 417 324 408 329 c 0,114,115
 398 335 398 335 389 335 c 0,116,117
 385 335 385 335 370 332 c 0,118,119
 358 328 358 328 331 328 c 256,120,121
 304 328 304 328 289 332 c 0,122,123
 277 335 277 335 267 332 c 0,124,125
 261 330 261 330 249 327 c 1,126,127
 242 327 242 327 238 323 c 0,128,129
 232 317 232 317 229 313 c 1,130,131
 223 301 223 301 220 294 c 0,132,133
 216 283 216 283 216 250 c 0,134,135
 217 218 217 218 220 214 c 1,136,137
 222 208 222 208 222 194 c 0,138,139
 221 186 221 186 221 174 c 2,140,141
 221.5 159 l 130,-1,142
 222 144 222 144 222 133 c 0,143,144
 223 117 223 117 223 108 c 0,145,146
 223 94 223 94 221 88 c 1,147,148
 221 86 221 86 220 79.5 c 128,-1,149
 219 73 219 73 218 71 c 1,150,151
 218 67 218 67 220 55 c 1,152,153
 224 47 224 47 222 37 c 2,154,155
 222 27 222 27 218 21 c 1,156,157
 214 12 214 12 211 11 c 0,158,159
 202 8 202 8 193 8 c 0,160,161
 177 6 177 6 165 3 c 0,162,163
 155 0 155 0 151 0 c 0,164,165
 148 0 148 0 141 1 c 0,166,167
 131 3 131 3 127 5 c 1,168,169
 123 6 123 6 118 18 c 0,170,171
 112 30 112 30 112 55 c 128,-1,172
 112 80 112 80 109 85 c 1,173,174
 106 94 106 94 106 99 c 0,175,176
 106 102 106 102 109 114 c 1,177,178
 112 121 112 121 112 169 c 0,179,180
 110 222 110 222 109 228 c 0,181,182
 108 242 108 242 110 250 c 0,183,184
 112 260 112 260 112 273 c 0,185,186
 112 288 112 288 109 296 c 0,187,188
 107 304 107 304 108 313 c 1,189,190
 111 322 111 322 108 331 c 0,191,192
 106 338 106 338 106 351 c 0,193,194
 106 355 106 355 106 360 c 0,195,196
 106 379 106 379 108 387 c 128,-1,197
 110 395 110 395 110 409 c 0,198,199
 110 412 110 412 110.5 422 c 128,-1,200
 111 432 111 432 111 436 c 0,201,202
 112 449 112 449 109 460 c 0,203,204
 106 467 106 467 106 472 c 0,205,206
 106 474 106 474 107 481 c 0,207,208
 108 492 108 492 107 506 c 0,209,210
 106 517 106 517 106 561 c 0,211,212
 106 599 l 0,213,214
 106 674 106 674 108 686 c 0,215,216
 109 690 109 690 112 705 c 0,217,218
 114 717 114 717 117 720 c 2,219,220
 119 725 119 725 125 727 c 0,221,222
 130 729 130 729 158 731 c 0,223,224
 166 731 166 731 180 731.5 c 128,-1,225
 194 732 194 732 197 732 c 0,226,227
 199 732 199 732 207.5 733 c 128,-1,228
 216 734 216 734 219 735 c 1,229,230
 228 736 228 736 236 735 c 0,231,232
 247 733 247 733 254 734 c 0,233,234
 262 735 262 735 271 733 c 0,235,236
 276 732 276 732 331 730 c 0,237,238
 384 730 384 730 394 733 c 0,239,240
 405 737 405 737 424 737 c 0,241,242
 442 737 442 737 452 735 c 0,243,244
 463 733 463 733 471 735 c 0,245,246
 474 736 474 736 478 737.5 c 128,-1,247
 482 739 482 739 483 739 c 2,0,-1
EndSplineSet
Validated: 524289
EndChar
StartChar: uni0047
Encoding: 71 71 42
GlifName: uni0047
Width: 791
GlyphClass: 2
Flags: W
LayerCount: 2
Fore
SplineSet
410 761 m 2,0,1
 412 762 412 762 417 762 c 0,2,3
 420 762 420 762 430 760 c 0,4,5
 439 757 439 757 459 757 c 0,6,7
 478 757 478 757 488 755 c 0,8,9
 491 754 491 754 497.5 752.5 c 128,-1,10
 504 751 504 751 506 751 c 0,11,12
 511 751 511 751 529 747 c 0,13,14
 541 744 541 744 551 741 c 1,15,16
 559 737 559 737 567 737 c 1,17,18
 578 735 578 735 582 732 c 1,19,-1
 594 728 l 2,20,21
 601 726 601 726 611 718 c 0,22,23
 620 712 620 712 631 701 c 0,24,25
 632 700 632 700 639 691.5 c 128,-1,26
 646 683 646 683 650 678 c 0,27,28
 665 658 665 658 669 655 c 0,29,30
 677 648 677 648 679 635 c 0,31,32
 680 629 680 629 683 614 c 1,33,34
 686 608 686 608 686 594 c 0,35,36
 686 584 686 584 682 580 c 0,37,38
 677 575 677 575 667 573 c 2,39,40
 661 570 661 570 645 566 c 0,41,42
 624 563 624 563 620 563 c 0,43,44
 606 563 606 563 601 567 c 2,45,46
 597 568 597 568 584 579 c 0,47,48
 573 589 573 589 567 601 c 1,49,50
 564 612 564 612 550 626 c 0,51,52
 537 640 537 640 527 644 c 1,53,54
 515 651 515 651 512 655 c 0,55,56
 509 660 509 660 504 663 c 0,57,58
 497 666 497 666 483 667 c 0,59,60
 479 668 479 668 454 671 c 0,61,62
 441 673 441 673 434 671 c 0,63,64
 433 671 433 671 425 670.5 c 128,-1,65
 417 670 417 670 412 670 c 0,66,67
 400 670 400 670 376 668 c 0,68,69
 354 668 354 668 350 666 c 2,70,71
 346 666 346 666 337 657 c 0,72,73
 326 648 326 648 323 648 c 0,74,75
 322 648 322 648 316 645.5 c 128,-1,76
 310 643 310 643 307 642 c 0,77,78
 293 636 293 636 289 632 c 128,-1,79
 285 628 285 628 279 625 c 0,80,81
 277 624 277 624 260 609 c 0,82,83
 248 597 248 597 240 583 c 0,84,85
 237 576 237 576 229 560 c 0,86,87
 227 556 227 556 219 544 c 0,88,89
 215 538 215 538 211 530 c 0,90,91
 205 515 205 515 203 508 c 0,92,93
 199 494 199 494 199 485 c 128,-1,94
 199 476 199 476 197 468 c 1,95,96
 194 462 194 462 194 450 c 256,97,98
 194 438 194 438 191 428 c 0,99,100
 187 418 187 418 190 406 c 0,101,102
 193 393 193 393 190 385 c 0,103,104
 187 378 187 378 187 365 c 0,105,106
 187 358 187 358 188 340 c 0,107,108
 188 306 188 306 192 287 c 256,109,110
 196 268 196 268 197 267 c 1,111,112
 198 262.5 l 130,-1,113
 199 258 199 258 200 255 c 0,114,115
 203 246 203 246 207 236 c 1,116,117
 215 223 215 223 216 222 c 0,118,119
 219 219 219 219 221 212 c 1,120,121
 221 208 221 208 226 203 c 1,122,123
 231 200 231 200 237 186 c 0,124,125
 245 172 245 172 248 169 c 0,126,127
 249 168 249 168 261.5 160.5 c 128,-1,128
 274 153 274 153 282 145 c 0,129,130
 288 139 288 139 300 124 c 0,131,132
 308 115 308 115 316 113 c 0,133,134
 325 110 325 110 333 102 c 128,-1,135
 341 94 341 94 347 95 c 1,136,137
 353 97 353 97 364 97 c 0,138,139
 372 98 372 98 386 96 c 1,140,141
 392 94 392 94 413 89 c 0,142,143
 432 85 432 85 463 85 c 0,144,145
 497 85 497 85 504 89 c 0,146,147
 514 93 514 93 520 93 c 0,148,149
 529 93 529 93 534 97 c 1,150,151
 538 99 538 99 553 104 c 1,152,153
 564 106 564 106 571 110 c 0,154,155
 576 113 576 113 578 117 c 0,156,157
 581 123 581 123 584 132 c 2,158,159
 587 138 587 138 591 154 c 0,160,161
 595 167 595 167 593 173 c 1,162,163
 593 180 593 180 591 188 c 256,164,165
 589 196 589 196 591 208 c 1,166,167
 593 213 593 213 595 242 c 0,168,169
 596 266 596 266 592 272 c 0,170,171
 588 279 588 279 588 290 c 0,172,173
 588 302 588 302 585 305 c 256,174,175
 582 308 582 308 569 312 c 0,176,177
 558 315 558 315 505 315 c 0,178,179
 480 315 480 315 472 315 c 0,180,181
 453 315 453 315 448 320 c 1,182,183
 440 326 440 326 439 330 c 2,184,185
 436 334 436 334 436 356 c 0,186,187
 436 376 436 376 441 381 c 0,188,189
 447 386 447 386 451 388 c 1,190,191
 459 390 459 390 471 390 c 0,192,193
 485 390 485 390 494 394 c 0,194,195
 500 397 500 397 508 397 c 0,196,197
 515 397 515 397 522 394 c 1,198,199
 532 392 532 392 539 395 c 0,200,201
 545 398 545 398 577 398 c 0,202,203
 605 398 605 398 626 401 c 0,204,205
 644 404 644 404 657 404 c 1,206,207
 671 402 671 402 674 401 c 1,208,209
 679 397 679 397 688 387 c 0,210,211
 698 373 698 373 699 371 c 1,212,213
 699 370 699 370 699.5 333.5 c 128,-1,214
 700 297 700 297 701 267 c 2,215,-1
 701 159 l 2,216,217
 701 131 701 131 700 107 c 0,218,219
 699 66 699 66 694 56 c 0,220,221
 690 48 690 48 676 37 c 0,222,223
 663 26 663 26 655 24 c 0,224,225
 649 22 649 22 629 20 c 0,226,227
 624 20 624 20 610 19 c 128,-1,228
 596 18 596 18 591 17 c 0,229,230
 578 16 578 16 560 11 c 0,231,232
 548 6 548 6 540 6 c 0,233,234
 531 6 531 6 520 3 c 0,235,236
 507 1 507 1 503 -1 c 0,237,238
 497 -4 497 -4 484 -4 c 1,239,240
 479 -5 479 -5 468 -6.5 c 128,-1,241
 457 -8 457 -8 454 -8 c 0,242,243
 447 -9 447 -9 443 -9 c 0,244,245
 437 -9 437 -9 430 -7 c 0,246,247
 420 -4 420 -4 399 -4 c 0,248,249
 379 -4 379 -4 369 -2 c 2,250,251
 342 1 l 2,252,253
 325 2 325 2 313 7 c 2,254,-1
 292 17 l 2,255,256
 284 22 284 22 268 24 c 0,257,258
 253 27 253 27 248 31 c 0,259,260
 245 33 245 33 233 42 c 0,261,262
 219 50 219 50 218 51 c 2,263,264
 214 52 214 52 207 57 c 2,265,-1
 196 64 l 2,266,267
 187 70 187 70 181 76 c 0,268,269
 169 88 169 88 165 91 c 0,270,271
 159 96 159 96 154 103 c 0,272,273
 151 107 151 107 146 120 c 0,274,275
 143 131 143 131 132 142 c 128,-1,276
 121 153 121 153 115 167 c 0,277,278
 108 183 108 183 107 189 c 1,279,280
 107 197 107 197 103 203 c 256,281,282
 99 209 99 209 96 220 c 1,283,284
 96 222 96 222 89 242 c 1,285,286
 84 250 84 250 83 272 c 0,287,288
 83 291 83 291 79 313 c 0,289,290
 77 333 77 333 73 342 c 0,291,292
 71 348 71 348 71 352 c 0,293,294
 71 354 71 354 72 359 c 0,295,296
 73 367 73 367 72 378 c 1,297,298
 70 386 70 386 70 389 c 128,-1,299
 70 392 70 392 72 399 c 0,300,301
 74 405 74 405 76 443 c 0,302,303
 78 474 78 474 80 486 c 0,304,305
 83 496 83 496 85 500 c 0,306,307
 86 502 86 502 89 510 c 128,-1,308
 92 518 92 518 93 521 c 0,309,310
 95 531 95 531 107 557 c 0,311,312
 111 564 111 564 115.5 574 c 128,-1,313
 120 584 120 584 120 585 c 0,314,315
 122 594 122 594 125 598 c 0,316,317
 131 607 131 607 136 612 c 0,318,319
 143 619 143 619 149 631 c 128,-1,320
 155 643 155 643 164 652 c 2,321,-1
 184 673 l 2,322,323
 191 682 191 682 201 688 c 0,324,325
 210 694 210 694 216 700 c 0,326,327
 225 709 225 709 225 711 c 0,328,329
 225 712 225 712 232 714 c 0,330,331
 243 718 243 718 255 723 c 0,332,333
 279 734 279 734 283 736 c 0,334,335
 296 742 296 742 303 743 c 0,336,337
 316 746 316 746 321 748 c 0,338,339
 331 752 331 752 334 752 c 0,340,341
 340 752 340 752 349 755 c 0,342,343
 361 758 361 758 371 755 c 0,344,345
 379 752 379 752 389 752 c 0,346,347
 398 752 398 752 403 756 c 0,348,349
 404 757 404 757 407 759 c 0,350,351
 409 761 409 761 410 761 c 2,0,1
EndSplineSet
Validated: 524289
EndChar
StartChar: uni0048
Encoding: 72 72 43
GlifName: uni0048
Width: 782
GlyphClass: 2
Flags: W
LayerCount: 2
Fore
SplineSet
591 738 m 0,0,1
 606 744 606 744 613 744 c 0,2,3
 622 744 622 744 628 741 c 1,4,5
 641 737 641 737 645 736 c 0,6,7
 659 732 659 732 662 731 c 0,8,9
 668 728 668 728 669 724 c 0,10,11
 671 717 671 717 674 713 c 0,12,13
 675 711 675 711 677 691 c 256,14,15
 679 671 679 671 679 662 c 0,16,17
 679 659 679 659 678.5 649 c 128,-1,18
 678 639 678 639 678 634 c 0,19,20
 678 617 678 617 681 606 c 0,21,22
 684 598 684 598 684 594 c 128,-1,23
 684 590 684 590 681 579 c 1,24,25
 679 559 679 559 679 556 c 0,26,27
 679 555 679 555 682 536 c 1,28,29
 682 522 682 522 680 516 c 1,30,31
 677 510 677 510 677 503 c 1,32,33
 679 499 679 499 681 491 c 0,34,35
 684 482 684 482 682 471 c 0,36,37
 679 458 679 458 682 444 c 0,38,39
 684 431 684 431 681 420 c 0,40,41
 677 408 677 408 677 383 c 0,42,43
 677 359 677 359 680 347 c 1,44,45
 684 338 684 338 684 318 c 256,46,47
 684 298 684 298 681 287 c 0,48,49
 679 275 679 275 681 259 c 0,50,51
 684 246 684 246 682 236 c 0,52,53
 681 232 681 232 681 215 c 0,54,55
 680 204 680 204 682 190 c 0,56,57
 684 179 684 179 681 160 c 0,58,59
 677 137 677 137 677 133 c 0,60,61
 677 128 677 128 679 120 c 0,62,63
 681 114 681 114 681 90 c 0,64,65
 682 72 682 72 682 59 c 0,66,67
 682 53 682 53 682 49 c 0,68,69
 682 32 682 32 679 24 c 2,70,71
 678 17 678 17 673 12 c 256,72,73
 668 7 668 7 655 2 c 0,74,75
 642 -4 642 -4 634 -4 c 0,76,77
 630 -4 630 -4 617 -3 c 0,78,79
 596 -2 596 -2 583 3 c 0,80,81
 573 7 573 7 569 13 c 0,82,83
 566 19 566 19 566 33 c 128,-1,84
 566 47 566 47 564 53 c 1,85,86
 561 59 561 59 561 70 c 0,87,88
 561 79 561 79 565 86 c 1,89,90
 570 91 570 91 568 95 c 256,91,92
 566 99 566 99 563 102 c 128,-1,93
 560 105 560 105 560 114 c 128,-1,94
 560 123 560 123 562 127 c 0,95,96
 566 135 566 135 567 143 c 0,97,98
 567 146 567 146 568.5 153 c 128,-1,99
 570 160 570 160 570 162 c 0,100,101
 570 165 570 165 567 174 c 128,-1,102
 564 183 564 183 564 185 c 0,103,104
 564 186 564 186 564.5 192.5 c 128,-1,105
 565 199 565 199 565 208.5 c 128,-1,106
 565 218 565 218 565 227 c 0,107,108
 566 247 566 247 566 255 c 0,109,110
 566 266 566 266 564 271 c 0,111,112
 563 274 563 274 560 294 c 1,113,114
 560 311 560 311 557 315 c 0,115,116
 555 319 555 319 550 322 c 1,117,118
 544 324 544 324 524 323 c 0,119,120
 520 323 520 323 499.5 322.5 c 128,-1,121
 479 322 479 322 468 322 c 0,122,123
 416 325 416 325 411 325 c 0,124,125
 379 328 379 328 378 328 c 0,126,127
 363 328 363 328 357 326 c 0,128,129
 348 323 348 323 329 323 c 2,130,-1
 300 323 l 2,131,132
 278 323 278 323 261 322 c 0,133,134
 229 321 229 321 224 317 c 2,135,136
 220 316 220 316 215 308 c 0,137,138
 212 303 212 303 211 274 c 0,139,140
 209 244 209 244 209 242 c 0,141,142
 209 238 209 238 211 226 c 0,143,144
 213 212 213 212 213 169 c 128,-1,145
 213 126 213 126 215 116 c 1,146,147
 218 109 218 109 215 94 c 0,148,149
 214 87 214 87 214 78.5 c 128,-1,150
 214 70 214 70 215 62 c 0,151,152
 217 43 217 43 213 32 c 0,153,154
 209 20 209 20 209 15 c 1,155,156
 207 8 207 8 205 6 c 0,157,158
 204 5 204 5 199 2 c 0,159,160
 195 0 195 0 193 -1 c 0,161,162
 186 -4 186 -4 180 -4 c 256,163,164
 174 -4 174 -4 168 -7 c 1,165,166
 160 -9 160 -9 155 -9 c 0,167,168
 149 -9 149 -9 141 -7 c 2,169,170
 139 -7 139 -7 134.5 -5.5 c 128,-1,171
 130 -4 130 -4 128 -4 c 1,172,173
 122 -2 122 -2 118 2 c 0,174,175
 113 6 113 6 110 11 c 1,176,177
 106 24 106 24 105 29 c 0,178,179
 102 43 102 43 102 91 c 0,180,181
 100 141 100 141 99 145 c 0,182,183
 97 151 97 151 97 155 c 0,184,185
 97 160 97 160 99 168 c 0,186,187
 101 177 101 177 98 187 c 0,188,189
 95 205 95 205 95 206 c 0,190,191
 95 213 95 213 99 227 c 0,192,193
 102 236 102 236 102 262 c 0,194,195
 102 287 102 287 99 296 c 0,196,197
 95 306 95 306 97 320 c 0,198,199
 99 338 99 338 98 345 c 2,200,201
 98 353 98 353 96 385 c 0,202,203
 96 394 96 394 96 401 c 0,204,205
 96 414 96 414 98 424 c 0,206,207
 100 435 100 435 98 444 c 0,208,209
 96 450 96 450 96 464 c 0,210,211
 96 473 96 473 97 494 c 0,212,213
 97 507 97 507 97.5 525 c 128,-1,214
 98 542 98 542 98 543 c 0,215,216
 98 549 98 549 96 567 c 0,217,218
 95 584 95 584 99 594 c 0,219,220
 103 608 103 608 101 623 c 0,221,222
 101 638 101 638 99 660 c 0,223,224
 99 679 99 679 101 695 c 0,225,226
 103 710 103 710 105 714 c 1,227,228
 106 718 106 718 111 720 c 2,229,230
 114 723 114 723 123 725 c 2,231,232
 133 729 133 729 154 729 c 0,233,234
 164 730 164 730 173 730 c 128,-1,235
 182 730 182 730 186 729 c 0,236,237
 192 728 192 728 201 723 c 0,238,239
 208 719 208 719 211 713 c 0,240,241
 212 710 212 710 214 680 c 0,242,243
 214 655 214 655 211 643 c 0,244,245
 208 634 208 634 209 616 c 0,246,247
 209 611 209 611 210 601.5 c 128,-1,248
 211 592 211 592 211 591 c 0,249,250
 213 583 213 583 213 539 c 0,251,252
 213 502 213 502 211 480 c 0,253,254
 208 467 208 467 208 459 c 0,255,256
 208 455 208 455 212 445 c 0,257,258
 217 433 217 433 217 428 c 1,259,260
 219 418 219 418 220 417 c 0,261,262
 222 415 222 415 241 416 c 0,263,264
 251 416 l 0,265,266
 262 416 262 416 274 414 c 0,267,268
 285 411 285 411 300 411 c 0,269,270
 311 411 311 411 333 415 c 0,271,272
 347 418 347 418 357 418 c 0,273,274
 363 418 363 418 373 417 c 0,275,276
 387 417 387 417 402 414 c 0,277,278
 411 412 411 412 423 415 c 128,-1,279
 435 418 435 418 447 417 c 1,280,281
 454 415 454 415 464 415 c 0,282,283
 470 415 470 415 479 416 c 0,284,285
 501 418 501 418 520 418 c 0,286,287
 536 417 536 417 540 417.5 c 128,-1,288
 544 418 544 418 548 422 c 2,289,290
 555 425 555 425 561 438 c 0,291,292
 566 450 566 450 566 481 c 0,293,294
 566 490 566 490 565.5 510 c 128,-1,295
 565 530 565 530 565 537 c 0,296,297
 565 563 565 563 562 568 c 1,298,299
 560 575 560 575 560 583 c 256,300,301
 560 591 560 591 561 605 c 0,302,303
 563 636 563 636 564 639 c 0,304,305
 566 643 566 643 566 679 c 0,306,307
 566 714 566 714 568 718 c 0,308,309
 571 724 571 724 574 727 c 0,310,311
 576 729 576 729 582.5 733 c 128,-1,312
 589 737 589 737 591 738 c 0,0,1
EndSplineSet
Validated: 524289
EndChar
StartChar: uni004C
Encoding: 76 76 47
GlifName: uni004C_
Width: 655
GlyphClass: 2
Flags: W
LayerCount: 2
Fore
SplineSet
136 745 m 0,0,1
 140 746 140 746 146.5 747.5 c 128,-1,2
 152 749 152 749 153 749 c 0,3,4
 160 749 160 749 164 746 c 1,5,6
 172 744 172 744 179 744 c 128,-1,7
 186 744 186 744 192 742 c 0,8,9
 199 739 199 739 203 733 c 2,10,11
 209 727 209 727 211 720 c 256,12,13
 213 713 213 713 218 709 c 0,14,15
 224 705 224 705 228 691 c 256,16,17
 232 677 232 677 232 635 c 0,18,19
 232 625 232 625 232 614.5 c 128,-1,20
 232 604 232 604 231.5 597.5 c 128,-1,21
 231 592 231 592 231 591 c 0,22,23
 231 589 231 589 225 581 c 0,24,25
 221 575 221 575 220 572 c 128,-1,26
 219 569 219 569 219 557 c 0,27,28
 219 540 219 540 224 534 c 0,29,30
 229 527 229 527 231 522 c 256,31,32
 233 517 233 517 231 502 c 0,33,34
 230 488 230 488 234 479 c 0,35,36
 238 471 238 471 237 465 c 1,37,38
 236 463 236 463 234 445 c 0,39,40
 230 427 230 427 228 424 c 1,41,42
 226 418 226 418 226 406 c 1,43,44
 228 396 228 396 228 383 c 0,45,46
 229 369 229 369 234 363 c 0,47,48
 238 358 238 358 238 348 c 0,49,50
 238 337 238 337 235 329 c 0,51,52
 233 320 233 320 235 312 c 1,53,54
 238 305 238 305 238 298 c 0,55,56
 238 292 238 292 234 284 c 0,57,58
 231 276 231 276 232 262 c 0,59,60
 234 246 234 246 237 240 c 1,61,62
 240 231 240 231 239 224 c 0,63,64
 237 213 237 213 235 211 c 1,65,66
 233 205 233 205 233 197 c 0,67,68
 233 187 233 187 236 181 c 1,69,70
 238 173 238 173 236 164 c 1,71,72
 232 156 232 156 232 148 c 2,73,74
 230 141 230 141 234 132 c 1,75,76
 238 113 238 113 238 112 c 0,77,78
 238 102 238 102 242 98 c 0,79,80
 245 95 245 95 254 93 c 0,81,82
 262 90 262 90 269 94 c 0,83,84
 271 95 271 95 276.5 96.5 c 128,-1,85
 282 98 282 98 284 98 c 1,86,87
 286 99 286 99 293 99.5 c 128,-1,88
 300 100 300 100 303 100 c 0,89,90
 318 100 318 100 325 103 c 1,91,92
 333 105 333 105 341 103 c 0,93,94
 349 100 349 100 354 100 c 0,95,96
 357 100 357 100 365 102 c 1,97,98
 370 105 370 105 390 105 c 0,99,100
 408 105 408 105 412 101 c 0,101,102
 414 98 414 98 417 98 c 256,103,104
 420 98 420 98 426 102 c 0,105,106
 434 106 434 106 443 106 c 0,107,108
 453 107 453 107 471 103 c 0,109,110
 488 99 488 99 542 99 c 0,111,112
 582 99 582 99 589.5 98.5 c 128,-1,113
 597 98 597 98 603 94 c 0,114,115
 611 90 611 90 617 78 c 0,116,117
 620 72 620 72 623 59 c 1,118,119
 623 50 623 50 618 44 c 0,120,121
 613 37 613 37 613 31 c 0,122,123
 613 22 613 22 612 19 c 0,124,125
 610 15 610 15 599 7 c 1,126,127
 587 1 587 1 583 1 c 0,128,129
 576 1 576 1 569 -2 c 0,130,131
 564 -4 564 -4 549 -4 c 0,132,133
 534 -2 534 -2 531 0 c 0,134,135
 525 3 525 3 515 3 c 0,136,137
 510 3 510 3 498 0 c 1,138,139
 496 -2 496 -2 481 -4 c 0,140,141
 463 -4 463 -4 453 -3 c 0,142,143
 435 0 435 0 427 -3 c 1,144,145
 418 -4 418 -4 410 -2 c 0,146,147
 400 1 400 1 395 0 c 2,148,149
 390 0 390 0 384 -2 c 1,150,151
 375 -2 375 -2 371 0 c 1,152,153
 363 2 363 2 357 0 c 0,154,155
 348 -3 348 -3 338 -3 c 0,156,157
 332 -3 332 -3 317 0 c 1,158,159
 309 3 309 3 303 0 c 1,160,-1
 291 -3 l 2,161,162
 290 -3 290 -3 281 0 c 1,163,164
 275 3 275 3 259 2 c 0,165,166
 244 2 244 2 234 -2 c 0,167,168
 228 -4 228 -4 205 -4 c 0,169,170
 182 -3 182 -3 171 2 c 0,171,172
 160 8 160 8 149 10 c 1,173,174
 140 10 140 10 133 15 c 0,175,176
 131 16 131 16 128 18 c 128,-1,177
 126 19 126 19 125 20 c 0,178,179
 123 22 123 22 123 30 c 1,180,181
 120 41 120 41 119 42 c 1,182,183
 117 48 117 48 117 54 c 128,-1,184
 117 60 117 60 119 66 c 1,185,186
 122 72 122 72 122 124 c 0,187,188
 122 175 122 175 119 185 c 0,189,190
 117 193 117 193 118 207 c 1,191,192
 121 218 121 218 121 245 c 0,193,194
 121 252 121 252 121 258 c 0,195,196
 121 271 121 271 119 285 c 0,197,198
 116 303 116 303 117 316 c 0,199,200
 119 334 119 334 120 336 c 1,201,202
 121 342 121 342 121 358 c 0,203,204
 121 367 121 367 121 375 c 0,205,206
 121 409 121 409 115 420 c 0,207,208
 110 430 110 430 110 435 c 0,209,210
 110 439 110 439 112 445 c 0,211,212
 114 449 114 449 116 472 c 0,213,214
 116 478 116 478 116.5 487.5 c 128,-1,215
 117 497 117 497 117 498 c 128,-1,216
 117 499 117 499 116.5 506 c 128,-1,217
 116 513 116 513 116 524.5 c 128,-1,218
 116 536 116 536 116 547 c 256,219,220
 116 569 l 0,221,222
 116 593 116 593 117 609 c 0,223,224
 118 629 118 629 117 640 c 1,225,226
 115 647 115 647 117 662 c 0,227,228
 120 673 120 673 117 682 c 0,229,230
 115 692 115 692 115 699 c 0,231,232
 115 708 115 708 118 722 c 0,233,234
 122 738 122 738 123 739 c 0,235,236
 126 742 126 742 136 745 c 0,0,1
EndSplineSet
Validated: 524289
EndChar
StartChar: uni004E
Encoding: 78 78 49
GlifName: uni004E_
Width: 805
GlyphClass: 2
Flags: W
LayerCount: 2
Fore
SplineSet
627 742 m 2,0,-1
 639 743 l 1,1,2
 645 742 645 742 652 739 c 1,3,-1
 668 735 l 1,4,5
 671 735 671 735 682 724 c 0,6,7
 693 711 693 711 693 708 c 2,8,-1
 693 606 l 2,9,10
 693 511 693 511 696 502 c 1,11,12
 699 498 699 498 699 478 c 0,13,14
 699 460 699 460 697 442 c 0,15,16
 695 425 695 425 694 423 c 1,17,18
 694 418 694 418 697 409 c 0,19,20
 700 402 700 402 700 389 c 0,21,22
 700 380 700 380 698 370 c 1,23,24
 695 362 695 362 697 356 c 0,25,26
 699 352 699 352 699 343 c 0,27,28
 699 342 699 342 696 324 c 1,29,30
 692 313 692 313 694 304 c 2,31,-1
 697 280 l 1,32,33
 702 264 702 264 703 257 c 2,34,35
 705 251 705 251 705 248 c 128,-1,36
 705 245 705 245 703 240 c 0,37,38
 700 234 700 234 700 223 c 256,39,40
 700 212 700 212 697 204 c 0,41,42
 693 192 693 192 693 162 c 256,43,44
 693 132 693 132 696 124 c 0,45,46
 699 115 699 115 699 111 c 0,47,48
 699 108 699 108 696 99 c 1,49,50
 693 94 693 94 694 88 c 1,51,52
 694 82 694 82 698 74 c 1,53,54
 700 64 700 64 699 60 c 2,55,56
 699 55 699 55 693 47 c 0,57,58
 687 38 687 38 686 26 c 0,59,60
 684 13 684 13 680 3 c 0,61,62
 675 -7 675 -7 671 -9 c 0,63,64
 668 -11 668 -11 632 -11 c 128,-1,65
 596 -11 596 -11 589 -14 c 0,66,67
 582 -16 582 -16 578 -16 c 0,68,69
 576 -16 576 -16 575 -16 c 1,70,71
 571 -14 571 -14 567 -11 c 1,72,73
 561 -5 561 -5 559 -2 c 0,74,75
 558 -1 558 -1 552.5 4 c 128,-1,76
 547 9 547 9 544 12 c 0,77,78
 533 21 533 21 528 34 c 1,79,80
 521 46 521 46 515 51 c 1,81,82
 509 54 509 54 505 71 c 0,83,84
 501 87 501 87 498 90 c 128,-1,85
 495 93 495 93 489 101 c 0,86,87
 483 108 483 108 479 118 c 0,88,89
 477 126 477 126 472 134 c 0,90,91
 468 140 468 140 462 153 c 0,92,93
 457 166 457 166 453 169 c 0,94,95
 448 173 448 173 444 178 c 1,96,97
 439 188 439 188 438 193 c 256,98,99
 437 198 437 198 430 209 c 0,100,101
 426 214 426 214 424 224 c 0,102,103
 422 235 422 235 418 241 c 0,104,105
 414 249 414 249 406 252 c 0,106,107
 401 254 401 254 399 255.5 c 128,-1,108
 397 257 397 257 396 264 c 0,109,110
 395 270 395 270 388 288 c 2,111,-1
 376 313 l 2,112,113
 372 321 372 321 364 327 c 0,114,115
 357 332 357 332 354 340 c 0,116,117
 350 348 350 348 348 361 c 0,118,119
 345 374 345 374 340 378 c 1,120,121
 335 385 335 385 335 388 c 0,122,123
 335 394 335 394 333 398 c 1,124,125
 332 402 332 402 327 405 c 1,126,127
 322 407 322 407 319 414 c 2,128,129
 318 415 318 415 314 420 c 128,-1,130
 310 425 310 425 308 427 c 0,131,132
 303 433 303 433 299 443 c 0,133,134
 295 454 295 454 280 468 c 0,135,136
 270 480 270 480 268 483.5 c 128,-1,137
 266 487 266 487 266 497 c 0,138,139
 266 508 266 508 260 520 c 0,140,141
 254 531 254 531 251 532 c 1,142,143
 251 533 251 533 248.5 536.5 c 128,-1,144
 246 540 246 540 245 542 c 0,145,146
 240 549 240 549 238 557 c 0,147,148
 237 562 237 562 228 575 c 0,149,150
 226 578 226 578 221.5 583.5 c 128,-1,151
 217 589 217 589 217 590 c 1,152,153
 213 595 213 595 209 594 c 1,154,155
 205 594 205 594 202 589 c 256,156,157
 199 584 199 584 203 579 c 1,158,159
 206 573 206 573 206 555 c 0,160,161
 207 538 207 538 203 526 c 0,162,163
 200 515 200 515 200 508 c 0,164,165
 200 504 200 504 201 490 c 0,166,167
 202 472 202 472 202 457 c 0,168,169
 202 450 202 450 202 445 c 0,170,171
 201 426 201 426 204 418 c 1,172,173
 208 413 208 413 208 395 c 0,174,175
 210 372 210 372 212 368 c 1,176,177
 214 359 214 359 211 350 c 0,178,179
 208 342 208 342 208 273 c 0,180,181
 209 201 209 201 212 192 c 1,182,183
 214 179 214 179 212 171 c 1,184,185
 209 164 209 164 209 117 c 128,-1,186
 209 70 209 70 211 67 c 0,187,188
 214 63 214 63 214 56 c 0,189,190
 214 48 214 48 211 43 c 1,191,192
 209 35 209 35 209 24 c 0,193,194
 209 11 209 11 207 7 c 0,195,196
 205 0 205 0 198 -3 c 1,197,198
 191 -8 191 -8 180 -12 c 1,199,200
 173 -13 173 -13 161 -16 c 1,201,202
 157 -16 l 0,203,204
 151 -16 151 -16 142 -12 c 0,205,206
 128 -6 128 -6 126 -5 c 1,207,208
 123 -2 123 -2 115 10 c 0,209,210
 107 24 107 24 104 27 c 1,211,212
 99 35 99 35 99 43 c 0,213,214
 99 48 99 48 101 56 c 0,215,216
 103 65 103 65 101 75 c 128,-1,217
 99 85 99 85 99 93 c 128,-1,218
 99 101 99 101 104 109 c 1,219,220
 108 119 108 119 106 126 c 1,221,222
 106 128 106 128 105.5 133.5 c 128,-1,223
 105 139 105 139 105 142 c 0,224,225
 105 151 105 151 103 157 c 1,226,227
 102 164 102 164 103 175 c 0,228,229
 105 187 105 187 103 197 c 0,230,231
 100 208 100 208 102 217 c 0,232,233
 105 227 105 227 105 265 c 0,234,235
 104 305 104 305 102 308 c 0,236,237
 99 314 99 314 99 327 c 0,238,239
 99 335 99 335 102 347 c 0,240,241
 104 355 104 355 104 381 c 0,242,243
 104 406 104 406 101 417 c 1,244,245
 98 423 98 423 98 425.5 c 128,-1,246
 98 428 98 428 101 436 c 0,247,248
 105 450 105 450 105 454 c 0,249,250
 105 462 105 462 102 467 c 1,251,252
 100 475 100 475 100 484 c 0,253,254
 100 492 100 492 102 500 c 0,255,256
 104 507 104 507 106 524 c 0,257,258
 107 539 107 539 104 550 c 0,259,260
 102 556 102 556 100 578 c 0,261,262
 100 598 100 598 103 607 c 0,263,264
 105 615 105 615 103 626 c 0,265,266
 100 636 100 636 102 645 c 1,267,268
 105 651 105 651 105 661 c 0,269,270
 105 669 105 669 101 681 c 0,271,272
 98 693 98 693 99 697 c 1,273,274
 99 700 99 700 104 707 c 0,275,276
 111 718 111 718 112 720 c 0,277,278
 114 727 114 727 120 731 c 0,279,280
 125 734 125 734 135 736 c 0,281,282
 143 738 143 738 148 740 c 0,283,284
 152 742 152 742 157 742 c 0,285,286
 164 742 164 742 167 739 c 1,287,288
 171 737 171 737 177 737 c 128,-1,289
 183 737 183 737 193 733 c 2,290,291
 198 732 198 732 216 727 c 0,292,293
 234 724 234 724 242 723 c 0,294,295
 254 722 254 722 262 718 c 1,296,297
 267 714 267 714 271 707 c 2,298,299
 276 701 276 701 278 691 c 0,300,301
 279 687 279 687 286 670 c 0,302,303
 291 658 291 658 297 652 c 1,304,305
 298 650 298 650 300.5 646 c 128,-1,306
 303 642 303 642 304 640 c 1,307,308
 308 635 308 635 315 631 c 0,309,310
 323 626 323 626 326 616 c 0,311,312
 330 604 330 604 334 600 c 1,313,314
 339 592 339 592 339 588 c 1,315,316
 343 576 343 576 347 570 c 2,317,318
 350 563 350 563 359 551 c 1,319,320
 363 548 363 548 368 538 c 1,321,322
 370 530 370 530 374 526 c 1,323,324
 380 516 380 516 381 514 c 0,325,326
 385 506 385 506 385 494 c 0,327,328
 386 481 386 481 392 477 c 0,329,330
 399 472 399 472 403 467 c 1,331,332
 404 465 404 465 407.5 459 c 128,-1,333
 411 453 411 453 413 450 c 0,334,335
 416 445 416 445 426 423 c 0,336,337
 432 405 432 405 437 403 c 0,338,339
 443 401 443 401 443 397 c 1,340,341
 445 393 445 393 449 391 c 0,342,343
 454 388 454 388 461 377 c 0,344,345
 466 369 466 369 469 361 c 1,346,347
 470 360 470 360 471.5 355.5 c 128,-1,348
 473 351 473 351 473 350 c 1,349,350
 478 343 478 343 481 331 c 1,351,352
 487 317 487 317 492 313 c 0,353,354
 497 310 497 310 501 302 c 0,355,356
 507 293 507 293 508 292 c 0,357,358
 512 288 512 288 513 275 c 0,359,360
 514 264 514 264 520 258 c 1,361,362
 526 250 526 250 527 247 c 1,363,364
 527 243 527 243 533 235 c 0,365,366
 538 226 538 226 540 221 c 0,367,368
 542 213 542 213 544 210 c 1,369,370
 544 209 544 209 547 199 c 0,371,372
 548 193 548 193 554 189 c 1,373,374
 561 182 561 182 562 179 c 1,375,376
 562 178 562 178 572 161 c 0,377,378
 579 149 579 149 582 146 c 0,379,380
 584 143 584 143 587 141 c 1,381,382
 592 140 592 140 595 143 c 128,-1,383
 598 146 598 146 597 167 c 0,384,385
 597 173 597 173 596.5 185.5 c 128,-1,386
 596 198 596 198 596 202 c 128,-1,387
 596 206 596 206 595.5 214 c 128,-1,388
 595 222 595 222 594 225 c 0,389,390
 592 234 592 234 595 238 c 1,391,392
 597 244 597 244 597 258 c 0,393,394
 595 277 595 277 594 280 c 1,395,396
 591 285 591 285 591 293 c 0,397,398
 591 307 591 307 592 316 c 0,399,400
 592 331 592 331 594 351 c 0,401,402
 595 357 595 357 596 364.5 c 128,-1,403
 597 372 597 372 597 373 c 2,404,405
 599 378 599 378 595 385 c 0,406,407
 594 388 594 388 592.5 393.5 c 128,-1,408
 591 399 591 399 591 400 c 2,409,410
 588 408 588 408 591 419 c 0,411,412
 594 437 594 437 594 441 c 0,413,414
 595 448 595 448 595 466 c 0,415,416
 595 477 595 477 592 486 c 128,-1,417
 589 495 589 495 590 510 c 0,418,419
 592 528 592 528 592 544 c 0,420,421
 592 562 592 562 588 575 c 128,-1,422
 584 588 584 588 587 596 c 0,423,424
 589 604 589 604 586 615 c 0,425,426
 583 627 583 627 583 648 c 0,427,428
 583 657 583 657 583 673 c 0,429,430
 583 718 583 718 587 723 c 0,431,432
 589 725 589 725 599 729 c 1,433,434
 606 730 606 730 612 736 c 1,435,436
 614 741 614 741 627 742 c 2,0,-1
EndSplineSet
Validated: 1
EndChar
StartChar: uni004F
Encoding: 79 79 50
GlifName: uni004F_
Width: 801
GlyphClass: 2
Flags: W
LayerCount: 2
Fore
SplineSet
437 672 m 1,0,1
 432 674 432 674 398 674 c 128,-1,2
 364 674 364 674 360 672 c 0,3,4
 358 671 358 671 343 669 c 0,5,6
 330 668 330 668 325 662 c 1,7,8
 317 656 317 656 310 655 c 0,9,10
 302 653 302 653 293 648 c 1,11,12
 284 641 284 641 283 637 c 0,13,14
 281 631 281 631 279 629 c 0,15,16
 278 628 278 628 269 626 c 1,17,18
 262 626 262 626 252 621 c 0,19,20
 243 616 243 616 241 610 c 0,21,22
 239 602 239 602 234 592 c 0,23,24
 227 580 227 580 222 578 c 0,25,26
 216 576 216 576 216 573 c 1,27,28
 215 572 215 572 213 565.5 c 128,-1,29
 211 559 211 559 210 556 c 0,30,31
 206 541 206 541 201 536 c 0,32,33
 195 530 195 530 192 521 c 0,34,35
 188 507 188 507 186 494 c 0,36,37
 184 477 184 477 181 468 c 0,38,39
 178 460 178 460 178 448 c 0,40,41
 178 447 178 447 178.5 431.5 c 128,-1,42
 179 416 179 416 179 405 c 0,43,44
 180 386 180 386 180 380 c 0,45,46
 180 369 180 369 177 360 c 0,47,48
 174 352 174 352 174 350 c 0,49,50
 174 346 174 346 179 335 c 0,51,52
 185 319 185 319 185 318 c 0,53,54
 185 316 185 316 183 308 c 1,55,56
 180 304 180 304 180 294 c 0,57,58
 180 285 180 285 183 282 c 128,-1,59
 186 279 186 279 190 277 c 0,60,61
 193 275 193 275 194 247 c 128,-1,62
 195 219 195 219 198 215 c 1,63,64
 202 212 202 212 208 201 c 0,65,66
 216 189 216 189 218 187 c 0,67,68
 223 182 223 182 224 179 c 0,69,70
 226 175 226 175 228 167 c 1,71,72
 228 160 228 160 231 157 c 0,73,74
 232 156 232 156 240 154 c 0,75,76
 245 152 245 152 246.5 150.5 c 128,-1,77
 248 149 248 149 249 143 c 0,78,79
 251 135 251 135 253 130 c 1,80,81
 256 125 256 125 263 120 c 1,82,83
 276 114 276 114 279 113 c 0,84,85
 289 110 289 110 290 106 c 1,86,87
 294 100 294 100 298 99 c 1,88,89
 307 93 307 93 310 90 c 0,90,91
 317 85 317 85 333 85 c 0,92,93
 347 86 347 86 354 83 c 0,94,95
 360 81 360 81 360 79 c 128,-1,96
 360 77 360 77 362 77 c 0,97,98
 363 77 363 77 365 77 c 0,99,100
 368 77 368 77 382 78 c 0,101,102
 391 79 391 79 407 83 c 0,103,104
 416 86 416 86 426 82 c 0,105,106
 435 79 435 79 441 79 c 0,107,108
 444 79 444 79 450 81 c 1,109,110
 456 85 456 85 464 85 c 1,111,112
 471 86 471 86 490 95 c 128,-1,113
 509 104 509 104 512 112 c 1,114,115
 516 119 516 119 528 125 c 0,116,117
 539 131 539 131 542 136 c 0,118,119
 546 143 546 143 562 158 c 0,120,121
 580 177 580 177 582 183 c 1,122,123
 582 185 582 185 584 190 c 128,-1,124
 586 195 586 195 586 197 c 1,125,126
 588 205 588 205 590 215 c 1,127,128
 590 226 590 226 596 233 c 1,129,-1
 604 249 l 2,130,131
 607 255 607 255 609 276 c 0,132,133
 610 293 610 293 613 300 c 1,134,135
 616 304 616 304 616 335 c 128,-1,136
 616 366 616 366 613 370 c 1,137,138
 610 379 610 379 611 384 c 1,139,140
 611 393 611 393 613 399 c 1,141,142
 616 405 616 405 616 409 c 0,143,144
 616 412 616 412 610 422 c 0,145,146
 604 430 604 430 604 439 c 0,147,148
 604 446 604 446 606 452 c 1,149,150
 609 456 609 456 609 466 c 0,151,152
 609 474 609 474 607 482 c 0,153,154
 605 489 605 489 603 499 c 0,155,156
 601 512 601 512 598 515 c 0,157,158
 596 518 596 518 589 528 c 0,159,160
 585 534 585 534 583 542 c 0,161,162
 582 547 582 547 582 558 c 0,163,164
 582 565 582 565 569 580 c 0,165,166
 558 594 558 594 549 603 c 0,167,168
 542 610 542 610 541 619 c 0,169,170
 540 627 540 627 530 635 c 0,171,172
 528 637 528 637 520 642.5 c 128,-1,173
 512 648 512 648 509 651 c 0,174,175
 497 659 497 659 483 661 c 1,176,177
 471 661 471 661 465 664 c 0,178,179
 462 666 462 666 451 668 c 1,180,181
 441 668 441 668 437 672 c 1,0,1
385 762 m 0,182,183
 390 764 390 764 397 764 c 0,184,185
 402 764 402 764 413 763 c 0,186,187
 419 763 419 763 429.5 762.5 c 128,-1,188
 440 762 440 762 441 762 c 128,-1,189
 442 762 442 762 449 762.5 c 128,-1,190
 456 763 456 763 460 763 c 0,191,192
 473 763 473 763 484 757 c 0,193,194
 502 749 502 749 503 749 c 0,195,196
 508 749 508 749 514 746 c 1,197,-1
 526 743 l 2,198,199
 539 740 539 740 546 737 c 0,200,201
 562 730 562 730 565 727 c 1,202,203
 569 725 569 725 578 722 c 0,204,205
 585 720 585 720 594 715 c 0,206,207
 604 709 604 709 607 706 c 2,208,209
 612 703 612 703 614 698 c 0,210,211
 615 696 615 696 626 680 c 0,212,213
 635 667 635 667 641 667 c 0,214,215
 645 667 645 667 651 665 c 0,216,217
 655 663 655 663 657 657 c 256,218,219
 659 651 659 651 663 644 c 1,220,221
 669 637 669 637 672 628 c 2,222,223
 677 619 677 619 678 613 c 1,224,225
 681 606 681 606 685 604 c 0,226,227
 691 601 691 601 691 595 c 1,228,229
 694 586 694 586 695 584 c 0,230,231
 698 579 698 579 702 566 c 0,232,233
 706 557 706 557 706 544 c 0,234,235
 706 534 706 534 711 528 c 0,236,237
 715 524 715 524 719 514 c 1,238,239
 721 503 721 503 727 493 c 0,240,241
 733 481 733 481 734 466 c 0,242,243
 734 450 734 450 737 445 c 0,244,245
 739 441 739 441 739 436 c 128,-1,246
 739 431 739 431 737 425 c 1,247,248
 736 418 736 418 738 408 c 0,249,250
 740 400 740 400 740 397 c 128,-1,251
 740 394 740 394 738 387 c 0,252,253
 735 377 735 377 737 371 c 1,254,-1
 740 353 l 2,255,256
 740 349 740 349 740 346 c 0,257,258
 740 341 740 341 738 331 c 0,259,260
 737 328 737 328 733 312 c 0,261,262
 730 298 730 298 729 295 c 0,263,264
 727 287 727 287 726 258 c 0,265,266
 726 236 726 236 725 231.5 c 128,-1,267
 724 227 724 227 719 223 c 0,268,269
 713 217 713 217 713 214 c 0,270,271
 713 207 713 207 710 203 c 1,272,273
 707 191 707 191 705 185 c 1,274,275
 704 176 704 176 698 168 c 2,276,-1
 692 160 l 1,277,278
 692 159 692 159 686 151 c 1,279,280
 678 145 678 145 678 140 c 1,281,282
 676 135 676 135 665 120 c 0,283,284
 652 103 652 103 652 102 c 0,285,286
 652 99 652 99 650 91 c 0,287,288
 649 82 649 82 643 79 c 0,289,290
 640 77 640 77 628 68 c 0,291,292
 617 59 617 59 615 56 c 0,293,294
 609 50 609 50 601 46 c 0,295,296
 591 41 591 41 589 37 c 1,297,298
 589 34 589 34 583 32 c 128,-1,299
 577 30 577 30 575 30 c 0,300,301
 571 30 571 30 566 25 c 1,302,303
 556 18 556 18 555 18 c 1,304,305
 548 14 548 14 546 10 c 1,306,307
 540 4 540 4 533 2 c 2,308,-1
 518 -3 l 2,309,310
 514 -5 514 -5 492 -5 c 128,-1,311
 470 -5 470 -5 457 -11 c 0,312,313
 445 -16 445 -16 440 -16 c 0,314,315
 436 -16 436 -16 428 -14 c 0,316,317
 418 -12 418 -12 409 -9 c 1,318,319
 398 -8 398 -8 389 -9 c 1,320,321
 379 -12 379 -12 363 -10 c 0,322,323
 344 -10 344 -10 339 -7 c 1,324,325
 330 -4 330 -4 318 -4 c 0,326,327
 301 -3 301 -3 286 3 c 0,328,329
 263 12 263 12 262 12 c 2,330,331
 254 15 254 15 245 17 c 1,332,333
 230 23 230 23 221 28 c 0,334,335
 205 37 205 37 192 50 c 0,336,337
 176 64 176 64 174 65 c 1,338,339
 170 66 170 66 164 76 c 1,340,341
 158 83 158 83 149 86 c 0,342,343
 144 87 144 87 142 89 c 128,-1,344
 140 91 140 91 139 96 c 0,345,346
 137 106 137 106 133 111 c 2,347,348
 129 119 129 119 126 122 c 128,-1,349
 123 125 123 125 117 135 c 128,-1,350
 111 145 111 145 105 151 c 0,351,352
 98 158 98 158 98 165 c 1,353,354
 95 174 95 174 91 182 c 1,355,356
 87 194 87 194 87 195 c 0,357,358
 87 197 87 197 83 203 c 0,359,360
 80 207 80 207 75 217 c 0,361,362
 73 222 73 222 73 231 c 1,363,364
 74 233 74 233 75 238 c 128,-1,365
 76 243 76 243 76 245 c 0,366,367
 76 255 76 255 72 262 c 0,368,369
 69 266 69 266 65 274 c 0,370,371
 64 276 64 276 62 369 c 0,372,373
 61 421 61 421 61 465 c 0,374,375
 61 471 61 471 64 479 c 0,376,377
 68 488 68 488 66 493 c 0,378,379
 64 499 64 499 64 504 c 128,-1,380
 64 509 64 509 68 517 c 0,381,382
 71 523 71 523 77 531 c 128,-1,383
 83 539 83 539 83 540 c 0,384,385
 83 542 83 542 85 548 c 0,386,387
 86 553 86 553 91 560 c 0,388,389
 96 566 96 566 97 576 c 0,390,391
 99 588 99 588 102 593 c 0,392,393
 103 595 103 595 106 602.5 c 128,-1,394
 109 610 109 610 110 613 c 0,395,396
 114 625 114 625 121 632 c 1,397,398
 128 637 128 637 128 640 c 0,399,400
 128 641 128 641 132 651 c 0,401,402
 136 659 136 659 159 682 c 0,403,404
 181 705 181 705 190 709 c 0,405,406
 202 714 202 714 204 716 c 1,407,408
 212 721 212 721 220 724 c 0,409,410
 232 730 232 730 234 730 c 128,-1,411
 236 730 236 730 244 734 c 0,412,413
 258 741 258 741 266 743 c 0,414,415
 278 747 278 747 288 750 c 0,416,417
 296 752 296 752 302 755 c 1,418,419
 307 756 307 756 344 758 c 0,420,421
 378 759 378 759 385 762 c 0,182,183
EndSplineSet
Validated: 1
EndChar
StartChar: uni0052
Encoding: 82 82 53
GlifName: uni0052
Width: 704
GlyphClass: 2
Flags: W
LayerCount: 2
Fore
SplineSet
324 635 m 1,0,1
 315 639 315 639 281 640 c 2,2,-1
 243 640 l 1,3,4
 242 639 242 639 239 638 c 128,-1,5
 236 637 236 637 235 637 c 2,6,7
 229 634 229 634 224 634 c 1,8,9
 216 632 216 632 212 630 c 0,10,11
 206 628 206 628 204 622 c 1,12,13
 201 618 201 618 201 601 c 0,14,15
 201 592 201 592 202 564 c 0,16,17
 202 555 202 555 202.5 530 c 128,-1,18
 203 505 203 505 204 502 c 1,19,20
 205 490 205 490 201 486 c 1,21,22
 198 482 198 482 196 475 c 0,23,24
 195 473 195 473 195 469.5 c 128,-1,25
 195 466 195 466 196 463 c 0,26,27
 198 456 198 456 202 452 c 256,28,29
 206 448 206 448 206 437 c 0,30,31
 206 427 206 427 209 424 c 1,32,33
 213 422 213 422 217 422 c 0,34,35
 219 422 219 422 225 420.5 c 128,-1,36
 231 419 231 419 233 419 c 2,37,38
 241 417 241 417 250 417 c 0,39,40
 258 417 l 0,41,42
 270 417 270 417 278 421 c 0,43,44
 283 424 283 424 305 424 c 0,45,46
 326 424 326 424 332 421 c 0,47,48
 339 418 339 418 362.5 418 c 128,-1,49
 386 418 386 418 394 421 c 0,50,51
 400 423 400 423 406 423 c 0,52,53
 411 423 411 423 417 421 c 1,54,55
 423 418 423 418 438 418 c 0,56,57
 452 417 452 417 456 421 c 1,58,59
 459 422 459 422 459 426 c 0,60,61
 459 427 459 427 467 433 c 1,62,63
 473 435 473 435 486 444 c 0,64,65
 503 458 503 458 504 459 c 0,66,67
 511 468 511 468 515 477 c 0,68,69
 519 488 519 488 519 499 c 0,70,71
 519 504 519 504 517 511 c 0,72,73
 514 518 514 518 517 530 c 0,74,75
 519 538 519 538 519 541 c 256,76,77
 519 544 519 544 518 548 c 1,78,79
 515 553 515 553 513 565 c 0,80,81
 511 575 511 575 504 586 c 0,82,83
 495 599 495 599 491 600 c 256,84,85
 487 601 487 601 479 609 c 0,86,87
 474 614 474 614 456 624 c 0,88,89
 437 633 437 633 428 633 c 0,90,91
 425 633 425 633 417 634.5 c 128,-1,92
 409 636 409 636 406 637 c 0,93,94
 396 640 396 640 389 637 c 256,95,96
 382 634 382 634 359 633 c 0,97,98
 352 633 352 633 346 633 c 0,99,100
 335 633 335 633 324 635 c 1,0,1
203 730 m 1,101,102
 209 732 209 732 221 732 c 1,103,104
 225 731 225 731 239 731 c 2,105,-1
 260 731 l 2,106,107
 287 731 287 731 306 730 c 0,108,109
 340 729 340 729 346 726 c 128,-1,110
 352 723 352 723 363 723 c 0,111,112
 373 723 373 723 389 725 c 0,113,114
 403 728 403 728 411 726 c 1,115,116
 416 726 416 726 424 720 c 1,117,118
 432 716 432 716 436 716 c 0,119,120
 441 716 441 716 447 718 c 2,121,122
 453 719 453 719 458 723 c 0,123,124
 461 726 461 726 467 726 c 0,125,126
 471 726 471 726 478 721 c 128,-1,127
 485 716 485 716 489 715 c 0,128,129
 498 713 498 713 520 701 c 0,130,131
 542 690 542 690 551 687 c 1,132,133
 554 687 554 687 564 682 c 1,134,-1
 572 676 l 1,135,136
 572 673 572 673 582 663 c 0,137,138
 584 660 584 660 589.5 654.5 c 128,-1,139
 595 649 595 649 596 647 c 0,140,141
 600 641 600 641 606 637 c 0,142,143
 614 633 614 633 615 625 c 0,144,145
 616 622 616 622 623 605 c 0,146,147
 630 592 630 592 631 565 c 0,148,149
 631 541 631 541 635 531 c 0,150,151
 638 522 638 522 637 511 c 0,152,153
 636 497 636 497 628 483 c 0,154,155
 625 478 625 478 620.5 470.5 c 128,-1,156
 616 463 616 463 615 461 c 1,157,158
 610 456 610 456 610 450 c 0,159,160
 610 445 610 445 608 439 c 0,161,162
 606 434 606 434 595 421 c 0,163,164
 587 413 587 413 578 401 c 0,165,166
 573 394 573 394 560 390 c 0,167,168
 548 385 548 385 546 385 c 1,169,-1
 540 381 l 1,170,171
 535 376 535 376 534 374 c 0,172,173
 532 370 532 370 532 362 c 0,174,175
 532 355 532 355 536 351 c 128,-1,176
 540 347 540 347 541 347 c 0,177,178
 543 347 543 347 547 343 c 0,179,180
 550 340 550 340 558 336 c 128,-1,181
 566 332 566 332 571 325 c 2,182,183
 575 321 575 321 582 307 c 0,184,185
 587 297 587 297 591 287 c 0,186,187
 593 282 593 282 596 269 c 0,188,189
 600 251 600 251 600 248 c 1,190,-1
 606 230 l 2,191,192
 608 220 608 220 610 205 c 0,193,194
 611 188 611 188 616 183 c 0,195,196
 620 179 620 179 620 172 c 128,-1,197
 620 165 620 165 618 161 c 1,198,199
 617 155 617 155 620 146 c 0,200,201
 624 135 624 135 624 109 c 128,-1,202
 624 83 624 83 629 76 c 1,203,204
 633 72 633 72 637 59 c 0,205,206
 639 47 639 47 642 41 c 0,207,208
 644 37 644 37 644 34 c 0,209,210
 644 32 644 32 640 20 c 0,211,212
 637 9 637 9 633 5 c 1,213,214
 629 3 629 3 617 3 c 0,215,216
 603 3 603 3 595 -1 c 1,217,218
 586 -4 586 -4 573 -4 c 0,219,220
 561 -4 561 -4 555 -2 c 0,221,222
 551 -1 551 -1 542 10 c 0,223,224
 534 20 534 20 533 20 c 1,225,226
 531 23 531 23 530 27 c 2,227,228
 527 33 527 33 527 43 c 128,-1,229
 527 53 527 53 524 59 c 0,230,231
 521 64 521 64 520 90 c 0,232,233
 519 114 519 114 514 131 c 0,234,235
 513 135 513 135 508 150 c 1,236,237
 506 153 506 153 507 172 c 0,238,239
 508 186 508 186 507 189.5 c 128,-1,240
 506 193 506 193 502 200 c 0,241,242
 494 212 494 212 492 214 c 0,243,244
 489 216 489 216 486 232 c 0,245,246
 485 246 485 246 479 252 c 128,-1,247
 473 258 473 258 473 260 c 128,-1,248
 473 262 473 262 467 276 c 0,249,250
 461 288 461 288 456 293 c 128,-1,251
 451 298 451 298 443 300 c 2,252,253
 441 301 441 301 433.5 304 c 128,-1,254
 426 307 426 307 423 308 c 0,255,256
 402 314 402 314 393 316 c 0,257,258
 380 319 380 319 372 319 c 0,259,260
 368 319 368 319 358 317 c 1,261,262
 350 314 350 314 341 314 c 0,263,264
 334 314 334 314 322 318 c 0,265,266
 312 321 312 321 294 321 c 0,267,268
 277 321 277 321 271 319 c 1,269,270
 266 316 266 316 261 316 c 256,271,272
 256 316 256 316 250 318 c 1,273,274
 249 319 249 319 239 322 c 0,275,276
 232 324 232 324 225 322 c 0,277,278
 219 321 219 321 213 317 c 1,279,280
 209 313 209 313 207 305 c 1,281,282
 207 280 207 280 208 259 c 0,283,284
 209 220 209 220 212 212 c 0,285,286
 215 205 215 205 212 193 c 0,287,288
 208 181 208 181 208 168 c 0,289,290
 206 153 206 153 204 148 c 1,291,292
 202 145 202 145 200 134 c 0,293,294
 199 126 199 126 203 119 c 0,295,296
 204 117 204 117 207 108 c 128,-1,297
 210 99 210 99 211 97 c 0,298,299
 216 80 216 80 213 71 c 256,300,301
 210 62 210 62 210 58 c 0,302,303
 210 51 210 51 211 45 c 0,304,305
 212 34 212 34 207 25 c 0,306,307
 202 18 202 18 200 10 c 1,308,309
 200 6 200 6 194 0 c 1,310,311
 188 -4 188 -4 186 -4 c 0,312,313
 185 -4 185 -4 176 -7 c 1,314,315
 170 -10 170 -10 151 -10 c 0,316,317
 145 -10 145 -10 142 -10 c 0,318,319
 133 -10 133 -10 121 -6 c 0,320,321
 111 -2 111 -2 105 4 c 1,322,323
 100 11 100 11 99 16 c 0,324,325
 97 22 97 22 97 77 c 128,-1,326
 97 132 97 132 101 141 c 0,327,328
 104 148 104 148 104 166 c 0,329,330
 104 185 104 185 101 192 c 0,331,332
 97 199 97 199 98 216 c 0,333,334
 100 234 100 234 100 240 c 0,335,336
 100 245 100 245 98 265 c 0,337,338
 95 278 95 278 95 293 c 1,339,340
 96 296 96 296 96.5 311.5 c 128,-1,341
 97 327 97 327 97 333 c 0,342,343
 97 343 97 343 97 349 c 0,344,345
 97 362 97 362 95 372 c 0,346,347
 92 381 92 381 95 388 c 1,348,349
 98 400 98 400 98 401 c 2,350,-1
 98 469 l 2,351,352
 97 534 97 534 94 546 c 256,353,354
 91 558 91 558 91 564 c 0,355,356
 91 569 91 569 92 575 c 0,357,358
 92 579 92 579 92.5 588 c 128,-1,359
 93 597 93 597 93 600 c 0,360,361
 93 609 93 609 91 631 c 0,362,363
 91 637 91 637 91 642 c 0,364,365
 91 651 91 651 94 662 c 0,366,367
 97 671 97 671 97 681 c 0,368,369
 97 684 97 684 97.5 689 c 128,-1,370
 98 694 98 694 98 695 c 1,371,372
 102 703 102 703 105 706 c 2,373,-1
 111 714 l 1,374,375
 111 715 111 715 114 718 c 128,-1,376
 117 721 117 721 128 721 c 0,377,378
 138 721 138 721 146 725 c 0,379,380
 152 729 152 729 163 731 c 1,381,382
 176 731 176 731 181 730 c 0,383,384
 191 728 191 728 203 730 c 1,101,102
EndSplineSet
Validated: 1
EndChar
StartChar: uni0058
Encoding: 88 88 59
GlifName: uni0058
Width: 679
GlyphClass: 2
Flags: W
LayerCount: 2
Fore
SplineSet
532 719 m 128,-1,1
 534 721 534 721 538 721 c 0,2,3
 543 721 543 721 549 718 c 0,4,5
 551 717 551 717 558.5 715 c 128,-1,6
 566 713 566 713 569 712 c 0,7,8
 579 709 579 709 593 709 c 0,9,10
 608 709 608 709 615 706 c 2,11,12
 624 704 624 704 628 700 c 1,13,14
 633 697 633 697 635 690 c 0,15,16
 637 684 637 684 637 675 c 128,-1,17
 637 666 637 666 630 660 c 0,18,19
 622 654 622 654 619 651 c 128,-1,20
 616 648 616 648 608 638 c 2,21,-1
 595 621 l 2,22,23
 593 617 593 617 585 609 c 1,24,25
 579 606 579 606 577 600 c 1,26,27
 577 597 577 597 575 589 c 1,28,29
 572 582 572 582 566 575 c 0,30,31
 559 566 559 566 557 560 c 0,32,33
 554 551 554 551 551 547 c 2,34,35
 547 539 547 539 542 537 c 0,36,37
 538 535 538 535 534 528 c 0,38,39
 532 524 532 524 521 512 c 0,40,41
 509 500 509 500 506 494 c 0,42,43
 498 481 498 481 495 477 c 0,44,45
 488 466 488 466 484 463 c 1,46,47
 477 456 477 456 473 447 c 1,48,49
 465 435 465 435 464 434 c 1,50,51
 463 434 463 434 463 422 c 0,52,53
 464 410 464 410 462 405 c 0,54,55
 460 397 460 397 458 390 c 1,56,57
 458 381 458 381 456 377 c 1,58,59
 456 375 456 375 447 371 c 0,60,61
 439 367 439 367 434 353 c 0,62,63
 430 338 430 338 430 332 c 1,64,65
 432 325 432 325 435 322 c 2,66,-1
 440 317 l 1,67,-1
 453 300 l 2,68,69
 462 285 462 285 470 281 c 1,70,71
 478 275 478 275 482 268 c 0,72,73
 490 257 490 257 496 244 c 0,74,75
 504 229 504 229 512 225 c 0,76,77
 520 220 520 220 521 214 c 0,78,79
 522 206 522 206 533 200 c 0,80,81
 544 192 544 192 550 180 c 0,82,83
 555 168 555 168 564 159 c 0,84,85
 570 152 570 152 577 147 c 0,86,87
 582 144 582 144 583 138 c 0,88,89
 584 131 584 131 589 125 c 1,90,91
 591 124 591 124 596 120 c 128,-1,92
 601 116 601 116 602 115 c 0,93,94
 610 110 610 110 611 102 c 0,95,96
 613 94 613 94 617 90 c 0,97,98
 619 88 619 88 623 80 c 1,99,100
 625 74 625 74 625 69 c 128,-1,101
 625 64 625 64 628 61 c 1,102,103
 634 58 634 58 637 57 c 0,104,105
 644 56 644 56 645 49 c 0,106,107
 646 44 646 44 654 36 c 0,108,109
 659 31 659 31 659 26 c 0,110,111
 659 24 659 24 659 19 c 1,112,113
 657 5 657 5 656 3 c 0,114,115
 654 -2 654 -2 644 -7 c 0,116,117
 632 -14 632 -14 630 -15 c 0,118,119
 627 -17 627 -17 618 -15 c 2,120,121
 616 -15 616 -15 608 -14.5 c 128,-1,122
 600 -14 600 -14 596 -14 c 0,123,124
 587 -15 587 -15 569 -11 c 0,125,126
 556 -8 556 -8 551 -3 c 0,127,128
 545 3 545 3 542 3 c 1,129,130
 539 5 539 5 537 11 c 128,-1,131
 535 17 535 17 533 21 c 0,132,133
 532 24 532 24 524 30 c 1,134,135
 517 33 517 33 515 38 c 0,136,137
 513 42 513 42 508 45 c 1,138,139
 502 47 502 47 501 56 c 0,140,141
 501 63 501 63 499 67 c 1,142,143
 495 71 495 71 491 74 c 1,144,145
 485 77 485 77 479 90 c 0,146,147
 474 101 474 101 468 107 c 128,-1,148
 462 113 462 113 462 117 c 1,149,150
 460 122 460 122 451 133 c 0,151,152
 440 144 440 144 434 147 c 0,153,154
 426 152 426 152 425 162 c 1,155,156
 422 173 422 173 417 180 c 0,157,158
 410 188 410 188 408 192 c 0,159,160
 406 195 406 195 396 211 c 0,161,162
 388 223 388 223 384 232 c 0,163,164
 381 240 381 240 373 243 c 1,165,166
 366 247 366 247 363 253 c 0,167,168
 358 261 358 261 350 267 c 2,169,170
 341 276 341 276 337 276 c 0,171,172
 336 276 336 276 326 272 c 1,173,174
 320 268 320 268 311 255 c 0,175,176
 306 246 306 246 299 239 c 1,177,178
 296 238 296 238 291 230 c 1,179,180
 288 222 288 222 280 219 c 1,181,182
 273 214 273 214 268 199 c 0,183,184
 262 183 262 183 248 169 c 0,185,186
 234 157 234 157 230 149 c 0,187,188
 227 143 227 143 221 135 c 1,189,190
 215 129 215 129 215 117 c 128,-1,191
 215 105 215 105 206 98 c 0,192,193
 197 92 197 92 193 86 c 128,-1,194
 189 80 189 80 189 78 c 0,195,196
 189 77 189 77 187 69 c 1,197,198
 184 63 184 63 177 60 c 128,-1,199
 170 57 170 57 164 44 c 128,-1,200
 158 31 158 31 152 26 c 0,201,202
 146 20 146 20 141 18 c 1,203,204
 135 14 135 14 132 8 c 0,205,206
 126 -1 126 -1 124 -3 c 1,207,208
 116 -8 116 -8 114 -9 c 0,209,210
 108 -11 108 -11 97 -11 c 0,211,212
 84 -11 84 -11 80 -14 c 1,213,214
 74 -17 74 -17 68 -17 c 0,215,216
 64 -17 64 -17 40 -6 c 0,217,218
 20 4 20 4 18 9 c 1,219,-1
 18 19 l 1,220,221
 20 25 20 25 24 29 c 0,222,223
 27 32 27 32 31 42 c 1,224,225
 33 51 33 51 37 57 c 0,226,227
 42 65 42 65 47 67 c 1,228,229
 55 73 55 73 58 79 c 0,230,231
 60 82 60 82 74 98 c 0,232,233
 85 109 85 109 91 119 c 0,234,235
 97 128 97 128 104 133 c 1,236,237
 110 136 110 136 115 143 c 0,238,239
 116 144 116 144 117.5 147 c 128,-1,240
 119 150 119 150 120 151 c 0,241,242
 123 153 123 153 125 156 c 0,243,244
 127 160 127 160 127 165 c 0,245,246
 127 171 127 171 129 175 c 0,247,248
 131 181 131 181 137 187 c 0,249,250
 142 192 142 192 148 196 c 1,251,252
 153 198 153 198 153 201 c 2,253,254
 154 202 154 202 156 212 c 1,255,256
 159 220 159 220 166 223 c 1,257,258
 174 229 174 229 175 232 c 1,259,260
 176 233 176 233 179.5 237 c 128,-1,261
 183 241 183 241 186 244 c 0,262,263
 194 253 194 253 204 275 c 0,264,265
 211 292 211 292 213.5 296 c 128,-1,266
 216 300 216 300 223 305 c 0,267,268
 232 310 232 310 237 318 c 0,269,270
 242 325 242 325 249 330 c 0,271,272
 257 335 257 335 258 342 c 1,273,-1
 262 354 l 2,274,275
 263 356 263 356 263 361 c 0,276,277
 263 365 263 365 261 369 c 0,278,279
 257 377 257 377 253 382 c 2,280,281
 249 390 249 390 240 397 c 0,282,283
 235 400 235 400 227 412 c 1,284,285
 224 420 224 420 218 426 c 0,286,287
 213 431 213 431 210 439 c 1,288,289
 204 449 204 449 199 454 c 0,290,291
 193 460 193 460 190 469 c 0,292,293
 188 478 188 478 181 482 c 0,294,295
 175 485 175 485 166 494 c 0,296,297
 159 501 159 501 153 511 c 1,298,299
 144 522 144 522 141 525 c 1,300,301
 139 526 139 526 135.5 528.5 c 128,-1,302
 132 531 132 531 131 531 c 1,303,304
 128 534 128 534 127 544 c 128,-1,305
 126 554 126 554 108 572 c 0,306,307
 90 592 90 592 86 596 c 0,308,309
 83 599 83 599 75 619 c 0,310,311
 68 637 68 637 61 643 c 0,312,313
 55 648 55 648 49 663 c 0,314,315
 44 675 44 675 44 682 c 0,316,317
 44 687 44 687 46 693 c 1,318,319
 49 698 49 698 60 704 c 0,320,321
 70 709 70 709 92 710 c 0,322,323
 109 711 109 711 120 708 c 1,324,325
 126 705 126 705 138 701 c 0,326,327
 148 697 148 697 153 690 c 0,328,329
 157 685 157 685 168 676 c 1,330,331
 178 670 178 670 182 663 c 1,332,333
 186 658 186 658 193 646 c 2,334,-1
 203 626 l 2,335,336
 208 615 208 615 210 615 c 1,337,338
 212 613 212 613 215 607 c 0,339,340
 219 599 219 599 234 584 c 0,341,342
 238 580 238 580 246 571.5 c 128,-1,343
 254 563 254 563 256 560 c 0,344,345
 263 551 263 551 264 546 c 0,346,347
 266 539 266 539 269 537 c 0,348,349
 270 536 270 536 278 534 c 128,-1,350
 286 532 286 532 291 527 c 0,351,352
 296 523 296 523 300 511 c 2,353,-1
 306 490 l 2,354,355
 307 483 307 483 316 466 c 0,356,357
 323 453 323 453 330 444 c 0,358,359
 336 438 336 438 338 438 c 1,360,361
 341 437 341 437 346 440 c 0,362,363
 349 442 349 442 351 450 c 128,-1,364
 353 458 353 458 354 460 c 128,-1,365
 355 462 355 462 363 466 c 0,366,367
 370 470 370 470 374 475 c 0,368,369
 378 481 378 481 378 482 c 1,370,371
 380 486 380 486 383 490 c 0,372,373
 388 499 388 499 389 506 c 2,374,375
 392 516 392 516 392 517 c 1,376,377
 393 519 393 519 397 521 c 0,378,379
 400 523 400 523 404 530 c 0,380,381
 409 540 409 540 414 544 c 0,382,383
 416 546 416 546 421 552.5 c 128,-1,384
 426 559 426 559 428 561 c 0,385,386
 431 565 431 565 440 578 c 1,387,388
 444 586 444 586 446 588 c 0,389,390
 447 589 447 589 457 607 c 0,391,392
 467 626 467 626 471 632 c 1,393,394
 477 638 477 638 477 643 c 1,395,396
 479 649 479 649 481 649 c 1,397,398
 482 650 482 650 488 660 c 0,399,400
 493 670 493 670 509 686 c 0,401,402
 527 704 527 704 528 710 c 0,403,0
 530 717 530 717 532 719 c 128,-1,1
EndSplineSet
Validated: 1
EndChar
StartChar: uni0061
Encoding: 97 97 68
GlifName: uni0061
Width: 505
GlyphClass: 2
Flags: W
LayerCount: 2
Fore
SplineSet
312 247 m 0,0,1
 301 250 301 250 295 250 c 0,2,3
 288 250 288 250 275 245 c 0,4,5
 260 239 260 239 243 239 c 0,6,7
 226 237 226 237 211 233 c 0,8,9
 194 227 194 227 187 221 c 2,10,11
 178 217 178 217 171 207 c 0,12,13
 165 199 165 199 159 189 c 128,-1,14
 153 179 153 179 151 169 c 1,15,16
 151 163 151 163 148 154 c 1,17,18
 145 151 145 151 145 141 c 0,19,20
 145 139 145 139 145.5 134.5 c 128,-1,21
 146 130 146 130 146 129 c 1,22,-1
 151 119 l 1,23,24
 154 116 154 116 162 102 c 0,25,26
 169 90 169 90 177 86 c 0,27,28
 183 83 183 83 201 77 c 0,29,30
 215 72 215 72 222 72 c 0,31,32
 225 72 225 72 231 73 c 2,33,34
 245 73 245 73 255 75 c 0,35,36
 267 77 267 77 277 84 c 0,37,38
 289 92 289 92 298 101 c 0,39,40
 310 113 310 113 313 115 c 0,41,42
 319 121 319 121 319 125 c 0,43,44
 319 132 319 132 322 140 c 0,45,46
 325 147 325 147 327 158 c 0,47,48
 330 168 330 168 331 177 c 1,49,50
 335 191 335 191 336 194 c 1,51,52
 336 196 336 196 337 200 c 128,-1,53
 338 204 338 204 339 205 c 1,54,55
 339 211 339 211 336 223 c 0,56,57
 333 234 333 234 328 239 c 1,58,59
 325 244 325 244 312 247 c 0,0,1
269 514 m 1,60,61
 270 515 270 515 293 515 c 128,-1,62
 316 515 316 515 323 512 c 2,63,64
 333 510 333 510 338 507 c 2,65,66
 347 505 347 505 349 502 c 1,67,-1
 373 488 l 2,68,69
 393 477 393 477 395 472 c 1,70,71
 399 466 399 466 402 463 c 128,-1,72
 405 460 405 460 408 454 c 0,73,74
 409 452 409 452 412 445.5 c 128,-1,75
 415 439 415 439 416 437 c 0,76,77
 420 427 420 427 422 413 c 0,78,79
 424 400 424 400 426 396 c 1,80,81
 427 392 427 392 429 359 c 0,82,83
 429 326 429 326 432 318 c 0,84,85
 434 310 434 310 434 304 c 128,-1,86
 434 298 434 298 432 294 c 0,87,88
 429 286 429 286 428 278 c 2,89,90
 425 268 425 268 428 256 c 0,91,92
 429 249 429 249 429 202 c 0,93,94
 429 139 429 139 430 115 c 0,95,96
 430 71 430 71 434 62 c 0,97,98
 436 55 436 55 436 51 c 0,99,100
 436 48 436 48 435 42 c 0,101,102
 432 24 432 24 432 23 c 0,103,104
 430 13 430 13 428 11 c 2,105,106
 426 7 426 7 421 5 c 0,107,108
 418 4 418 4 402 0 c 1,109,110
 400 0 400 0 390.5 -1.5 c 128,-1,111
 381 -3 381 -3 379 -3 c 256,112,113
 377 -3 377 -3 362 0 c 0,114,115
 352 2 352 2 348 6 c 1,116,117
 343 9 343 9 340 20 c 0,118,119
 336 31 336 31 333 33 c 0,120,121
 330 36 330 36 327 36 c 0,122,123
 323 36 323 36 320 31 c 1,124,125
 315 26 315 26 310 24 c 0,126,127
 306 23 306 23 299 18 c 1,128,129
 296 14 296 14 281 6 c 0,130,131
 271 1 271 1 254 -6 c 0,132,133
 240 -11 240 -11 208 -11 c 0,134,135
 175 -10 175 -10 157 -4 c 0,136,137
 145 0 145 0 132 6 c 1,138,139
 126 10 126 10 121 10 c 1,140,141
 114 12 114 12 105 20 c 0,142,143
 99 25 99 25 90 34 c 0,144,145
 86 38 86 38 84 47 c 0,146,147
 81 57 81 57 76 60 c 0,148,149
 73 62 73 62 67 68 c 1,150,151
 62 71 62 71 62 75 c 0,152,153
 62 78 62 78 58 90 c 2,154,155
 58 91 58 91 55 99 c 128,-1,156
 52 107 52 107 51 110 c 0,157,158
 48 120 48 120 48 140 c 0,159,160
 48 161 48 161 52 172 c 0,161,162
 53 176 53 176 56 186 c 128,-1,163
 59 196 59 196 59 197 c 2,164,-1
 64 217 l 2,165,166
 65 221 65 221 72 230 c 0,167,168
 77 237 77 237 86 251 c 0,169,170
 95 263 95 263 103 269 c 1,171,172
 107 270 107 270 118 278 c 0,173,174
 125 284 125 284 140 285 c 0,175,176
 156 288 156 288 176 297 c 0,177,178
 195 307 195 307 206 307 c 128,-1,179
 217 307 217 307 232 313 c 0,180,181
 248 318 248 318 283 318 c 0,182,183
 317 319 317 319 324 322 c 1,184,185
 329 326 329 326 332 331 c 1,186,187
 334 337 334 337 334 349 c 0,188,189
 334 363 334 363 337 369 c 0,190,191
 340 377 340 377 335 392 c 0,192,193
 332 407 332 407 327 412 c 0,194,195
 326 413 326 413 325 415 c 2,196,197
 320 421 320 421 319 424 c 0,198,199
 315 432 315 432 311 433 c 1,200,201
 309 434 309 434 300 443 c 0,202,203
 293 450 293 450 285 453 c 1,204,205
 276 454 276 454 261 453 c 0,206,207
 246 451 246 451 240 448 c 1,208,209
 234 446 234 446 227 446 c 256,210,211
 220 446 220 446 212 443 c 0,212,213
 206 441 206 441 197 435 c 2,214,215
 192 433 192 433 185 426 c 1,216,217
 181 420 181 420 178 409 c 0,218,219
 174 396 174 396 169 390 c 0,220,221
 165 385 165 385 156 378 c 0,222,223
 151 374 151 374 146.5 373 c 128,-1,224
 142 372 142 372 123 372 c 0,225,226
 115 372 115 372 110 372 c 0,227,228
 98 372 98 372 90 374 c 1,229,230
 80 379 80 379 79 380 c 0,231,232
 76 383 76 383 76 400 c 128,-1,233
 76 417 76 417 80 424 c 0,234,235
 81 427 81 427 86 440 c 0,236,237
 88 447 88 447 90 449 c 128,-1,238
 92 451 92 451 106 457 c 0,239,240
 124 466 124 466 130 468 c 0,241,242
 137 470 137 470 140 475 c 2,243,244
 144 478 144 478 147 484 c 1,245,246
 152 491 152 491 158 494 c 0,247,248
 168 500 168 500 173 500 c 1,249,250
 179 502 179 502 187 504 c 1,251,252
 195 508 195 508 207 508 c 0,253,254
 209 508 209 508 244 511 c 0,255,256
 269 513 269 513 269 514 c 1,60,61
EndSplineSet
Validated: 1
EndChar
StartChar: uni006A
Encoding: 106 106 77
GlifName: uni006A_
Width: 295
GlyphClass: 2
Flags: W
LayerCount: 2
Fore
SplineSet
130 532 m 1,0,1
 138 534 138 534 153 534 c 0,2,3
 167 534 167 534 175 532 c 0,4,5
 181 530 181 530 184 527 c 0,6,7
 187 523 187 523 187 510.5 c 128,-1,8
 187 498 187 498 190 487.5 c 128,-1,9
 193 477 193 477 193 470 c 1,10,11
 192 468 192 468 191 458.5 c 128,-1,12
 190 449 190 449 189 444 c 0,13,14
 187 422 187 422 187 413 c 0,15,16
 187 403 187 403 191 389 c 0,17,18
 193 376 193 376 193 362 c 0,19,20
 193 355 193 355 193 345 c 0,21,22
 193 313 193 313 189 308 c 1,23,24
 186 300 186 300 187 292 c 0,25,26
 187 284 187 284 191 274 c 0,27,28
 193 267 193 267 193 260 c 0,29,30
 193 257 193 257 193 253 c 0,31,32
 191 236 191 236 189 232 c 0,33,34
 186 223 186 223 188 216 c 0,35,36
 191 208 191 208 189 197 c 0,37,38
 188 190 188 190 191 180 c 0,39,40
 193 173 193 173 193 138 c 0,41,42
 191 101 191 101 190 99 c 1,43,44
 189 93 189 93 187 46 c 0,45,46
 187 32 187 32 187 21 c 0,47,48
 187 -2 187 -2 188 -8 c 0,49,50
 189 -11 189 -11 191 -30 c 0,51,52
 192 -39 192 -39 192 -50 c 0,53,54
 192 -54 192 -54 187 -66 c 2,55,56
 184 -80 184 -80 173 -99 c 0,57,58
 165 -118 165 -118 159 -121 c 0,59,60
 154 -124 154 -124 151 -131 c 1,61,62
 146 -139 146 -139 138 -141 c 1,63,64
 129 -145 129 -145 111 -150 c 0,65,66
 93 -157 93 -157 88 -157 c 0,67,68
 81 -157 81 -157 74 -160 c 0,69,70
 68 -162 68 -162 65.5 -162 c 128,-1,71
 63 -162 63 -162 57 -160 c 0,72,73
 50 -157 50 -157 35 -157 c 0,74,75
 22 -157 22 -157 18 -155 c 2,76,77
 14 -154 14 -154 8 -148 c 0,78,79
 5 -145 5 -145 1 -139 c 1,80,81
 -1 -133 -1 -133 -1 -117 c 0,82,83
 -1 -99 -1 -99 1 -93 c 0,84,85
 3 -86 3 -86 9 -82 c 0,86,87
 14 -78 14 -78 21 -75 c 0,88,89
 27 -72 27 -72 39 -70 c 128,-1,90
 51 -68 51 -68 54 -65 c 2,91,92
 59 -63 59 -63 62 -56 c 1,93,94
 66 -50 66 -50 72 -46 c 1,95,96
 77 -44 77 -44 82 -36 c 1,97,98
 85 -24 85 -24 85 -14 c 0,99,100
 87 4 87 4 87 13 c 0,101,102
 87 23 87 23 85 33 c 0,103,104
 83 42 83 42 85 53 c 1,105,106
 88 62 88 62 88 71 c 128,-1,107
 88 80 88 80 85 93 c 0,108,109
 82 108 82 108 86 119 c 0,110,111
 90 133 90 133 90 140 c 0,112,113
 90 146 90 146 87 155 c 1,114,115
 84 160 84 160 84 184 c 0,116,117
 84 202 84 202 87 214 c 0,118,119
 90 222 90 222 90 247 c 128,-1,120
 90 272 90 272 87 279 c 0,121,122
 85 283 85 283 85 308 c 2,123,-1
 87 331 l 1,124,-1
 85 341 l 2,125,126
 83 351 83 351 83 361 c 0,127,128
 83 373 83 373 86 382 c 1,129,130
 90 390 90 390 90 406 c 0,131,132
 90 420 90 420 84 428 c 0,133,134
 78 435 78 435 78 442 c 128,-1,135
 78 449 78 449 80 453 c 0,136,137
 83 458 83 458 83 469 c 128,-1,138
 83 480 83 480 89 493 c 0,139,140
 97 509 97 509 97 513 c 1,141,142
 99 520 99 520 102 523 c 0,143,144
 107 528 107 528 115 528 c 1,145,146
 128 531 128 531 130 532 c 1,0,1
117 756 m 0,147,148
 122 761 122 761 128 761 c 0,149,150
 133 761 133 761 138 756 c 0,151,152
 142 752 142 752 146 753 c 1,153,154
 150 753 150 753 158 755 c 256,155,156
 166 757 166 757 176 754 c 0,157,158
 186 750 186 750 191 750 c 0,159,160
 197 750 197 750 200 747 c 1,161,162
 204 745 204 745 206 735 c 128,-1,163
 208 725 208 725 208 714 c 0,164,165
 208 705 208 705 204 693 c 0,166,167
 200 679 200 679 200 672 c 0,168,169
 200 662 200 662 198 656 c 1,170,171
 194 651 194 651 191 649 c 256,172,173
 188 647 188 647 182 647 c 256,174,175
 176 647 176 647 172 644 c 2,176,177
 168 643 168 643 164 639 c 0,178,179
 162 636 162 636 156 636 c 0,180,181
 151 636 151 636 143 640 c 0,182,183
 136 644 136 644 121 644 c 0,184,185
 104 644 104 644 98 649 c 1,186,187
 91 653 91 653 90 654 c 1,188,189
 88 654 88 654 86 657 c 0,190,191
 82 661 82 661 82 671 c 1,192,193
 80 685 80 685 77 693 c 2,194,195
 76 698 76 698 73 707 c 0,196,197
 72 711 72 711 72 712 c 2,198,199
 69 720 69 720 72 727 c 0,200,201
 73 731 73 731 76 740 c 0,202,203
 78 746 78 746 79 747 c 0,204,205
 81 749 81 749 89 751 c 1,206,207
 92 751 92 751 97.5 751.5 c 128,-1,208
 103 752 103 752 105 752 c 0,209,210
 112 752 112 752 117 756 c 0,147,148
EndSplineSet
Validated: 1
EndChar
StartChar: uni0074
Encoding: 116 116 87
GlifName: uni0074
Width: 393
GlyphClass: 2
Flags: W
LayerCount: 2
Fore
SplineSet
177 637 m 1,0,1
 181 640 181 640 195 640 c 0,2,3
 208 640 208 640 217 635 c 0,4,5
 224 631 224 631 226 626 c 0,6,7
 227 624 227 624 227 603 c 0,8,9
 227 581 227 581 224 572 c 0,10,11
 220 560 220 560 223 551 c 2,12,-1
 226 539 l 1,13,14
 226 536 226 536 228 528 c 0,15,16
 229 522 229 522 236 519 c 0,17,18
 241 517 241 517 249 518 c 0,19,20
 261 521 261 521 275 521 c 0,21,22
 295 523 295 523 308 523 c 0,23,24
 322 523 322 523 326 521 c 2,25,26
 331 521 331 521 337 515 c 1,27,28
 344 510 344 510 345 500 c 0,29,30
 347 489 347 489 350 485 c 1,31,32
 352 477 352 477 352 471 c 0,33,34
 352 463 352 463 349 457 c 128,-1,35
 346 451 346 451 340 445 c 1,36,37
 332 440 332 440 325 437 c 0,38,39
 314 434 314 434 299 434 c 0,40,41
 283 434 283 434 274 437 c 0,42,43
 266 439 266 439 252 436 c 0,44,45
 242 435 242 435 235 431 c 1,46,-1
 228 424 l 1,47,48
 225 419 225 419 225 400 c 0,49,50
 225 374 225 374 226 365 c 0,51,52
 228 352 228 352 225 338 c 0,53,54
 223 326 223 326 223 324 c 1,55,56
 224 322 224 322 222 304 c 0,57,58
 221 295 221 295 221 287.5 c 128,-1,59
 221 280 221 280 222 272 c 0,60,61
 223 266 223 266 226 246 c 0,62,63
 228 236 228 236 224 225 c 0,64,65
 221 213 221 213 221 196 c 0,66,67
 221 188 221 188 221 176 c 0,68,69
 221 139 221 139 224 130 c 0,70,71
 229 115 229 115 230 113 c 0,72,73
 233 104 233 104 233 99 c 0,74,75
 234 91 234 91 238 88 c 0,76,77
 241 85 241 85 265 85 c 0,78,79
 272 85 272 85 288 85.5 c 128,-1,80
 304 86 304 86 310 86 c 0,81,82
 332 86 332 86 338 84 c 0,83,84
 346 81 346 81 350 77 c 1,85,86
 355 69 355 69 356 67 c 0,87,88
 359 56 359 56 360 45 c 0,89,90
 361 37 361 37 361 33 c 0,91,92
 361 27 361 27 358 21 c 0,93,94
 357 19 357 19 348 7 c 1,95,96
 340 1 340 1 337 -2 c 1,97,98
 329 -4 329 -4 318 -4 c 0,99,100
 303 -4 303 -4 287 -8 c 0,101,102
 274 -11 274 -11 269 -11 c 0,103,104
 265 -11 265 -11 252 -9 c 0,105,106
 240 -7 240 -7 219 -4 c 1,107,108
 205 -4 205 -4 199 0 c 1,109,110
 190 3 190 3 186 4 c 0,111,112
 179 6 179 6 170 13 c 0,113,114
 160 21 160 21 155 31 c 0,115,116
 148 42 148 42 143 45 c 0,117,118
 141 46 141 46 133 58 c 0,119,120
 128 66 128 66 124 89 c 0,121,122
 121 107 121 107 118 119 c 0,123,124
 117 128 117 128 119 136 c 0,125,126
 122 144 122 144 123 174 c 0,127,128
 123 205 123 205 120 214 c 128,-1,129
 117 223 117 223 117 229 c 128,-1,130
 117 235 117 235 120 247 c 0,131,132
 124 260 124 260 124 337 c 0,133,134
 124 416 124 416 123 419 c 0,135,136
 121 426 121 426 118 430 c 1,137,138
 114 434 114 434 104 437 c 0,139,140
 96 439 96 439 87 439 c 128,-1,141
 78 439 78 439 72 436 c 1,142,143
 64 434 64 434 58 434 c 0,144,145
 54 434 54 434 42 438 c 0,146,147
 35 440 35 440 25 447 c 0,148,149
 20 451 20 451 17 464 c 0,150,151
 16 474 16 474 13 482 c 1,152,153
 13 492 13 492 14 497 c 1,154,155
 14 504 14 504 19 509 c 0,156,157
 23 514 23 514 36 515 c 0,158,159
 51 517 51 517 57 520 c 1,160,161
 66 522 66 522 81 520 c 0,162,163
 99 518 99 518 103 518 c 0,164,165
 108 518 108 518 114 522 c 128,-1,166
 120 526 120 526 122 531 c 0,167,168
 124 537 124 537 124 564 c 0,169,170
 125 593 125 593 129 604 c 0,171,172
 135 618 135 618 137 620 c 2,173,174
 138 622 138 622 145 627 c 0,175,176
 150 630 150 630 161 632 c 0,177,178
 163 632 163 632 177 637 c 1,0,1
EndSplineSet
Validated: 1
EndChar
StartChar: uni0077
Encoding: 119 119 90
GlifName: uni0077
Width: 762
GlyphClass: 2
Flags: W
LayerCount: 2
Fore
SplineSet
67 520 m 0,0,1
 83 522 83 522 84 522 c 0,2,3
 86 522 86 522 92 520 c 128,-1,4
 98 518 98 518 105 510 c 0,5,6
 111 504 111 504 115 496 c 0,7,8
 118 488 118 488 122 482 c 0,9,10
 128 474 128 474 129 458 c 0,11,12
 131 444 131 444 133 435 c 1,13,14
 135 430 135 430 138 421 c 1,15,16
 138 420 138 420 140 413.5 c 128,-1,17
 142 407 142 407 143 404 c 0,18,19
 146 395 146 395 148 383 c 2,20,-1
 152 367 l 1,21,22
 156 359 156 359 156 346 c 0,23,24
 158 329 158 329 159 328 c 1,25,26
 163 320 163 320 164 313 c 1,27,28
 168 301 168 301 171 295 c 0,29,30
 176 285 176 285 179 273 c 0,31,32
 184 259 184 259 186 248 c 0,33,34
 189 233 189 233 190 225 c 0,35,36
 190 223 190 223 195 204 c 1,37,38
 196 202 196 202 199 196 c 128,-1,39
 202 190 202 190 204 187 c 0,40,41
 210 173 210 173 210 166 c 0,42,43
 211 157 211 157 216 150 c 1,44,45
 220 146 220 146 224 147 c 1,46,47
 226 149 226 149 228 155 c 0,48,49
 231 163 231 163 232 171 c 1,50,-1
 239 192 l 2,51,52
 245 206 245 206 246 208 c 0,53,54
 249 212 249 212 249 228 c 0,55,56
 249 243 249 243 254 252 c 0,57,58
 258 259 258 259 261 274 c 1,59,60
 261 287 261 287 265 293 c 1,61,62
 267 299 267 299 267 302 c 0,63,64
 267 306 267 306 272 321 c 0,65,66
 276 341 276 341 280 347 c 0,67,68
 281 349 281 349 283 355 c 128,-1,69
 285 361 285 361 286 363 c 0,70,71
 287 366 287 366 289 389 c 0,72,73
 291 410 291 410 293 416 c 1,74,75
 296 422 296 422 298 428 c 1,76,77
 298 432 298 432 302 442 c 1,78,79
 305 447 305 447 307 459 c 0,80,81
 309 470 309 470 314 480 c 2,82,83
 316 487 316 487 322 499 c 0,84,85
 325 505 325 505 338 510 c 0,86,87
 350 515 350 515 391 515 c 0,88,89
 432 514 432 514 437 509 c 0,90,91
 441 505 441 505 451 487 c 0,92,93
 459 472 459 472 461 460 c 0,94,95
 462 453 462 453 467 441 c 2,96,-1
 475 421 l 2,97,98
 479 410 479 410 479 396 c 0,99,100
 479 381 479 381 486 374 c 1,101,102
 493 364 493 364 494 361 c 0,103,104
 496 355 496 355 496 349 c 0,105,106
 496 345 496 345 498 337 c 2,107,-1
 509 306 l 2,108,109
 517 281 517 281 517 265 c 0,110,111
 517 247 517 247 520 241 c 0,112,113
 523 233 523 233 525 218 c 0,114,115
 527 204 527 204 531 195 c 0,116,117
 536 180 536 180 536 178 c 1,118,119
 539 169 539 169 540 167 c 0,120,121
 543 158 543 158 543 152 c 0,122,123
 543 143 543 143 545 135 c 0,124,125
 547 129 547 129 551 125 c 1,126,127
 552 122 552 122 557 122 c 1,128,129
 561 123 561 123 561 132 c 0,130,131
 561 142 561 142 564 151 c 2,132,133
 564 152 564 152 566.5 158.5 c 128,-1,134
 569 165 569 165 570 167 c 0,135,136
 573 178 573 178 574 193 c 0,137,138
 576 215 576 215 578 219 c 0,139,140
 582 232 582 232 583 237 c 0,141,142
 584 241 584 241 585.5 248 c 128,-1,143
 587 255 587 255 587 256 c 0,144,145
 587 262 587 262 592 267 c 1,146,147
 597 275 597 275 600 283 c 2,148,149
 604 289 604 289 606 305 c 0,150,151
 606 316 606 316 610 330 c 0,152,153
 614 342 614 342 617 351 c 0,154,155
 620 359 620 359 620 370 c 0,156,157
 620 380 620 380 624 390 c 2,158,159
 624 392 624 392 626.5 398.5 c 128,-1,160
 629 405 629 405 630 408 c 0,161,162
 635 421 635 421 635 425 c 1,163,164
 638 437 638 437 640 442 c 0,165,166
 642 450 642 450 644 466 c 0,167,168
 644 480 644 480 650 487 c 0,169,170
 657 495 657 495 662 506 c 0,171,172
 666 517 666 517 671 520 c 1,173,174
 677 522 677 522 681 522 c 0,175,176
 684 522 684 522 696 518 c 0,177,178
 709 514 709 514 714 516 c 0,179,180
 716 517 716 517 728 521 c 1,181,182
 734 522 734 522 741 521 c 1,183,184
 748 518 748 518 751 511 c 0,185,186
 754 506 754 506 754 499 c 0,187,188
 754 495 754 495 753 486 c 0,189,190
 751 465 751 465 748 460 c 2,191,192
 748 459 748 459 745.5 452.5 c 128,-1,193
 743 446 743 446 742 443 c 0,194,195
 738 433 738 433 738 425 c 0,196,197
 738 416 738 416 735 408 c 0,198,199
 731 398 731 398 731 395 c 0,200,201
 731 389 731 389 728 380 c 0,202,203
 724 370 724 370 724 367 c 0,204,205
 724 362 724 362 718 351 c 0,206,207
 712 339 712 339 708 333 c 0,208,209
 703 323 703 323 703 319 c 1,210,211
 699 303 699 303 696 293 c 0,212,213
 695 287 695 287 692 277.5 c 128,-1,214
 689 268 689 268 689 266 c 0,215,216
 688 258 688 258 685 251 c 0,217,218
 683 247 683 247 683 238 c 128,-1,219
 683 229 683 229 681 223 c 0,220,221
 678 216 678 216 675 212 c 0,222,223
 670 205 670 205 669 201 c 2,224,-1
 667 194 l 2,225,226
 665 186 665 186 663 181 c 2,227,228
 661 171 661 171 651 145 c 0,229,230
 644 124 644 124 638 108 c 0,231,232
 630 86 630 86 628 80 c 0,233,234
 624 66 624 66 621 59 c 0,235,236
 618 53 618 53 614 39 c 0,237,238
 611 28 611 28 604 19 c 0,239,240
 594 9 594 9 590 7 c 0,241,242
 584 4 584 4 550 3 c 0,243,244
 533 3 533 3 528 3 c 0,245,246
 515 3 515 3 502 8 c 0,247,248
 486 15 486 15 484 17 c 0,249,250
 479 22 479 22 476 28 c 1,251,252
 473 38 473 38 474 50 c 0,253,254
 475 65 475 65 469 77 c 0,255,256
 463 93 463 93 462 95 c 0,257,258
 460 102 460 102 458 110 c 0,259,260
 454 120 454 120 454 130 c 0,261,262
 454 144 454 144 451 156 c 0,263,264
 449 163 449 163 446 181 c 0,265,266
 443 193 443 193 439 197 c 128,-1,267
 435 201 435 201 434 212 c 0,268,269
 434 222 434 222 430 234 c 0,270,271
 427 241 427 241 423 260 c 0,272,273
 420 273 420 273 420 279 c 0,274,275
 420 283 420 283 413 302 c 2,276,-1
 404 334 l 2,277,278
 400 348 400 348 397 357 c 128,-1,279
 394 366 394 366 388 381 c 0,280,281
 386 389 386 389 381 394 c 1,282,283
 378 394 378 394 376 390 c 0,284,285
 374 385 374 385 370 371 c 0,286,287
 369 368 369 368 367 359.5 c 128,-1,288
 365 351 365 351 364 348 c 0,289,290
 362 339 362 339 357 325 c 0,291,292
 352 313 352 313 350 298 c 0,293,294
 350 285 350 285 346 277 c 1,295,296
 343 262 343 262 343 257 c 0,297,298
 342 247 342 247 337 239 c 0,299,300
 332 233 332 233 331 218 c 0,301,302
 329 198 329 198 325 187 c 0,303,304
 324 183 324 183 320 173 c 128,-1,305
 316 163 316 163 315 159 c 0,306,307
 312 152 312 152 309 136 c 0,308,309
 308 128 308 128 305 120 c 1,310,311
 302 117 302 117 300 100 c 0,312,313
 299 85 299 85 294 79 c 1,314,315
 289 69 289 69 288 66 c 0,316,317
 286 58 286 58 286 51 c 0,318,319
 286 40 286 40 283 33 c 0,320,321
 280 24 280 24 274 18 c 0,322,323
 270 14 270 14 258 8 c 128,-1,324
 246 2 246 2 219 1 c 0,325,326
 206 0 206 0 196.5 0 c 128,-1,327
 187 0 187 0 184 1 c 0,328,329
 182 2 182 2 177 3 c 128,-1,330
 172 4 172 4 170 4 c 0,331,332
 164 4 164 4 158 10 c 0,333,334
 157 11 157 11 153.5 15.5 c 128,-1,335
 150 20 150 20 149 21 c 0,336,337
 146 24 146 24 142 36 c 0,338,339
 139 45 139 45 137 68 c 0,340,341
 136 87 136 87 130 99 c 0,342,343
 125 109 125 109 123 117 c 0,344,345
 120 129 120 129 119 134 c 0,346,347
 117 143 117 143 112 152 c 0,348,349
 108 162 108 162 108 165 c 0,350,351
 108 170 108 170 101 182 c 0,352,353
 93 198 93 198 93 205 c 1,354,355
 92 209 92 209 87 222 c 1,356,357
 83 229 83 229 81 241 c 1,358,359
 81 253 81 253 74 265 c 0,360,361
 69 276 69 276 67 287 c 1,362,363
 67 296 67 296 63 304 c 1,364,-1
 55 328 l 2,365,366
 51 348 51 348 46 360 c 0,367,368
 41 375 41 375 37 389 c 128,-1,369
 33 403 33 403 33 410 c 1,370,371
 31 418 31 418 29 423 c 128,-1,372
 27 428 27 428 22 435 c 0,373,374
 16 443 16 443 15 449 c 2,375,376
 11 456 11 456 11 478 c 0,377,378
 11 499 11 499 13 505 c 0,379,380
 15 510 15 510 19 512 c 2,381,382
 22 515 22 515 37 517 c 0,383,384
 41 518 41 518 52 519 c 128,-1,385
 63 520 63 520 67 520 c 0,0,1
EndSplineSet
Validated: 1
EndChar
StartChar: uni007A
Encoding: 122 122 93
GlifName: uni007A_
Width: 476
GlyphClass: 2
Flags: W
LayerCount: 2
Fore
SplineSet
75 528 m 1,0,1
 77 528 l 130,-1,2
 79 528 79 528 80 528 c 0,3,4
 84 528 l 0,5,6
 91 528 91 528 98 523 c 0,7,8
 104 519 104 519 115 515 c 0,9,10
 127 512 127 512 137 514 c 0,11,12
 142 515 142 515 155 515 c 128,-1,13
 168 515 168 515 182 514 c 0,14,15
 189 514 189 514 198 514 c 128,-1,16
 207 514 207 514 213 513.5 c 128,-1,17
 219 513 219 513 220 513 c 128,-1,18
 221 513 221 513 227.5 513.5 c 128,-1,19
 234 514 234 514 243.5 514 c 128,-1,20
 253 514 253 514 262 514 c 0,21,22
 281 515 281 515 288 515 c 0,23,24
 299 515 299 515 307 512 c 0,25,26
 316 509 316 509 326 512 c 0,27,28
 334 515 334 515 348 515 c 128,-1,29
 362 515 362 515 372 512 c 0,30,31
 381 508 381 508 401 508 c 0,32,33
 419 508 419 508 423 506 c 1,34,35
 427 502 427 502 430 493 c 128,-1,36
 433 484 433 484 430 476 c 1,37,38
 428 466 428 466 428 463 c 0,39,40
 428 461 428 461 424 445 c 2,41,-1
 419 425 l 2,42,43
 418 420 418 420 402 403 c 0,44,45
 386 387 386 387 386 383 c 0,46,47
 386 381 386 381 380 367 c 0,48,49
 374 354 374 354 368 349 c 0,50,51
 363 344 363 344 360 344 c 0,52,53
 359 344 359 344 355 340 c 1,54,55
 351 337 351 337 351 329 c 0,56,57
 351 317 351 317 350 314 c 0,58,59
 346 306 346 306 341 302 c 0,60,61
 334 297 334 297 331 297 c 0,62,63
 329 297 329 297 322 292 c 1,64,65
 315 285 315 285 313 284 c 1,66,67
 310 278 310 278 309 275 c 0,68,69
 308 269 308 269 300 260 c 0,70,71
 293 253 293 253 288 241 c 0,72,73
 284 230 284 230 279 228 c 0,74,75
 273 226 273 226 266 219 c 2,76,77
 258 213 258 213 254 204 c 0,78,79
 251 198 251 198 245 190 c 1,80,81
 240 185 240 185 232 171 c 0,82,83
 225 160 225 160 216 153 c 1,84,85
 210 150 210 150 202 142 c 0,86,87
 198 138 198 138 190 125 c 0,88,89
 184 116 184 116 184 113 c 1,90,-1
 176 103 l 2,91,92
 168 93 168 93 168 90 c 1,93,94
 170 85 170 85 175 83 c 1,95,96
 182 78 182 78 185 78 c 1,97,98
 189 76 189 76 199 81 c 0,99,100
 210 85 210 85 229 85 c 128,-1,101
 248 85 248 85 256 82 c 1,102,103
 261 79 261 79 307 79 c 0,104,105
 354 79 354 79 359 82 c 0,106,107
 365 85 365 85 386 85 c 0,108,109
 408 85 408 85 419 80 c 0,110,111
 429 75 429 75 432 69 c 128,-1,112
 435 63 435 63 435 46 c 0,113,114
 435 27 435 27 431 22 c 2,115,116
 429 15 429 15 422 13 c 1,117,118
 416 10 416 10 405 10 c 0,119,120
 395 10 395 10 383 6 c 0,121,122
 372 3 372 3 361 3 c 0,123,124
 348 3 348 3 344 0 c 1,125,126
 341 -1 341 -1 313 -3 c 0,127,128
 287 -3 287 -3 282 0 c 128,-1,129
 277 3 277 3 256 4 c 0,130,131
 237 4 237 4 231 6 c 0,132,133
 226 7 226 7 214 4 c 0,134,135
 203 2 203 2 194 -2 c 1,136,137
 186 -4 186 -4 175 -4 c 0,138,139
 169 -4 169 -4 161 -4 c 0,140,141
 135 -3 135 -3 130 0 c 0,142,143
 124 3 124 3 107 3 c 0,144,145
 89 3 89 3 77 -1 c 0,146,147
 66 -4 66 -4 59 -3 c 1,148,149
 53 -1 53 -1 45 7 c 0,150,151
 36 14 36 14 34 18 c 0,152,153
 32 21 32 21 32 52 c 0,154,155
 34 84 34 84 35 87 c 1,156,157
 36 88 36 88 39 93 c 128,-1,158
 42 98 42 98 43 100 c 1,159,160
 53 110 53 110 58 119 c 0,161,162
 64 128 64 128 70 134 c 0,163,164
 74 138 74 138 74 140 c 128,-1,165
 74 142 74 142 80 150 c 0,166,167
 85 159 85 159 92 160 c 1,168,169
 100 163 100 163 102 168 c 2,170,171
 103 169 103 169 106 173.5 c 128,-1,172
 109 178 109 178 110 179 c 0,173,174
 114 186 114 186 116 192 c 0,175,176
 118 199 118 199 130 222 c 0,177,178
 145 250 145 250 148 254 c 0,179,180
 155 264 155 264 162 265 c 0,181,182
 170 267 170 267 172 276 c 0,183,184
 175 284 175 284 183 290 c 0,185,186
 192 296 192 296 193 304 c 1,187,188
 195 311 195 311 200 314 c 1,189,190
 204 315 204 315 207 324 c 1,191,192
 208 330 208 330 213 342 c 0,193,194
 220 354 220 354 223 356 c 0,195,196
 227 360 227 360 241 366 c 0,197,198
 251 370 251 370 253.5 372 c 128,-1,199
 256 374 256 374 261 384 c 0,200,201
 269 400 269 400 274 403 c 1,202,203
 281 410 281 410 282 413 c 0,204,205
 284 418 284 418 283 422 c 1,206,207
 283 428 283 428 279 430 c 1,208,209
 277 432 277 432 244 432 c 0,210,211
 230 432 230 432 208 432 c 0,212,213
 140 432 140 432 133 429 c 0,214,215
 126 427 126 427 113 425 c 1,216,217
 101 425 101 425 95 422 c 1,218,219
 89 420 89 420 85 420 c 128,-1,220
 81 420 81 420 73 422 c 1,221,222
 68 425 68 425 57 425 c 0,223,224
 47 425 47 425 44 428 c 0,225,226
 40 432 40 432 37 440 c 0,227,228
 33 450 33 450 33 453 c 0,229,230
 33 457 33 457 42 479 c 0,231,232
 48 497 48 497 52 505 c 1,233,234
 55 508 55 508 63 518 c 0,235,236
 71 526 71 526 75 528 c 1,0,1
EndSplineSet
Validated: 1
EndChar
StartChar: uni007C
Encoding: 124 124 95
GlifName: uni007C_
Width: 278
GlyphClass: 2
Flags: W
LayerCount: 2
Fore
SplineSet
124 693 m 0,0,1
 128 695 128 695 145 695 c 0,2,3
 160 695 160 695 168 693 c 1,4,5
 175 688 175 688 176 686 c 0,6,7
 179 682 179 682 179 656 c 0,8,9
 179 650 179 650 179 637 c 0,10,11
 179 630 179 630 179 613 c 128,-1,12
 179 596 179 596 179 588 c 0,13,14
 177 545 177 545 176 538 c 1,15,16
 174 532 174 532 177 519 c 0,17,18
 178 514 178 514 182 501 c 0,19,20
 184 497 184 497 184 490 c 0,21,22
 184 482 184 482 183 479 c 1,23,24
 181 477 181 477 179 456 c 0,25,26
 178 441 178 441 175 431 c 1,27,28
 171 424 171 424 173 419 c 2,29,30
 173 416 173 416 178 406 c 1,31,32
 183 400 183 400 182 390 c 0,33,34
 180 380 180 380 180 331 c 0,35,36
 179 279 179 279 176 270 c 0,37,38
 172 259 172 259 174 247 c 128,-1,39
 176 235 176 235 176 210 c 2,40,-1
 176 175 l 1,41,-1
 176 157 l 1,42,43
 174 151 174 151 177 141 c 1,44,45
 178 134 178 134 175 127 c 0,46,47
 172 121 172 121 172 96 c 0,48,49
 172 72 172 72 176 59 c 0,50,51
 179 49 179 49 177 41 c 0,52,53
 173 31 173 31 173 21 c 1,54,55
 171 8 171 8 170 7 c 0,56,57
 167 4 167 4 158 -2 c 1,58,59
 144 -8 144 -8 141 -8 c 0,60,61
 135 -8 135 -8 125 -4 c 128,-1,62
 115 0 115 0 112 5 c 1,63,64
 110 13 110 13 110 15 c 0,65,66
 110 18 110 18 106 32 c 0,67,68
 102 48 102 48 99 54 c 0,69,70
 97 59 97 59 97 101 c 0,71,72
 97 115 97 115 97 123 c 0,73,74
 97 141 97 141 100 151 c 0,75,76
 103 158 103 158 103 165 c 0,77,78
 103 168 103 168 99 180 c 0,79,80
 96 188 96 188 96 192 c 0,81,82
 96 194 96 194 97 198 c 2,83,-1
 101 210 l 2,84,85
 103 216 103 216 102 222 c 0,86,87
 100 230 100 230 100 235 c 256,88,89
 100 240 100 240 103 245 c 0,90,91
 107 250 107 250 105 259 c 256,92,93
 103 268 103 268 100 273 c 1,94,95
 98 279 98 279 98 283 c 128,-1,96
 98 287 98 287 100 295 c 0,97,98
 103 304 103 304 103 354 c 0,99,100
 103 406 103 406 100 411 c 1,101,102
 97 420 97 420 97 426 c 0,103,104
 97 428 97 428 97 433 c 0,105,106
 97 442 97 442 98 460 c 0,107,108
 100 487 100 487 101 490 c 1,109,110
 101 501 101 501 99 506 c 0,111,112
 96 514 96 514 96 523 c 0,113,114
 96 531 96 531 99 540 c 0,115,116
 102 550 102 550 99 562 c 0,117,118
 96 576 96 576 96 610 c 0,119,120
 97 648 97 648 101 661 c 0,121,122
 106 676 106 676 112 683 c 0,123,124
 121 692 121 692 124 693 c 0,0,1
EndSplineSet
Validated: 1
EndChar
StartChar: uni00A1
Encoding: 161 161 99
GlifName: uni00A_1
Width: 450
GlyphClass: 2
Flags: W
LayerCount: 2
Fore
SplineSet
231 555 m 128,-1,1
 233 556 233 556 240 556 c 1,2,3
 248 552 248 552 249 551 c 0,4,5
 252 548 252 548 256 542 c 256,6,7
 260 536 260 536 261 517 c 0,8,9
 261 497 261 497 258 487 c 0,10,11
 253 475 253 475 255 468 c 1,12,13
 255 463 255 463 257 457 c 0,14,15
 258 452 258 452 255 445 c 0,16,17
 253 439 253 439 256 423 c 0,18,19
 259 412 259 412 259 408.5 c 128,-1,20
 259 405 259 405 256 396 c 128,-1,21
 253 387 253 387 253 383.5 c 128,-1,22
 253 380 253 380 256 368 c 0,23,24
 260 352 260 352 260 345 c 0,25,26
 260 343 260 343 259.5 337.5 c 128,-1,27
 259 332 259 332 259 329 c 0,28,29
 258 319 258 319 261 308 c 0,30,31
 265 297 265 297 263 283 c 0,32,33
 261 270 261 270 265 262 c 0,34,35
 268 256 268 256 268 249 c 0,36,37
 268 248 268 248 271 236 c 0,38,39
 273 231 273 231 273 227 c 0,40,41
 273 224 273 224 272 216 c 0,42,43
 270 202 270 202 270 198 c 0,44,45
 270 187 270 187 269 179 c 0,46,47
 267 162 267 162 265 159 c 0,48,49
 261 153 261 153 261 150 c 1,50,-1
 264 141 l 2,51,52
 266 137 266 137 266 124 c 0,53,54
 266 112 266 112 263 101 c 0,55,56
 259 91 259 91 264 83 c 0,57,58
 268 76 268 76 268 68 c 128,-1,59
 268 60 268 60 266 48 c 0,60,61
 265 36 265 36 268 27 c 1,62,63
 272 19 272 19 270 14 c 0,64,65
 268 10 268 10 261 5 c 0,66,67
 255 0 255 0 248 -2 c 2,68,69
 245 -4 245 -4 225 -4 c 0,70,71
 203 -4 203 -4 199 -5 c 1,72,73
 197 -5 197 -5 194 -5 c 0,74,75
 188 -5 188 -5 175 -2 c 0,76,77
 156 4 156 4 153 7 c 0,78,79
 147 12 147 12 147 16 c 0,80,81
 147 21 147 21 149 27 c 0,82,83
 150 32 150 32 149 42 c 128,-1,84
 148 52 148 52 149 58 c 1,85,86
 151 64 151 64 153 92 c 0,87,88
 157 125 157 125 158 128 c 0,89,90
 161 136 161 136 159 150 c 0,91,92
 158 157 158 157 155 169 c 1,93,94
 152 174 152 174 152 179 c 0,95,96
 152 186 152 186 157 194 c 0,97,98
 162 204 162 204 161 222 c 0,99,100
 161 245 161 245 160 249 c 1,101,102
 160 257 160 257 162 267 c 0,103,104
 163 277 163 277 160 280 c 0,105,106
 157 284 157 284 157 298 c 0,107,108
 157 306 157 306 161 322 c 0,109,110
 164 331 164 331 166 341 c 1,111,112
 166 349 166 349 164 359 c 0,113,114
 162 366 162 366 162 396 c 0,115,116
 162 423 162 423 165 432 c 0,117,118
 167 442 167 442 169 456 c 0,119,120
 170 469 170 469 167 485 c 0,121,122
 164 497 164 497 166 515 c 0,123,124
 170 532 170 532 173 540 c 0,125,126
 177 548 177 548 185 552 c 0,127,128
 192 555 192 555 210 554 c 0,129,0
 229 554 229 554 231 555 c 128,-1,1
167 707 m 1,130,131
 171 709 171 709 204 709 c 0,132,133
 236 709 236 709 242 706 c 0,134,135
 247 704 247 704 249 701 c 1,136,137
 253 698 253 698 260 696 c 0,138,139
 266 694 266 694 272 688 c 1,140,141
 275 682 275 682 275 672 c 0,142,143
 275 663 275 663 277 651 c 0,144,145
 278 647 278 647 278 644 c 0,146,147
 278 640 278 640 275 630 c 0,148,149
 272 621 272 621 272 613 c 128,-1,150
 272 605 272 605 269 602 c 2,151,152
 266 596 266 596 261 596 c 1,153,154
 255 594 255 594 243 594 c 0,155,156
 233 593 233 593 224 596 c 0,157,158
 214 598 214 598 205 600 c 0,159,160
 193 602 193 602 188 600 c 2,161,162
 187 600 187 600 185 599 c 0,163,164
 179 597 179 597 176 596 c 1,165,166
 172 593 172 593 167 593 c 0,167,168
 165 593 165 593 163 595 c 1,169,170
 160 596 160 596 160 617 c 0,171,172
 160 640 160 640 161 643 c 0,173,174
 162 649 162 649 161 671 c 0,175,176
 159 694 159 694 162 699 c 1,177,178
 163 703 163 703 167 707 c 1,130,131
EndSplineSet
Validated: 1
EndChar
StartChar: uni00A6
Encoding: 166 166 104
GlifName: uni00A_6
Width: 337
GlyphClass: 2
Flags: W
LayerCount: 2
Fore
SplineSet
129 356 m 0,0,1
 132 359 132 359 134 359 c 128,-1,2
 136 359 136 359 142 356 c 1,3,4
 150 354 150 354 163 357 c 0,5,6
 175 359 175 359 186 358 c 0,7,8
 196 356 196 356 201 356 c 0,9,10
 203 356 203 356 209 353 c 1,11,12
 212 350 212 350 212 330 c 0,13,14
 212 312 212 312 217 302 c 0,15,16
 221 295 221 295 221 289 c 0,17,18
 221 286 221 286 220 279 c 2,19,20
 220 267 220 267 215 255 c 0,21,22
 211 247 211 247 211 241 c 0,23,24
 211 237 211 237 212 223 c 0,25,26
 214 205 214 205 216 193 c 0,27,28
 217 189 217 189 217 182 c 0,29,30
 217 179 217 179 213 169 c 0,31,32
 209 157 209 157 209 155 c 0,33,34
 209 150 209 150 212 142 c 0,35,36
 216 132 216 132 216 124 c 0,37,38
 216 111 216 111 215 105 c 0,39,40
 214 92 214 92 217 85 c 0,41,42
 219 78 219 78 218 66 c 0,43,44
 218 50 218 50 219 44 c 256,45,46
 220 38 220 38 220 35 c 128,-1,47
 220 32 220 32 219 27 c 0,48,49
 217 20 217 20 211 14 c 0,50,51
 206 9 206 9 201 7 c 1,52,53
 200 7 200 7 195 5.5 c 128,-1,54
 190 4 190 4 187 3 c 0,55,56
 177 1 177 1 164 1 c 0,57,58
 146 1 146 1 142 2 c 0,59,60
 136 3 136 3 128 10 c 0,61,62
 121 17 121 17 121 27 c 0,63,64
 121 30 121 30 121 40 c 0,65,66
 122 63 122 63 127 71 c 0,67,68
 131 79 131 79 131 81 c 128,-1,69
 131 83 131 83 127 91 c 0,70,71
 124 97 124 97 125 111 c 0,72,73
 126 124 126 124 123 130 c 1,74,75
 120 134 120 134 120 147 c 0,76,77
 120 155 120 155 124 167 c 0,78,79
 127 176 127 176 127 187 c 0,80,81
 127 192 127 192 127 199 c 2,82,-1
 127 243 l 2,83,84
 125 266 125 266 123 272 c 128,-1,85
 121 278 121 278 122 287 c 0,86,87
 124 295 124 295 126 301 c 1,88,89
 129 307 129 307 129 311 c 0,90,91
 129 312 129 312 127.5 315.5 c 128,-1,92
 126 319 126 319 126 321 c 1,93,94
 123 327 123 327 123 330 c 1,95,96
 125 332 125 332 125 342 c 0,97,98
 125 353 125 353 129 356 c 0,0,1
140 832 m 0,99,100
 152 837 152 837 162 837 c 0,101,102
 173 837 173 837 179 834 c 1,103,104
 188 831 188 831 199 831 c 0,105,106
 202 831 202 831 209 830.5 c 128,-1,107
 216 830 216 830 217 829 c 2,108,109
 222 829 222 829 222 825 c 1,110,111
 223 824 223 824 223 822 c 0,112,113
 223 819 223 819 219 810 c 0,114,115
 214 799 214 799 215 787 c 0,116,117
 216 781 216 781 216 768 c 0,118,119
 216 767 216 767 215.5 751 c 128,-1,120
 215 735 215 735 215 723 c 0,121,122
 215 686 215 686 212 678 c 256,123,124
 209 670 209 670 213 661 c 1,125,126
 216 645 216 645 217 632 c 0,127,128
 217 611 217 611 215 608 c 0,129,130
 214 606 214 606 212 585 c 0,131,132
 211 575 211 575 211 569 c 0,133,134
 211 560 211 560 213 552 c 2,135,136
 213 548 213 548 215 538 c 128,-1,137
 217 528 217 528 218 524 c 0,138,139
 222 510 222 510 219 505 c 0,140,141
 218 503 218 503 211 493 c 1,142,143
 209 492 209 492 205.5 488.5 c 128,-1,144
 202 485 202 485 200 484 c 0,145,146
 196 482 196 482 178 480 c 0,147,148
 172 480 172 480 168 480 c 0,149,150
 159 480 159 480 146 482 c 1,151,152
 130 487 130 487 129 487 c 1,153,154
 125 491 125 491 121 498 c 0,155,156
 117 507 117 507 117 518 c 0,157,158
 117 531 117 531 121 540 c 0,159,160
 125 551 125 551 122 566 c 0,161,162
 118 582 118 582 118 589 c 2,163,164
 116 600 116 600 119 608 c 0,165,166
 122 617 122 617 122 626 c 0,167,168
 122 636 122 636 118 641 c 1,169,170
 116 646 116 646 116 648.5 c 128,-1,171
 116 651 116 651 118 659 c 0,172,173
 122 672 122 672 126 678 c 0,174,175
 131 685 131 685 131 690 c 0,176,177
 131 698 131 698 128 704 c 1,178,179
 127 709 127 709 124 721 c 0,180,181
 122 731 122 731 122 735 c 0,182,183
 122 741 122 741 125 747 c 1,184,185
 127 755 127 755 127 759 c 0,186,187
 127 764 127 764 125 770 c 0,188,189
 122 777 122 777 123 796 c 0,190,191
 123 819 123 819 125 823 c 0,192,193
 128 828 128 828 140 832 c 0,99,100
EndSplineSet
Validated: 1
EndChar
StartChar: uni00AF
Encoding: 175 175 112
GlifName: uni00A_F_
Width: 501
GlyphClass: 2
Flags: W
LayerCount: 2
Fore
SplineSet
103 721 m 1,0,1
 114 724 114 724 130 724 c 0,2,3
 150 724 150 724 152 722 c 0,4,5
 153 721 153 721 181 719 c 0,6,7
 211 717 211 717 214 717 c 0,8,9
 215 717 215 717 225.5 717.5 c 128,-1,10
 236 718 236 718 243 718 c 0,11,12
 270 718 270 718 275 717 c 0,13,14
 284 715 284 715 294 719 c 0,15,16
 303 723 303 723 321 720 c 0,17,18
 325 719 325 719 334 717.5 c 128,-1,19
 343 716 343 716 345 715 c 0,20,21
 351 712 351 712 358 712 c 0,22,23
 363 712 363 712 381 718 c 0,24,25
 397 723 397 723 406 722 c 0,26,27
 418 722 418 722 424 719 c 1,28,29
 429 718 429 718 445 718 c 0,30,31
 461 720 461 720 468 720 c 0,32,33
 478 721 478 721 480 718 c 0,34,35
 481 717 481 717 484.5 712 c 128,-1,36
 488 707 488 707 490 705 c 1,37,38
 496 695 496 695 496 687 c 0,39,40
 496 683 496 683 496 674 c 0,41,42
 494 652 494 652 493 650 c 0,43,44
 491 645 491 645 485 641 c 0,45,46
 480 637 480 637 473 635 c 0,47,48
 469 633 469 633 442 633 c 0,49,50
 420 633 420 633 406 635 c 1,51,52
 397 638 397 638 391 638 c 0,53,54
 386 638 386 638 380 634 c 0,55,56
 372 630 372 630 360 630 c 0,57,58
 355 630 355 630 334 633 c 1,59,60
 324 636 324 636 308 636 c 0,61,62
 293 636 293 636 287 633 c 1,63,64
 279 631 279 631 269 633 c 0,65,66
 257 637 257 637 249 637 c 0,67,68
 240 638 240 638 227 635 c 128,-1,69
 214 632 214 632 202 634 c 0,70,71
 192 637 192 637 181 637 c 2,72,73
 174 638 174 638 166 635 c 0,74,75
 159 632 159 632 127 632 c 0,76,77
 110 633 110 633 75 633 c 2,78,-1
 37 633 l 2,79,80
 18 633 18 633 14 635 c 0,81,82
 7 637 7 637 6 641 c 1,83,84
 3 646 3 646 3 656 c 0,85,86
 3 665 3 665 1 681 c 0,87,88
 0 690 0 690 0 692 c 0,89,90
 0 696 0 696 3 701 c 0,91,92
 7 707 7 707 11 711 c 0,93,94
 16 715 16 715 29 715 c 0,95,96
 40 715 40 715 68 717 c 0,97,98
 95 717 95 717 103 721 c 1,0,1
EndSplineSet
Validated: 1
EndChar
StartChar: uni00B5
Encoding: 181 181 118
GlifName: uni00B_5
Width: 620
GlyphClass: 2
Flags: W
LayerCount: 2
Fore
SplineSet
439 510 m 2,0,1
 446 511 446 511 456 511 c 0,2,3
 459 511 459 511 469 509 c 256,4,5
 479 507 479 507 483 503 c 1,6,7
 494 496 494 496 496 495 c 0,8,9
 504 490 504 490 507 483 c 0,10,11
 510 477 510 477 512 469 c 0,12,13
 513 463 513 463 510 455 c 0,14,15
 507 448 507 448 507 432 c 0,16,17
 507 425 507 425 507 413 c 0,18,19
 507 379 507 379 509 371 c 0,20,21
 510 368 510 368 512 346 c 0,22,23
 513 326 513 326 509 321 c 0,24,25
 505 315 505 315 505 310 c 0,26,27
 505 309 505 309 505.5 302.5 c 128,-1,28
 506 296 506 296 506.5 284 c 128,-1,29
 507 272 507 272 507 264 c 0,30,31
 507 252 507 252 507.5 226.5 c 128,-1,32
 508 201 508 201 508 193 c 0,33,34
 509 177 509 177 509 170 c 0,35,36
 509 160 509 160 507 155 c 0,37,38
 503 147 503 147 506 133 c 0,39,40
 508 119 508 119 508 96 c 0,41,42
 508 71 508 71 512 61 c 0,43,44
 516 50 516 50 516 38 c 0,45,46
 516 27 516 27 508 19 c 1,47,48
 502 11 502 11 498.5 10 c 128,-1,49
 495 9 495 9 481 10 c 0,50,51
 457 10 457 10 451 9 c 0,52,53
 440 8 440 8 435 10 c 0,54,55
 429 12 429 12 427 17 c 1,56,57
 423 23 423 23 425 31 c 1,58,-1
 425 44 l 2,59,60
 425 47 425 47 421 49 c 0,61,62
 417 52 417 52 412 49 c 1,63,-1
 407 44 l 1,64,-1
 396 31 l 1,65,66
 382 19 382 19 376 16 c 0,67,68
 368 12 368 12 359 12 c 1,69,70
 349 10 349 10 345 8 c 0,71,72
 340 5 340 5 331 3 c 0,73,74
 321 1 321 1 315 -2 c 0,75,76
 308 -6 308 -6 290 -4 c 0,77,78
 272 -4 272 -4 264 0 c 1,79,80
 252 3 252 3 249 3 c 0,81,82
 242 3 242 3 235 7 c 2,83,-1
 219 19 l 2,84,85
 210 25 210 25 205 30 c 1,86,87
 197 35 197 35 195 36 c 1,88,89
 191 37 191 37 187 36 c 128,-1,90
 183 35 183 35 181 29 c 1,91,92
 181 16 181 16 182 6 c 0,93,94
 185 -9 185 -9 185 -36 c 0,95,96
 185 -59 185 -59 187 -73 c 0,97,98
 189 -86 189 -86 187 -102 c 0,99,100
 186 -109 186 -109 186 -114 c 256,101,102
 186 -119 186 -119 190 -141 c 0,103,104
 194 -167 194 -167 194 -170 c 0,105,106
 194 -176 194 -176 191 -179 c 0,107,108
 187 -183 187 -183 175 -188 c 0,109,110
 161 -196 161 -196 159 -198 c 0,111,112
 155 -202 155 -202 152 -202 c 128,-1,113
 149 -202 149 -202 137 -198 c 128,-1,114
 125 -194 125 -194 124 -193 c 1,115,116
 124 -191 124 -191 115 -191 c 128,-1,117
 106 -191 106 -191 102 -189 c 128,-1,118
 98 -187 98 -187 96 -183 c 0,119,120
 93 -175 93 -175 92 -161 c 0,121,122
 90 -144 90 -144 95 -135 c 0,123,124
 99 -127 99 -127 99 -119 c 0,125,126
 99 -114 99 -114 98 -100 c 0,127,128
 97 -89 97 -89 97 -80 c 128,-1,129
 97 -71 97 -71 98 -68 c 0,130,131
 100 -59 100 -59 97 -54 c 1,132,133
 95 -46 95 -46 95 -24 c 0,134,135
 97 2 97 2 99 9 c 0,136,137
 102 19 102 19 100 28 c 0,138,139
 100 29 100 29 98.5 34.5 c 128,-1,140
 97 40 97 40 97 42 c 0,141,142
 97 50 97 50 94 56 c 0,143,144
 90 66 90 66 91 72 c 0,145,146
 93 82 93 82 96 88 c 0,147,148
 99 96 99 96 99 103 c 0,149,150
 99 108 99 108 95 118 c 0,151,152
 91 126 91 126 92 134 c 0,153,154
 92 141 92 141 96 151 c 0,155,156
 99 161 99 161 99 175 c 0,157,158
 99 182 99 182 99 193 c 0,159,160
 99 233 99 233 98 243 c 0,161,162
 96 260 96 260 94 267 c 0,163,164
 93 274 93 274 94 287 c 0,165,166
 95 295 95 295 98 310 c 0,167,168
 100 320 100 320 100 334 c 0,169,170
 100 341 100 341 100 352 c 0,171,172
 98 386 98 386 94 392 c 0,173,174
 90 400 90 400 90 402 c 0,175,176
 90 407 90 407 95 417 c 1,177,178
 99 429 99 429 98 441 c 0,179,180
 97 448 97 448 97 459 c 0,181,182
 97 462 97 462 99 482 c 0,183,184
 99 500 99 500 102 503 c 0,185,186
 103 504 103 504 112 506 c 0,187,188
 121 507 121 507 130 504 c 0,189,190
 140 501 140 501 150 505 c 0,191,192
 160 508 160 508 170 506 c 0,193,194
 176 504 176 504 184 500 c 1,195,196
 188 496 188 496 189 484 c 0,197,198
 191 468 191 468 192 466 c 0,199,200
 194 460 194 460 194 457 c 0,201,202
 194 453 194 453 189 446 c 1,203,204
 184 441 184 441 184 438 c 0,205,206
 184 434 184 434 189 426 c 0,207,208
 193 417 193 417 191 408 c 128,-1,209
 189 399 189 399 187 385 c 0,210,211
 186 369 186 369 183 366 c 0,212,213
 182 365 182 365 180 362 c 128,-1,214
 178 359 178 359 177 358 c 1,215,216
 175 353 175 353 176 349 c 1,217,218
 180 341 180 341 183 336 c 0,219,220
 187 330 187 330 190 322 c 0,221,222
 192 316 192 316 190 311 c 1,223,224
 190 302 190 302 191 297 c 0,225,226
 194 287 194 287 191 278 c 0,227,228
 189 270 189 270 191 265 c 0,229,230
 193 258 193 258 190 246 c 0,231,232
 187 235 187 235 189 216 c 128,-1,233
 191 197 191 197 194 191 c 1,234,235
 196 183 196 183 194 173 c 128,-1,236
 192 163 192 163 196 158 c 1,237,-1
 202 143 l 1,238,-1
 208 128 l 2,239,240
 210 122 210 122 228 106 c 0,241,242
 246 89 246 89 250 89 c 0,243,244
 256 89 256 89 269 84 c 0,245,246
 284 79 284 79 297 79 c 0,247,248
 308 79 308 79 314 81 c 0,249,250
 316 82 316 82 332 87 c 1,251,252
 343 88 343 88 352 96 c 0,253,254
 367 108 367 108 374 115 c 0,255,256
 388 127 388 127 396 135 c 0,257,258
 406 143 406 143 408 149 c 128,-1,259
 410 155 410 155 408 170 c 128,-1,260
 406 185 406 185 410 194 c 0,261,262
 415 204 415 204 413 223 c 0,263,264
 412 243 412 243 415 251 c 0,265,266
 418 258 418 258 418 274 c 0,267,268
 418 291 418 291 414 298 c 0,269,270
 410 307 410 307 414 316 c 0,271,272
 418 326 418 326 417 338 c 2,273,-1
 417 358 l 2,274,275
 417 363 417 363 419 377 c 0,276,277
 420 387 420 387 413 407 c 0,278,279
 407 428 407 428 409 435 c 0,280,281
 411 443 411 443 411 447 c 128,-1,282
 411 451 411 451 413 459 c 1,283,284
 417 465 417 465 414 474 c 0,285,286
 412 484 412 484 417 494 c 1,287,288
 420 503 420 503 424 507 c 0,289,290
 427 510 427 510 439 510 c 2,0,1
EndSplineSet
Validated: 1
EndChar
StartChar: uni00B9
Encoding: 185 185 122
GlifName: uni00B_9
Width: 375
GlyphClass: 2
Flags: W
LayerCount: 2
Fore
SplineSet
211 764 m 0,0,1
 219 767 219 767 227 767 c 256,2,3
 235 767 235 767 236 766 c 2,4,5
 238 766 238 766 242 758 c 1,6,7
 247 753 247 753 247 747 c 0,8,9
 247 742 247 742 244 734 c 1,10,11
 242 724 242 724 242 719 c 0,12,13
 242 711 242 711 245 705 c 1,14,15
 247 694 247 694 246 690 c 2,16,17
 246 688 246 688 245 681 c 128,-1,18
 244 674 244 674 244 669 c 1,19,20
 242 655 242 655 240 646 c 0,21,22
 239 638 239 638 240 627 c 0,23,24
 242 615 242 615 242 580 c 0,25,26
 242 537 242 537 243 529 c 0,27,28
 243 510 243 510 242 502 c 1,29,30
 239 492 239 492 239 475 c 0,31,32
 238 467 238 467 238 446 c 0,33,34
 238 430 238 430 242 419 c 2,35,36
 243 412 243 412 249 397 c 1,37,38
 254 390 254 390 254 383 c 0,39,40
 254 378 254 378 250 372 c 0,41,42
 245 365 245 365 245 361 c 0,43,44
 245 358 245 358 241 354 c 0,45,46
 236 350 236 350 232 348 c 2,47,48
 231 347 231 347 222 344 c 1,49,50
 221 344 221 344 219 344 c 0,51,52
 215 344 215 344 206 348 c 0,53,54
 201 350 201 350 192 356 c 0,55,56
 186 359 186 359 182 359 c 0,57,58
 177 359 177 359 171 361 c 2,59,60
 170 361 170 361 167.5 362.5 c 128,-1,61
 165 364 165 364 164 365 c 1,62,63
 163 367 163 367 163 384 c 0,64,65
 165 401 165 401 167 404 c 128,-1,66
 169 407 169 407 169 419 c 0,67,68
 169 430 169 430 173 437 c 0,69,70
 176 444 176 444 175 453 c 0,71,72
 175 463 175 463 170 470 c 1,73,74
 166 478 166 478 166 483 c 0,75,76
 166 491 166 491 169 500 c 1,77,78
 171 511 171 511 167 520 c 256,79,80
 163 529 163 529 163 538 c 1,81,82
 164 543 164 543 164 567 c 0,83,84
 164 571 164 571 165 584.5 c 128,-1,85
 166 598 166 598 167 603 c 0,86,87
 169 622 169 622 168 627 c 0,88,89
 167 634 167 634 170 646 c 256,90,91
 173 658 173 658 170 663 c 1,92,93
 165 668 165 668 163 669 c 0,94,95
 158 671 158 671 155 669 c 0,96,97
 149 666 149 666 145 661 c 1,98,99
 138 656 138 656 133 654 c 0,100,101
 126 650 126 650 116 642 c 0,102,103
 105 631 105 631 97 627 c 0,104,105
 91 624 91 624 84 624 c 0,106,107
 79 624 79 624 75 628 c 0,108,109
 70 633 70 633 68 640 c 0,110,111
 66 646 66 646 66 650 c 0,112,113
 66 653 66 653 67 661 c 0,114,115
 68 674 68 674 67 684 c 0,116,117
 66 691 66 691 66 693 c 0,118,119
 66 696 66 696 69 702 c 0,120,121
 73 710 73 710 78 712 c 0,122,123
 82 714 82 714 91 712 c 1,124,125
 97 709 97 709 104 709 c 0,126,127
 109 709 109 709 118 718 c 0,128,129
 128 728 128 728 134 731 c 1,130,131
 136 733 136 733 154 748 c 0,132,133
 166 760 166 760 173 762 c 0,134,135
 179 764 179 764 185 763 c 1,136,137
 188 761 188 761 197 761 c 0,138,139
 205 761 205 761 211 764 c 0,0,1
EndSplineSet
Validated: 1
EndChar
StartChar: uni00BA
Encoding: 186 186 123
GlifName: uni00B_A_
Width: 369
GlyphClass: 2
Flags: W
LayerCount: 2
Fore
SplineSet
221 679 m 0,0,1
 215 681 215 681 207 681 c 128,-1,2
 199 681 199 681 189 677 c 0,3,4
 182 673 182 673 173 673 c 0,5,6
 165 673 165 673 161 668 c 0,7,8
 156 663 156 663 156 658 c 1,9,10
 154 650 154 650 149 643 c 0,11,12
 143 636 143 636 139 625 c 0,13,14
 134 602 134 602 134 598 c 0,15,16
 132 577 132 577 129 570 c 0,17,18
 126 562 126 562 126 557 c 0,19,20
 126 555 126 555 128 549 c 1,21,22
 132 541 132 541 133 536 c 0,23,24
 136 527 136 527 140 519 c 1,25,26
 145 512 145 512 145 505 c 1,27,28
 146 498 146 498 151 495 c 2,29,-1
 158 492 l 2,30,31
 164 490 164 490 168 489 c 0,32,33
 182 484 182 484 185 481 c 0,34,35
 191 476 191 476 198 473 c 0,36,37
 204 471 204 471 217 471 c 2,38,39
 223 470 223 470 225 470 c 0,40,41
 230 470 230 470 234 474 c 1,42,-1
 242 480 l 2,43,44
 249 485 249 485 254 488 c 0,45,46
 269 498 269 498 270 503 c 0,47,48
 272 509 272 509 280 517 c 128,-1,49
 288 525 288 525 289 533 c 0,50,51
 289 534 289 534 291 542 c 128,-1,52
 293 550 293 550 294 555 c 128,-1,53
 295 560 295 560 296.5 568.5 c 128,-1,54
 298 577 298 577 298 578 c 0,55,56
 298 586 298 586 294 600 c 2,57,-1
 288 618 l 2,58,59
 285 625 285 625 286 630 c 128,-1,60
 287 635 287 635 285 644 c 0,61,62
 283 652 283 652 279 656 c 1,63,64
 276 660 276 660 268 662 c 1,65,66
 263 662 263 662 251 668 c 0,67,68
 237 675 237 675 234 675 c 1,69,70
 230 676 230 676 221 679 c 0,0,1
199 735 m 128,-1,72
 204 738 204 738 208 738 c 128,-1,73
 212 738 212 738 218 735 c 0,74,75
 225 732 225 732 236 734 c 0,76,77
 246 737 246 737 258 734 c 0,78,79
 279 731 279 731 280 731 c 0,80,81
 293 729 293 729 295 727 c 2,82,83
 300 725 300 725 303 718 c 1,84,85
 308 710 308 710 313 705 c 1,86,87
 320 700 320 700 325 699 c 0,88,89
 332 697 332 697 335 694 c 128,-1,90
 338 691 338 691 340 685 c 1,91,92
 345 675 345 675 348 671 c 0,93,94
 354 662 354 662 356 656 c 0,95,96
 357 654 357 654 359.5 648.5 c 128,-1,97
 362 643 362 643 363 641 c 0,98,99
 366 633 366 633 368 622 c 0,100,101
 371 607 371 607 371 598 c 2,102,103
 372 591 372 591 372 585.5 c 128,-1,104
 372 580 372 580 371 578 c 0,105,106
 369 572 369 572 369 551 c 0,107,108
 369 529 369 529 365 514 c 0,109,110
 362 505 362 505 356 492 c 0,111,112
 352 485 352 485 343 474 c 0,113,114
 336 465 336 465 328 462 c 0,115,116
 321 459 321 459 310 448 c 0,117,118
 301 437 301 437 294 435 c 128,-1,119
 287 433 287 433 276 424 c 128,-1,120
 265 415 265 415 252 414 c 0,121,122
 233 414 233 414 226 415 c 2,123,-1
 205 418 l 2,124,125
 197 420 197 420 182 420 c 0,126,127
 168 419 168 419 158 422 c 2,128,129
 156 422 156 422 149 424.5 c 128,-1,130
 142 427 142 427 139 428 c 0,131,132
 132 432 132 432 120 434 c 0,133,134
 112 436 112 436 109 439 c 0,135,136
 108 440 108 440 103 449 c 0,137,138
 99 457 99 457 92 461 c 1,139,140
 83 468 83 468 80 472 c 0,141,142
 78 474 78 474 70 487 c 1,143,144
 68 493 68 493 61 503 c 0,145,146
 56 510 56 510 56 516 c 0,147,148
 56 521 56 521 58 527 c 0,149,150
 60 531 60 531 57 540 c 2,151,152
 56 546 56 546 49 557 c 0,153,154
 44 567 44 567 44 569 c 128,-1,155
 44 571 44 571 50 591 c 0,156,157
 58 611 58 611 59 613 c 0,158,159
 62 619 62 619 62 630 c 0,160,161
 62 643 62 643 67 650 c 1,162,163
 72 660 72 660 72 665 c 0,164,165
 72 673 72 673 83 685 c 0,166,167
 86 688 86 688 99 702 c 0,168,169
 102 705 102 705 107 705 c 0,170,171
 110 705 110 705 114 707 c 1,172,173
 119 711 119 711 122 717 c 1,174,175
 124 725 124 725 128 727 c 0,176,177
 133 730 133 730 139 729 c 0,178,179
 147 727 147 727 153 727 c 1,180,181
 160 726 160 726 165 730 c 0,182,183
 170 735 170 735 175 735 c 0,184,185
 179 735 179 735 187 733 c 0,186,71
 194 732 194 732 199 735 c 128,-1,72
EndSplineSet
Validated: 1
EndChar
StartChar: uni00CF
Encoding: 207 207 144
GlifName: uni00C_F_
Width: 287
GlyphClass: 2
Flags: W
LayerCount: 2
Fore
SplineSet
103 699 m 1,0,1
 106 702 106 702 124 702 c 0,2,3
 140 702 140 702 150 700 c 0,4,5
 158 698 158 698 168 700 c 0,6,7
 178 701 178 701 183 700 c 0,8,9
 190 698 190 698 191 694 c 0,10,11
 193 688 193 688 193 661 c 0,12,13
 195 632 195 632 197 626 c 0,14,15
 199 618 199 618 199 609 c 0,16,17
 199 608 199 608 196 590 c 1,18,19
 192 578 192 578 192 573 c 0,20,21
 192 567 192 567 196 561 c 0,22,23
 200 553 200 553 200 544 c 2,24,25
 201 537 201 537 199 529 c 1,26,27
 195 521 195 521 195 507 c 0,28,29
 193 491 193 491 193 485 c 0,30,31
 193 484 193 484 195 428 c 0,32,33
 195 416 195 416 195 403 c 128,-1,34
 195 390 195 390 195.5 382 c 128,-1,35
 196 374 196 374 196 373 c 0,36,37
 196 365 196 365 193 359 c 0,38,39
 190 351 190 351 193 340 c 0,40,41
 196 331 196 331 196 317 c 0,42,43
 196 300 196 300 195 294 c 0,44,45
 195 291 195 291 195.5 285 c 128,-1,46
 196 279 196 279 196 277 c 0,47,48
 197 268 197 268 195 263 c 0,49,50
 192 256 192 256 194 251 c 1,51,52
 194 237 194 237 193 226 c 0,53,54
 191 204 191 204 191 193 c 128,-1,55
 191 182 191 182 195 160 c 0,56,57
 197 145 197 145 197 141.5 c 128,-1,58
 197 138 197 138 194 134 c 0,59,60
 190 129 190 129 191 111 c 0,61,62
 193 91 193 91 193 77 c 0,63,64
 194 68 194 68 194 50 c 0,65,66
 194 40 194 40 198 31 c 0,67,68
 202 23 202 23 202 18 c 0,69,70
 202 11 202 11 197 3 c 0,71,72
 193 -3 193 -3 186 -5 c 0,73,74
 178 -8 178 -8 170 -7 c 2,75,76
 161.5 -5 l 130,-1,77
 153 -3 153 -3 149 -2 c 0,78,79
 135 2 135 2 127 0 c 0,80,81
 112 -3 112 -3 111 -3 c 0,82,83
 103 -3 103 -3 99 -5 c 0,84,85
 94 -8 94 -8 90 -8 c 0,86,87
 88 -8 88 -8 84 -4 c 0,88,89
 82 -1 82 -1 82 23 c 0,90,91
 82 46 82 46 85 51 c 2,92,93
 85 52 85 52 88 62 c 1,94,95
 88 64 88 64 89.5 69.5 c 128,-1,96
 91 75 91 75 92 77 c 1,97,98
 94 86 94 86 89 99 c 0,99,100
 88 102 88 102 86 109.5 c 128,-1,101
 84 117 84 117 83 119 c 0,102,103
 80 126 80 126 83 131 c 1,104,105
 86 140 86 140 87 145 c 2,106,107
 88 147 88 147 89 155 c 128,-1,108
 90 163 90 163 90 164 c 0,109,110
 90 181 90 181 89 188 c 0,111,112
 87 201 87 201 83 204 c 1,113,114
 80 208 80 208 80 211 c 0,115,116
 80 216 80 216 84 234 c 0,117,118
 86 250 86 250 89 257 c 0,119,120
 92 268 92 268 91 275 c 1,121,122
 85 293 l 1,123,124
 80 301 80 301 80 307 c 0,125,126
 80 312 80 312 84 316 c 0,127,128
 87 319 87 319 87 329 c 0,129,130
 87 331 87 331 86.5 338.5 c 128,-1,131
 86 346 86 346 86 349 c 0,132,133
 84 360 84 360 82 364 c 1,134,135
 80 366 80 366 80 374 c 0,136,137
 80 379 80 379 82 387 c 1,138,139
 84 390 84 390 86 403 c 1,140,141
 86 416 86 416 85 420 c 0,142,143
 83 428 83 428 86 432 c 0,144,145
 90 437 90 437 92 441 c 0,146,147
 94 447 94 447 87 471 c 0,148,149
 82 493 82 493 82 497 c 0,150,151
 82 500 82 500 85 506 c 0,152,153
 90 516 90 516 90 522 c 0,154,155
 90 529 90 529 88 533 c 0,156,157
 87 535 87 535 85 549 c 128,-1,158
 83 563 83 563 83 608 c 0,159,160
 83 654 83 654 85 662 c 0,161,162
 88 670 88 670 92 676 c 1,163,-1
 98 691 l 2,164,165
 100 698 100 698 103 699 c 1,0,1
194 874 m 1,166,-1
 222 874 l 2,167,168
 233 873 233 873 253 873 c 1,169,170
 256 872 256 872 264.5 871 c 128,-1,171
 273 870 273 870 276 870 c 1,172,173
 288 867 288 867 288 864 c 1,174,175
 290 862 290 862 285 853 c 0,176,177
 282 847 282 847 281 822 c 0,178,179
 281 801 281 801 283 785 c 0,180,181
 284 770 284 770 282 767 c 2,182,183
 281 763 281 763 275 760 c 0,184,185
 270 757 270 757 252 755 c 0,186,187
 233 753 233 753 224 755 c 0,188,189
 212 757 212 757 201 757 c 256,190,191
 190 757 190 757 183 761 c 1,192,193
 179 765 179 765 175 771 c 1,194,195
 173 779 173 779 173 787 c 0,196,197
 173 799 173 799 176 811 c 0,198,199
 178 826 178 826 176 837 c 1,200,201
 172 847 172 847 174 855 c 1,202,203
 174 861 174 861 181 868 c 0,204,205
 186 872 186 872 194 874 c 1,166,-1
6 873 m 0,206,207
 8 874 8 874 25 874 c 0,208,209
 38 874 38 874 70 872 c 0,210,211
 98 871 98 871 101 867 c 1,212,213
 104 861 104 861 104 855 c 0,214,215
 104 853 104 853 107 832 c 0,216,217
 108 820 108 820 103 809 c 0,218,219
 98 799 98 799 98 785 c 0,220,221
 99 772 99 772 94 763 c 0,222,223
 88 755 88 755 84 755 c 1,224,225
 78 753 78 753 65 756 c 0,226,227
 50 758 50 758 39 754 c 0,228,229
 27 750 27 750 24 750 c 1,230,-1
 12 753 l 1,231,232
 2 758 2 758 1 759 c 0,233,234
 -2 762 -2 762 -1 781 c 0,235,236
 0 790 0 790 0 796 c 0,237,238
 0 808 0 808 -2 815 c 1,239,240
 -3 824 -3 824 -3 827 c 0,241,242
 -3 832 -3 832 0 840 c 0,243,244
 3 849 3 849 3 861 c 0,245,246
 3 872 3 872 6 873 c 0,206,207
EndSplineSet
Validated: 524289
EndChar
StartChar: uni00D2
Encoding: 210 210 147
GlifName: uni00D_2
Width: 763
GlyphClass: 2
Flags: W
LayerCount: 2
Fore
SplineSet
385 631 m 0,0,1
 379 633 379 633 369 633 c 2,2,3
 365 634 365 634 361 634 c 0,4,5
 355 634 355 634 352 632 c 2,6,7
 348 631 348 631 338 626 c 0,8,9
 331 623 331 623 323 621 c 0,10,11
 322 621 322 621 300 616 c 0,12,13
 285 611 285 611 277 604 c 0,14,15
 269 596 269 596 267 596 c 128,-1,16
 265 596 265 596 254 585 c 0,17,18
 245 574 245 574 235 567 c 0,19,20
 226 559 226 559 224 549 c 0,21,22
 220 535 220 535 212 522 c 2,23,-1
 199 497 l 2,24,25
 195 489 195 489 195 485 c 128,-1,26
 195 481 195 481 189 469 c 0,27,28
 183 458 183 458 181 452 c 1,29,30
 180 444 180 444 181 439 c 1,31,32
 183 437 183 437 183 418 c 0,33,34
 183 402 183 402 178 389 c 0,35,36
 174 375 174 375 174 369 c 2,37,-1
 174 352 l 1,38,-1
 174 325 l 2,39,40
 174 317 174 317 177 296 c 0,41,42
 180 282 180 282 178 278 c 0,43,44
 176 272 176 272 176 267 c 0,45,46
 176 264 176 264 187 248 c 0,47,48
 198 233 198 233 199 217 c 0,49,50
 200 203 200 203 205 192 c 0,51,52
 206 190 206 190 209.5 184.5 c 128,-1,53
 213 179 213 179 214 177 c 1,54,55
 218 173 218 173 223 161 c 1,56,57
 223 160 223 160 227 153 c 128,-1,58
 231 146 231 146 233 144 c 2,59,60
 237 137 237 137 245 131 c 1,61,62
 246 131 246 131 260 120 c 0,63,64
 267 113 267 113 271 107 c 128,-1,65
 275 101 275 101 279 99 c 2,66,67
 280 98 280 98 294 94 c 1,68,69
 297 94 297 94 304.5 92 c 128,-1,70
 312 90 312 90 315 90 c 1,71,72
 328 87 328 87 334 85 c 0,73,74
 343 81 343 81 357 81 c 0,75,76
 369 82 369 82 377 79 c 0,77,78
 387 75 387 75 389 75 c 0,79,80
 393 75 393 75 400 80 c 0,81,82
 408 85 408 85 424 85 c 2,83,-1
 445 85 l 1,84,-1
 449 88 l 2,85,86
 453 91 453 91 455 93 c 0,87,88
 462 100 462 100 478 108 c 128,-1,89
 494 116 494 116 503 126 c 1,90,-1
 515 136 l 1,91,92
 516 136 516 136 525 147 c 2,93,-1
 536 163 l 2,94,95
 537 164 537 164 547 177 c 0,96,97
 553 186 553 186 553 192 c 0,98,99
 553 196 553 196 557 210 c 0,100,101
 562 229 562 229 565 234 c 1,102,103
 569 246 569 246 569 250 c 0,104,105
 569 255 569 255 574 270 c 0,106,107
 580 286 580 286 579 295 c 0,108,109
 577 305 577 305 577 320 c 0,110,111
 576 336 576 336 580 345 c 0,112,113
 585 355 585 355 585 369 c 0,114,115
 585 376 585 376 585 378 c 0,116,117
 585 385 585 385 580 395 c 0,118,119
 574 407 574 407 574 409 c 0,120,121
 574 414 574 414 577 418 c 1,122,123
 579 425 579 425 576 432 c 0,124,125
 572 439 572 439 574 461 c 0,126,127
 576 484 576 484 575 487 c 0,128,129
 573 492 573 492 566 503 c 0,130,131
 557 517 557 517 554 528 c 1,132,133
 548 541 548 541 541 554 c 0,134,135
 535 566 535 566 527 571 c 1,136,137
 520 574 520 574 516 581 c 1,138,139
 515 585 515 585 508 590 c 0,140,141
 506 591 506 591 496 598 c 1,142,143
 490 604 490 604 472 612 c 2,144,-1
 448 620 l 1,145,146
 443 620 443 620 433 625 c 0,147,148
 425 630 425 630 409 629 c 0,149,150
 393 629 393 629 385 631 c 0,0,1
306 722 m 0,151,152
 317 724 317 724 322 723 c 2,153,154
 327 723 327 723 341 721 c 256,155,156
 355 719 355 719 356 718 c 1,157,158
 360 716 360 716 364 716 c 0,159,160
 372 716 372 716 379 719 c 0,161,162
 390 723 390 723 399 721 c 0,163,164
 409 719 409 719 416 722 c 0,165,166
 421 724 421 724 439 724 c 0,167,168
 458 722 458 722 469 718 c 0,169,170
 480 715 480 715 493 710 c 0,171,172
 504 706 504 706 508 703 c 1,173,174
 513 698 513 698 528 696 c 0,175,176
 545 692 545 692 550 687 c 1,177,178
 557 682 557 682 564 680 c 0,179,180
 572 678 572 678 583.5 666.5 c 128,-1,181
 595 655 595 655 605 650 c 0,182,183
 612 646 612 646 614.5 643.5 c 128,-1,184
 617 641 617 641 623 630 c 0,185,186
 631 614 631 614 637 611 c 256,187,188
 643 608 643 608 650 593 c 2,189,-1
 661 564 l 2,190,191
 662 560 662 560 665.5 551 c 128,-1,192
 669 542 669 542 670 540 c 0,193,194
 674 532 674 532 676 513 c 0,195,196
 679 494 679 494 682 489 c 0,197,198
 686 482 686 482 688 470 c 1,199,200
 688 458 688 458 692 454 c 1,201,202
 692 453 692 453 694 450 c 128,-1,203
 696 447 696 447 697 446 c 0,204,205
 701 439 701 439 703 423 c 0,206,207
 705 411 705 411 705 405 c 0,208,209
 705 400 705 400 704 393 c 0,210,211
 702 381 702 381 702 364 c 0,212,213
 702 349 702 349 699 337 c 1,214,215
 695 328 695 328 695 309 c 0,216,217
 695 291 695 291 693 285 c 0,218,219
 692 283 692 283 690 278.5 c 128,-1,220
 688 274 688 274 688 273 c 2,221,222
 685 268 685 268 688 259 c 0,223,224
 691 251 691 251 688 243 c 1,225,226
 686 232 686 232 683 225 c 0,227,228
 678 212 678 212 677 209 c 0,229,230
 675 203 675 203 673 198 c 0,231,232
 672 196 672 196 670 178 c 0,233,234
 670 162 670 162 665 154 c 0,235,236
 658 142 658 142 657 139 c 0,237,238
 656 135 656 135 649 124 c 0,239,240
 644 115 644 115 643 114 c 1,241,242
 642 111 642 111 640 108 c 0,243,244
 636 104 636 104 628 98 c 0,245,246
 622 94 622 94 614 81 c 0,247,248
 607 66 607 66 604 65 c 1,249,250
 601 62 601 62 589 57 c 0,251,252
 575 52 575 52 565 40 c 0,253,254
 552 27 552 27 550 27 c 0,255,256
 547 27 547 27 544 20 c 1,257,258
 538 12 538 12 534 11 c 0,259,260
 528 9 528 9 520 11 c 0,261,262
 513 13 513 13 502 9 c 256,263,264
 491 5 491 5 485 0 c 256,265,266
 479 -5 479 -5 469 -7 c 0,267,268
 467 -7 467 -7 460.5 -8.5 c 128,-1,269
 454 -10 454 -10 451 -11 c 0,270,271
 443 -14 443 -14 437 -14 c 0,272,273
 432 -14 432 -14 424 -13 c 0,274,275
 408 -12 408 -12 390 -12 c 0,276,277
 381 -12 381 -12 374 -12 c 0,278,279
 340 -12 340 -12 335 -10 c 0,280,281
 327 -8 327 -8 310 -8 c 0,282,283
 294 -8 294 -8 283 -3 c 0,284,285
 273 3 273 3 253 8 c 0,286,287
 234 15 234 15 228 15 c 0,288,289
 223 15 223 15 216 20 c 1,290,291
 214 23 214 23 201 33 c 2,292,-1
 191 41 l 1,293,294
 189 41 189 41 179 46 c 2,295,296
 170 49 170 49 164 52 c 1,297,298
 157 57 157 57 155 61 c 256,299,300
 153 65 153 65 142 76 c 0,301,302
 131 85 131 85 129 89 c 2,303,304
 124 94 124 94 123 101 c 1,305,306
 119 109 119 109 114 111 c 0,307,308
 110 113 110 113 107 115 c 1,309,310
 105 119 105 119 105 127 c 1,311,312
 104 131 104 131 102.5 138 c 128,-1,313
 101 145 101 145 101 146 c 1,314,315
 97 156 97 156 93 160 c 0,316,317
 89 165 89 165 89 178 c 0,318,319
 88 191 88 191 83 198 c 1,320,321
 78 203 78 203 76 214 c 0,322,323
 74 224 74 224 74 232 c 128,-1,324
 74 240 74 240 69 245 c 0,325,326
 64 251 64 251 64 269 c 0,327,328
 64 284 64 284 68 304 c 0,329,330
 71 318 71 318 71 325 c 0,331,332
 71 330 71 330 65 336 c 0,333,334
 60 341 60 341 58 360 c 0,335,336
 58 379 58 379 59 382 c 1,337,338
 60 383 60 383 61.5 390.5 c 128,-1,339
 63 398 63 398 64 400 c 0,340,341
 68 414 68 414 67 430 c 0,342,343
 65 445 65 445 68 454 c 2,344,345
 68 457 68 457 70 465 c 128,-1,346
 72 473 72 473 73 477 c 0,347,348
 75 488 75 488 79 495 c 0,349,350
 83 503 83 503 83 504 c 0,351,352
 83 508 83 508 86 514 c 0,353,354
 89 522 89 522 89 531 c 256,355,356
 89 540 89 540 99 561 c 0,357,358
 112 585 112 585 117 590 c 1,359,-1
 124 600 l 1,360,361
 124 603 124 603 131 613.5 c 128,-1,362
 138 624 138 624 138 626 c 256,363,364
 138 628 138 628 145 635 c 0,365,366
 154 642 154 642 166 649 c 0,367,368
 176 655 176 655 184 660 c 1,369,370
 189 665 189 665 196 667 c 0,371,372
 204 669 204 669 206 671 c 1,373,374
 206 672 206 672 208 675.5 c 128,-1,375
 210 679 210 679 211 680 c 2,376,377
 214 687 214 687 221 691 c 0,378,379
 223 692 223 692 229 694 c 128,-1,380
 235 696 235 696 237 697 c 2,381,382
 246 699 246 699 252 703 c 0,383,384
 262 708 262 708 266 708 c 1,385,386
 270 709 270 709 285 714 c 0,387,388
 298 720 298 720 306 722 c 0,151,152
316 909 m 0,389,390
 323 913 323 913 328 913 c 0,391,392
 331 913 331 913 335 912 c 2,393,394
 344 912 344 912 350 908 c 0,395,396
 352 907 352 907 362 900 c 1,397,398
 368 894 368 894 370 894 c 0,399,400
 374 894 374 894 375 891 c 2,401,402
 379 889 379 889 379 884 c 0,403,404
 379 877 379 877 380 873 c 0,405,406
 382 867 382 867 389 860 c 128,-1,407
 396 853 396 853 396 851 c 128,-1,408
 396 849 396 849 403 842 c 1,409,410
 407 836 407 836 412 827 c 0,411,412
 417 815 417 815 422 807 c 0,413,414
 430 794 430 794 430 782 c 0,415,416
 431 773 431 773 430.5 771 c 128,-1,417
 430 769 430 769 425 766 c 1,418,419
 420 761 420 761 403 757 c 0,420,421
 388 752 388 752 382 752 c 256,422,423
 376 752 376 752 371 755 c 2,424,425
 365 757 365 757 358 764 c 0,426,427
 353 768 353 768 344 781 c 0,428,429
 338 792 338 792 330 797 c 256,430,431
 322 802 322 802 315 813 c 0,432,433
 307 825 307 825 301 831 c 0,434,435
 291 841 291 841 289 844 c 0,436,437
 286 850 286 850 277 857 c 2,438,-1
 262 868 l 2,439,440
 254 874 254 874 252 878 c 0,441,442
 249 883 249 883 249 888 c 0,443,444
 249 896 249 896 250 898 c 1,445,446
 251 902 251 902 257 906 c 1,447,448
 262 908 262 908 272 910 c 0,449,450
 283 911 283 911 294 908 c 0,451,452
 303 905 303 905 305.5 905 c 128,-1,453
 308 905 308 905 316 909 c 0,389,390
EndSplineSet
Validated: 1
EndChar
StartChar: uni00D6
Encoding: 214 214 151
GlifName: uni00D_6
Width: 754
GlyphClass: 2
Flags: W
LayerCount: 2
Fore
SplineSet
417 630 m 1,0,1
 407 630 407 630 391 632 c 2,2,-1
 365 632 l 1,3,4
 362 631 362 631 354.5 630 c 128,-1,5
 347 629 347 629 344 629 c 0,6,7
 332 627 332 627 326 627 c 0,8,9
 324 627 324 627 319.5 626.5 c 128,-1,10
 315 626 315 626 314 626 c 0,11,12
 310 626 310 626 297 615 c 0,13,14
 286 604 286 604 280 602 c 1,15,-1
 270 602 l 1,16,17
 265 603 265 603 262.5 601 c 128,-1,18
 260 599 260 599 251 590 c 0,19,20
 238 574 238 574 232 566 c 0,21,22
 224 556 224 556 222 549 c 0,23,24
 220 541 220 541 212 530 c 0,25,26
 204 517 204 517 201 515 c 0,27,28
 199 514 199 514 195 506 c 0,29,30
 191 500 191 500 189 484 c 0,31,32
 184 463 184 463 184 462 c 1,33,34
 183 460 183 460 176 453 c 1,35,36
 169 449 169 449 169 444 c 0,37,38
 169 437 169 437 172 433 c 0,39,40
 173 431 173 431 176 423 c 0,41,42
 177 420 177 420 178 418 c 1,43,44
 180 410 180 410 173 390 c 0,45,46
 168 371 168 371 168 364 c 0,47,48
 168 361 168 361 168 356 c 0,49,50
 170 340 170 340 173 331 c 0,51,52
 174 328 174 328 175.5 321 c 128,-1,53
 177 314 177 314 177 312 c 0,54,55
 178 306 178 306 178 284 c 0,56,57
 177 267 177 267 180 259 c 0,58,59
 183 253 183 253 183 248 c 0,60,61
 183 245 183 245 185 235 c 1,62,63
 188 228 188 228 195 219 c 0,64,65
 199 215 199 215 205 206 c 1,66,67
 207 200 207 200 207 193 c 0,68,69
 207 184 207 184 211 179 c 0,70,71
 216 174 216 174 218 166 c 0,72,73
 219 160 219 160 229 147 c 0,74,75
 231 144 231 144 235 138.5 c 128,-1,76
 239 133 239 133 240 132 c 0,77,78
 246 126 246 126 252 122 c 0,79,80
 263 113 263 113 270 113 c 1,81,82
 276 112 276 112 280 104 c 128,-1,83
 284 96 284 96 285 95 c 1,84,85
 288.5 94.5 l 130,-1,86
 292 94 292 94 294 94 c 0,87,88
 295 94 295 94 314 91 c 0,89,90
 323 90 323 90 331 87 c 0,91,92
 334 86 334 86 372 84 c 0,93,94
 391 83 391 83 399 83 c 0,95,96
 411 83 411 83 416 85 c 1,97,98
 426 87 426 87 434 87 c 0,99,100
 443 87 443 87 451 95 c 0,101,102
 460 104 460 104 464 105 c 0,103,104
 470 107 470 107 481 113 c 0,105,106
 485 115 485 115 503 127 c 0,107,108
 514 136 514 136 517 143 c 0,109,110
 519 148 519 148 527 156 c 1,111,112
 534 161 534 161 539 170 c 2,113,-1
 550 191 l 2,114,115
 556 204 556 204 557 217 c 0,116,117
 559 235 559 235 563 245 c 0,118,119
 569 259 569 259 570 273 c 0,120,121
 570 281 570 281 573 296 c 0,122,123
 574 303 574 303 579 312 c 0,124,125
 583 320 583 320 583 338 c 2,126,-1
 583 365 l 2,127,128
 583 373 583 373 579 379 c 0,129,130
 576 382 576 382 574 391 c 128,-1,131
 572 400 572 400 574 412 c 0,132,133
 577 425 577 425 574 432 c 1,134,135
 573 439 573 439 574 449 c 0,136,137
 576 460 576 460 572 465 c 0,138,139
 568 471 568 471 565 477 c 1,140,141
 562 488 562 488 561 497 c 0,142,143
 560 508 560 508 555 517 c 128,-1,144
 550 526 550 526 543 535 c 0,145,146
 536 546 536 546 536 548 c 0,147,148
 536 552 536 552 524 562 c 0,149,150
 512 575 512 575 511 582 c 0,151,152
 509 589 509 589 501 596 c 0,153,154
 492 606 492 606 487 607 c 0,155,156
 481 609 481 609 475 612 c 1,157,158
 473 614 473 614 455 618 c 0,159,160
 443 620 443 620 434 624 c 1,161,162
 428 628 428 628 417 630 c 1,0,1
368 724 m 0,163,164
 380 730 380 730 386 730 c 128,-1,165
 392 730 392 730 398 726 c 0,166,167
 406 722 406 722 429 721 c 0,168,169
 461 719 461 719 466 718 c 0,170,171
 475 717 475 717 483 714 c 0,172,173
 489 712 489 712 492 712 c 0,174,175
 498 712 498 712 504 706 c 0,176,177
 510 701 510 701 520 698 c 0,178,179
 530 696 530 696 535 691 c 1,180,181
 543 686 543 686 549 686 c 0,182,183
 558 686 558 686 566 677 c 0,184,185
 577 663 577 663 578 662 c 0,186,187
 582 655 582 655 585 653 c 2,188,-1
 593 649 l 1,189,190
 596 649 596 649 605 642 c 0,191,192
 611 638 611 638 618 623 c 0,193,194
 625 609 625 609 627 607 c 1,195,-1
 631 599 l 1,196,197
 633 593 633 593 638 590 c 0,198,199
 646 584 646 584 647 583 c 2,200,201
 651 581 651 581 657 566 c 0,202,203
 664 551 664 551 667 536 c 0,204,205
 669 522 669 522 673.5 513 c 128,-1,206
 678 504 678 504 682 498 c 0,207,208
 687 492 687 492 686 483 c 0,209,210
 684 473 684 473 684 468 c 0,211,212
 684 461 684 461 687 452 c 0,213,214
 690 440 690 440 690 414 c 0,215,216
 690 386 690 386 694 378 c 0,217,218
 698 372 698 372 698 366 c 0,219,220
 698 363 698 363 697 356 c 0,221,222
 695 341 695 341 692 333 c 0,223,224
 689 326 689 326 690 319 c 1,225,226
 692 313 692 313 692 293 c 0,227,228
 693 278 693 278 692.5 274.5 c 128,-1,229
 692 271 692 271 687 266 c 1,230,231
 681 258 681 258 681 257 c 0,232,233
 681 253 681 253 684 252 c 1,234,235
 687 249 687 249 687 246 c 2,236,237
 688 243 688 243 684 227 c 0,238,239
 681 217 681 217 674 205 c 1,240,241
 671 202 671 202 665 189 c 1,242,243
 665 187 665 187 663.5 181.5 c 128,-1,244
 662 176 662 176 661 174 c 1,245,246
 661 170 661 170 656 158 c 0,247,248
 652 150 652 150 652 148 c 0,249,250
 652 145 652 145 645 138 c 0,251,252
 637 130 637 130 636 122 c 1,253,254
 633 112 633 112 627 108 c 1,255,256
 622 103 622 103 620 103 c 0,257,258
 617 103 617 103 615 99 c 0,259,260
 612 93 612 93 611 89 c 0,261,262
 609 82 609 82 604 76 c 0,263,264
 600 71 600 71 590 61 c 2,265,266
 585 54 585 54 575 48 c 2,267,-1
 557 37 l 1,268,269
 548 34 548 34 538 24 c 1,270,271
 523 14 523 14 513 9 c 0,272,273
 495 1 495 1 492 0 c 1,274,275
 484 0 484 0 479 1 c 0,276,277
 470 2 470 2 460 -1 c 0,278,279
 445 -6 445 -6 441 -9 c 0,280,281
 434 -13 434 -13 422 -10 c 0,282,283
 410 -8 410 -8 404 -10 c 0,284,285
 396 -13 396 -13 389 -14 c 0,286,287
 386 -14 386 -14 384 -14 c 0,288,289
 379 -14 379 -14 370 -11 c 0,290,291
 360 -8 360 -8 351 -10 c 0,292,293
 341 -13 341 -13 322 -12 c 0,294,295
 314 -12 314 -12 284 -9 c 0,296,297
 265 -7 265 -7 259 -4 c 0,298,299
 255 -2 255 -2 246 4 c 1,300,301
 240 10 240 10 234 13 c 0,302,303
 229 15 229 15 219 18 c 1,304,305
 209 19 209 19 202 26 c 0,306,307
 199 29 199 29 187 38 c 0,308,309
 185 39 185 39 179.5 41.5 c 128,-1,310
 174 44 174 44 172 45 c 0,311,312
 164 48 164 48 156 57 c 1,313,314
 155 59 155 59 150 65 c 128,-1,315
 145 71 145 71 143 73 c 0,316,317
 140 75 140 75 130 90 c 0,318,319
 124 100 124 100 124 101 c 128,-1,320
 124 102 124 102 115 111 c 0,321,322
 105 120 105 120 102 130 c 1,323,324
 101 137 101 137 88 153 c 0,325,326
 80 163 80 163 78.5 166 c 128,-1,327
 77 169 77 169 78 176 c 0,328,329
 79 185 79 185 73 202 c 0,330,331
 68 216 68 216 68 235 c 0,332,333
 69 251 69 251 65 257 c 1,334,335
 62 264 62 264 60 272 c 0,336,337
 59 277 59 277 57 305 c 0,338,339
 57 326 57 326 60 344 c 0,340,341
 63 358 63 358 62 373 c 1,342,343
 60 380 60 380 60 389 c 0,344,345
 60 402 60 402 61 415 c 0,346,347
 61 437 61 437 67 457 c 0,348,349
 73 473 73 473 75 493 c 0,350,351
 81 522 81 522 82 525 c 0,352,353
 86 540 86 540 91 546 c 1,354,355
 94 551 94 551 97 560 c 0,356,357
 99 566 99 566 106 573 c 0,358,359
 114 580 114 580 115 588 c 1,360,361
 118 594 118 594 127 605 c 0,362,363
 137 616 137 616 138 623 c 0,364,365
 140 631 140 631 143 636 c 1,366,367
 149 642 149 642 150 642 c 1,368,369
 153 644 l 130,-1,370
 156 646 156 646 161 649 c 128,-1,371
 166 652 166 652 170 654 c 0,372,373
 185 664 185 664 194 676 c 0,374,375
 202 686 202 686 206 688 c 0,376,377
 208 689 208 689 213 690 c 128,-1,378
 218 691 218 691 219 691 c 0,379,380
 229 694 229 694 233 696 c 0,381,382
 240 700 240 700 251 701 c 0,383,384
 266 703 266 703 272 707 c 0,385,386
 279 711 279 711 291 713 c 1,387,388
 298 713 298 713 304 716 c 1,389,390
 306 719 306 719 317 721 c 256,391,392
 328 723 328 723 342 721 c 0,393,394
 357 719 357 719 368 724 c 0,163,164
240 881 m 1,395,396
 244 883 244 883 249 883 c 0,397,398
 253 883 l 0,399,400
 258 883 258 883 267 880 c 1,401,402
 272 877 272 877 277 877 c 0,403,404
 280 877 280 877 292 879 c 0,405,406
 302 882 302 882 313 879 c 2,407,-1
 328 874 l 1,408,-1
 336 866 l 2,409,410
 340 861 340 861 340 853 c 0,411,412
 340 843 340 843 337 836 c 0,413,414
 333 829 333 829 334 811 c 0,415,416
 334 807 334 807 334.5 798 c 128,-1,417
 335 789 335 789 336 786 c 1,418,419
 336 776 336 776 333 772 c 0,420,421
 329 767 329 767 324 766 c 0,422,423
 317 765 317 765 306 766 c 0,424,425
 295 768 295 768 287 764 c 0,426,427
 277 760 277 760 268 761 c 0,428,429
 256 763 256 763 248 766 c 0,430,431
 237 771 237 771 235 775 c 0,432,433
 231 781 231 781 231 786 c 0,434,435
 231 792 231 792 233 796 c 0,436,437
 236 800 236 800 233 819 c 0,438,439
 231 842 231 842 230 845 c 1,440,441
 230 856 230 856 233 863 c 0,442,443
 236 872 236 872 236 876 c 0,444,445
 236 877 236 877 240 881 c 1,395,396
418 876 m 0,446,447
 428 885 428 885 434 885 c 256,448,449
 440 885 440 885 446 882 c 0,450,451
 452 878 452 878 471 879 c 0,452,453
 488 881 488 881 497 879 c 0,454,455
 503 878 503 878 510 873 c 1,456,457
 514 868 514 868 514 848 c 0,458,459
 514 829 514 829 516 823 c 0,460,461
 517 821 517 821 515 812 c 0,462,463
 513 804 513 804 517 798 c 0,464,465
 520 793 520 793 520 786 c 256,466,467
 520 779 520 779 516 775 c 256,468,469
 512 771 512 771 505 769 c 2,470,471
 499 766 499 766 474 764 c 0,472,473
 448 762 448 762 439 762 c 0,474,475
 427 762 427 762 420 766 c 0,476,477
 414 770 414 770 412 772 c 1,478,-1
 412 791 l 2,479,480
 414 812 414 812 416 816 c 1,481,482
 418 826 418 826 416 829 c 2,483,484
 416 833 416 833 411 836 c 1,485,486
 409 838 409 838 405 848 c 0,487,488
 402 857 402 857 404 862 c 1,489,490
 406 865 406 865 418 876 c 0,446,447
EndSplineSet
Validated: 524289
EndChar
StartChar: uni00D7
Encoding: 215 215 152
GlifName: uni00D_7
Width: 564
GlyphClass: 2
Flags: W
LayerCount: 2
Fore
SplineSet
104 611 m 1,0,1
 105 611 105 611 107 612 c 1,2,-1
 109 612 l 2,3,4
 113 612 113 612 121 607 c 0,5,6
 132 602 132 602 135 597 c 1,7,8
 137 596 137 596 140 593 c 128,-1,9
 143 590 143 590 145 589 c 0,10,11
 150 587 150 587 155 578 c 1,12,13
 162 569 162 569 168 566 c 0,14,15
 176 561 176 561 185 548 c 2,16,-1
 209 520 l 2,17,18
 224 505 224 505 224 502 c 1,19,20
 226 497 226 497 234 494 c 0,21,22
 242 490 242 490 249 483 c 0,23,24
 254 478 254 478 258 470 c 1,25,26
 259 465 259 465 269 457 c 0,27,28
 278 451 278 451 283 451 c 0,29,30
 289 451 289 451 292 454 c 0,31,32
 297 459 297 459 299 462 c 0,33,34
 305 471 305 471 311 477 c 0,35,36
 323 489 323 489 327 492 c 0,37,38
 335 498 335 498 344 507 c 0,39,40
 354 517 354 517 354 520 c 1,41,42
 356 524 356 524 361 527 c 0,43,44
 364 529 364 529 377 542 c 0,45,46
 387 552 387 552 395 562 c 0,47,48
 403 570 403 570 405 579 c 0,49,50
 408 587 408 587 419 594 c 0,51,52
 428 600 428 600 434 606 c 0,53,54
 438 611 438 611 455 612 c 0,55,56
 472 612 472 612 482 604 c 2,57,-1
 492 596 l 1,58,59
 495 596 495 596 503 588 c 0,60,61
 510 581 510 581 514 575 c 0,62,63
 516 571 516 571 516 566 c 0,64,65
 516 562 516 562 512 548 c 0,66,67
 507 534 507 534 497 526 c 0,68,69
 485 518 485 518 483 517 c 1,70,71
 479 516 479 516 469 506 c 0,72,73
 458 497 458 497 455 487 c 0,74,75
 452 478 452 478 443 475 c 1,76,-1
 431 469 l 1,77,78
 430 468 430 468 425 458 c 1,79,80
 422 449 422 449 414 445 c 1,81,82
 402 436 402 436 396 430 c 0,83,84
 388 423 388 423 381 414 c 0,85,86
 376 406 376 406 366 398 c 0,87,88
 355 387 355 387 354 381 c 128,-1,89
 353 375 353 375 357 370 c 0,90,91
 361 366 361 366 363 366 c 0,92,93
 364 366 364 366 368 362 c 1,94,-1
 373 352 l 1,95,96
 374 345 374 345 382 341 c 1,97,98
 389 334 389 334 390 331 c 0,99,100
 393 325 393 325 395 325 c 1,101,102
 399 323 399 323 402 323 c 0,103,104
 403 323 403 323 412 320 c 1,105,106
 417 316 417 316 421 309 c 1,107,108
 424 300 424 300 427 299 c 2,109,110
 428 298 428 298 431 297 c 0,111,112
 436 295 436 295 438 293 c 1,113,114
 444 291 444 291 453 285 c 1,115,116
 457 281 457 281 457 277 c 0,117,118
 457 276 457 276 458 273 c 1,119,120
 460 270 460 270 460 269 c 1,121,122
 461 268 461 268 464.5 264 c 128,-1,123
 468 260 468 260 469 258 c 1,124,-1
 481 249 l 1,125,126
 487 247 487 247 489 241 c 0,127,128
 490 238 490 238 493 232 c 1,129,130
 493 230 493 230 504 221 c 0,131,132
 515 214 515 214 515 211 c 2,133,134
 516 210 516 210 516 202 c 0,135,136
 516 196 516 196 514 190 c 0,137,138
 512 185 512 185 504 182 c 0,139,140
 493 176 493 176 491 171 c 1,141,142
 489 170 489 170 485.5 165.5 c 128,-1,143
 482 161 482 161 481 159 c 1,144,145
 479 157 479 157 467 148 c 0,146,147
 459 141 459 141 453 141 c 128,-1,148
 447 141 447 141 442 144 c 0,149,150
 438 146 438 146 428 156 c 0,151,152
 418 168 418 168 415 171 c 2,153,154
 408 182 408 182 394 197 c 0,155,156
 374 219 374 219 367 223 c 1,157,-1
 359 231 l 1,158,159
 359 233 359 233 340 252 c 0,160,161
 319 275 319 275 317 278 c 0,162,163
 312 285 312 285 312 286 c 128,-1,164
 312 287 312 287 303 298 c 0,165,166
 295 306 295 306 289 309 c 0,167,168
 287 310 287 310 278 310 c 1,169,170
 274 309 274 309 268 306 c 1,171,172
 264 302 264 302 262 295 c 0,173,174
 259 286 259 286 253 282 c 1,175,176
 239 268 239 268 228 258 c 0,177,178
 212 244 212 244 205 234 c 0,179,180
 201 228 201 228 195 226 c 1,181,-1
 185 221 l 1,182,183
 181 217 181 217 179 210 c 0,184,185
 176 203 176 203 164 191 c 2,186,-1
 147 174 l 2,187,188
 146 173 146 173 142 168.5 c 128,-1,189
 138 164 138 164 136 162 c 2,190,-1
 124 146 l 1,191,192
 118 140 118 140 114 138 c 1,193,194
 108 138 108 138 97 143 c 0,195,196
 83 151 83 151 79 156 c 1,197,198
 78 158 78 158 73.5 163 c 128,-1,199
 69 168 69 168 69 169 c 1,200,201
 62 174 62 174 58 185 c 2,202,203
 52 196 52 196 52 203 c 256,204,205
 52 210 52 210 58 217 c 0,206,207
 64 223 64 223 64 226 c 0,208,209
 64 227 64 227 73 236 c 0,210,211
 75 238 75 238 80 244 c 128,-1,212
 85 250 85 250 87 252 c 2,213,214
 92 260 92 260 100 264 c 2,215,216
 101 265 101 265 105.5 268 c 128,-1,217
 110 271 110 271 111 272 c 0,218,219
 116 275 116 275 118 283 c 0,220,221
 119 287 119 287 126 296 c 0,222,223
 131 302 131 302 140 309 c 0,224,225
 142 311 142 311 147.5 313.5 c 128,-1,226
 153 316 153 316 154 317 c 2,227,228
 161 319 161 319 171 327 c 0,229,230
 182 335 182 335 185 345 c 0,231,232
 190 356 190 356 197 363 c 0,233,234
 204 369 204 369 209 376 c 0,235,236
 213 382 213 382 213 386 c 0,237,238
 213 389 213 389 211 393 c 0,239,240
 208 397 208 397 198 397 c 128,-1,241
 188 397 188 397 186 399 c 1,242,243
 184 403 184 403 184 411 c 0,244,245
 184 421 184 421 182 423 c 1,246,247
 180 427 180 427 175 429 c 1,248,249
 170 430 170 430 161 439 c 0,250,251
 155 445 155 445 143 459 c 0,252,253
 133 471 133 471 124 475 c 0,254,255
 117 478 117 478 115 480 c 128,-1,256
 113 482 113 482 109 490 c 1,257,258
 106 500 106 500 103 503 c 1,259,260
 98 506 98 506 91 507 c 0,261,262
 82 509 82 509 68 523 c 2,263,264
 53 534 53 534 50 543 c 1,265,266
 45 551 45 551 45 555 c 0,267,268
 45 558 45 558 47 562 c 128,-1,269
 49 566 49 566 67 584 c 0,270,271
 88 603 88 603 93 606 c 1,272,273
 103 610 103 610 104 611 c 1,0,1
EndSplineSet
Validated: 1
EndChar
StartChar: uni00DD
Encoding: 221 221 158
GlifName: uni00D_D_
Width: 637
GlyphClass: 2
Flags: W
LayerCount: 2
Fore
SplineSet
14 699 m 0,0,1
 20 705 20 705 28 705 c 0,2,3
 32 705 32 705 41 705 c 0,4,5
 69 702 69 702 75 701 c 0,6,7
 89 698 89 698 97 701 c 1,8,9
 102 702 102 702 114 702 c 1,10,11
 124 700 124 700 132 696 c 0,12,13
 137 693 137 693 146 687 c 1,14,15
 151 682 151 682 151 674 c 1,16,17
 153 666 153 666 155 662 c 0,18,19
 158 657 158 657 163 653 c 256,20,21
 168 649 168 649 173 638 c 0,22,23
 177 628 177 628 184 622 c 0,24,25
 188 619 188 619 193 614 c 1,26,27
 193 613 193 613 195 609 c 128,-1,28
 197 605 197 605 198 603 c 1,29,30
 200 594 200 594 204 588 c 2,31,-1
 209 581 l 2,32,33
 210 580 210 580 211 578 c 256,34,35
 212 576 212 576 213 575 c 0,36,37
 216 572 216 572 218 563 c 256,38,39
 220 554 220 554 222 554 c 1,40,41
 226 552 226 552 229 546 c 2,42,43
 230 545 230 545 232.5 541 c 128,-1,44
 235 537 235 537 238 533.5 c 128,-1,45
 241 530 241 530 243 527 c 0,46,47
 246 523 246 523 255 510 c 1,48,49
 258 504 258 504 262 494 c 1,50,51
 262 492 262 492 263.5 485 c 128,-1,52
 265 478 265 478 266 475 c 0,53,54
 268 465 268 465 276 460 c 1,55,56
 284 453 284 453 285 446 c 1,57,58
 285 440 285 440 288 434 c 0,59,60
 289 431 289 431 293 427 c 1,61,62
 295 426 295 426 306 411 c 0,63,64
 316 397 316 397 317 396 c 1,65,66
 317 395 317 395 322 388 c 1,67,68
 328 382 328 382 332 382 c 0,69,70
 337 382 337 382 339 384 c 2,71,72
 342 385 342 385 350 398 c 0,73,74
 358 409 358 409 358 418 c 0,75,76
 358 425 358 425 366 433 c 0,77,78
 375 442 375 442 378 450 c 0,79,80
 382 458 382 458 385 465 c 1,81,82
 386 470 386 470 397 485 c 0,83,84
 404 496 404 496 413 512 c 0,85,86
 417 522 417 522 424 529 c 0,87,88
 430 535 430 535 434 536 c 1,89,90
 439 539 439 539 439 549 c 0,91,92
 439 558 439 558 442 561 c 1,93,94
 443 561 443 561 445.5 563 c 128,-1,95
 448 565 448 565 450 566 c 0,96,97
 455 569 455 569 456 573 c 0,98,99
 456 574 456 574 456.5 577 c 128,-1,100
 457 580 457 580 457 582 c 1,101,102
 461 594 461 594 464 601 c 0,103,104
 471 615 471 615 483 627 c 0,105,106
 493 635 493 635 495.5 639 c 128,-1,107
 498 643 498 643 501 654 c 0,108,109
 504 664 504 664 506 668 c 128,-1,110
 508 672 508 672 517 680 c 0,111,112
 531 692 531 692 534 693 c 1,113,114
 541 693 541 693 545 692 c 0,115,116
 553 690 553 690 555 690 c 0,117,118
 558 690 558 690 567 697 c 0,119,120
 574 702 574 702 579 703 c 128,-1,121
 584 704 584 704 607 705 c 0,122,123
 624 706 624 706 630 706 c 0,124,125
 639 706 639 706 640 704 c 0,126,127
 642 700 642 700 642 687 c 0,128,129
 642 673 642 673 638 665 c 0,130,131
 633 656 633 656 621 645 c 0,132,133
 608 632 608 632 607 625 c 0,134,135
 605 617 605 617 598 603 c 0,136,137
 593 593 593 593 582 579 c 1,138,139
 572 570 572 570 568 563 c 0,140,141
 565 557 565 557 561 553 c 0,142,143
 555 547 555 547 553 544 c 0,144,145
 548 536 548 536 548 532 c 1,146,147
 545 522 545 522 540 514 c 0,148,149
 538 510 538 510 533.5 501.5 c 128,-1,150
 529 493 529 493 528 491 c 0,151,152
 522 480 522 480 515 474 c 0,153,154
 508 469 508 469 505 464 c 1,155,156
 505 463 505 463 502 458 c 128,-1,157
 499 453 499 453 498 450 c 1,158,-1
 489 435 l 2,159,160
 484 428 484 428 484 424 c 0,161,162
 484 419 484 419 479 416 c 0,163,164
 473 412 473 412 470 409 c 1,165,166
 466 401 466 401 465 395 c 0,167,168
 462 385 462 385 455 378 c 0,169,170
 444 364 444 364 441 358 c 2,171,172
 438 355 438 355 432.5 347 c 128,-1,173
 427 339 427 339 425 337 c 0,174,175
 417 327 417 327 417 324 c 0,176,177
 417 320 417 320 415 314 c 1,178,179
 409 305 409 305 407 303 c 0,180,181
 400 296 400 296 392 279 c 0,182,183
 382 259 382 259 381 247 c 2,184,185
 378 236 378 236 380 222 c 0,186,187
 382 210 382 210 382 175 c 0,188,189
 382 137 382 137 380 128 c 0,190,191
 377 117 377 117 380 109 c 1,192,193
 382 99 382 99 382 94 c 0,194,195
 382 88 382 88 380 76 c 1,196,197
 376 65 376 65 379 58 c 1,198,199
 381 50 381 50 381 34 c 0,200,201
 381 17 381 17 378 11 c 1,202,203
 376 4 376 4 371 1 c 1,204,205
 367 -3 367 -3 346 -4 c 0,206,207
 325 -4 325 -4 319 -7 c 0,208,209
 311 -11 311 -11 305 -11 c 0,210,211
 297 -11 297 -11 284 -4 c 0,212,213
 270 2 270 2 268 7 c 128,-1,214
 266 12 266 12 268 17 c 1,215,216
 270 27 270 27 272 60 c 0,217,218
 274 104 274 104 274 119 c 0,219,220
 274 141 274 141 270 147 c 128,-1,221
 266 153 266 153 269 163 c 0,222,223
 272 174 272 174 271 188 c 0,224,225
 270 205 270 205 273 212 c 0,226,227
 277 220 277 220 277 228 c 0,228,229
 277 239 277 239 274 248 c 0,230,231
 272 257 272 257 273 265 c 1,232,233
 275 272 275 272 263 285 c 0,234,235
 251 297 251 297 245 301 c 1,236,237
 240 306 240 306 240 310 c 1,238,239
 238 318 238 318 233 325 c 1,240,-1
 226 346 l 2,241,242
 222 356 222 356 211 368 c 0,243,244
 198 380 198 380 196 388 c 128,-1,245
 194 396 194 396 190 402 c 0,246,247
 186 407 186 407 181 411 c 1,248,249
 174 415 174 415 168 430 c 0,250,251
 160 446 160 446 160 450 c 1,252,253
 158 458 158 458 156 459 c 2,254,255
 154 464 154 464 145 467 c 1,256,257
 136 472 136 472 135 478 c 0,258,259
 133 486 133 486 133 487 c 128,-1,260
 133 488 133 488 127 498 c 2,261,-1
 115 513 l 2,262,263
 106 524 106 524 105 528 c 1,264,-1
 99 540 l 2,265,266
 96 545 96 545 92 554 c 1,267,268
 91 561 91 561 80 572 c 0,269,270
 69 584 69 584 64 599 c 0,271,272
 56 616 56 616 48 625 c 2,273,-1
 36 640 l 2,274,275
 30 646 30 646 26 648 c 0,276,277
 18 654 18 654 17 655 c 0,278,279
 13 659 13 659 13 667 c 1,280,281
 12 671 12 671 9 680 c 0,282,283
 7 684 7 684 7 689 c 0,284,285
 7 693 7 693 14 699 c 0,0,1
408 905 m 1,286,287
 408 906 408 906 413 906 c 0,288,289
 414 906 414 906 418.5 905.5 c 128,-1,290
 423 905 423 905 425 905 c 1,291,292
 427 904 427 904 433 901 c 1,293,294
 434 900 434 900 435 900 c 1,295,296
 438 896 438 896 438 888 c 0,297,298
 438 881 438 881 436 873 c 256,299,300
 434 865 434 865 418 849 c 0,301,302
 400 833 400 833 397 831 c 0,303,304
 393 827 393 827 390 820 c 256,305,306
 387 813 387 813 375 799 c 0,307,308
 363 787 363 787 357 775 c 0,309,310
 349 761 349 761 346 759 c 2,311,312
 343 755 343 755 331 749 c 0,313,314
 323 744 323 744 312 742 c 0,315,316
 302 740 302 740 295 742 c 0,317,318
 287 745 287 745 280 745 c 0,319,320
 274 745 274 745 267 751 c 0,321,322
 261 757 261 757 261 760 c 256,323,324
 261 763 261 763 270 776 c 0,325,326
 280 792 280 792 282 795 c 0,327,328
 285 800 285 800 285 808 c 0,329,330
 285 815 285 815 289 821 c 0,331,332
 295 832 295 832 295 833 c 0,333,334
 296 838 296 838 305 846 c 0,335,336
 313 854 313 854 314 861 c 0,337,338
 314 863 314 863 315.5 868.5 c 128,-1,339
 317 874 317 874 318 876 c 0,340,341
 322 884 322 884 330 892 c 0,342,343
 337 900 337 900 342 901 c 128,-1,344
 347 902 347 902 373 903 c 0,345,346
 406 903 406 903 408 905 c 1,286,287
EndSplineSet
Validated: 1
EndChar
StartChar: uni00EA
Encoding: 234 234 171
GlifName: uni00E_A_
Width: 536
GlyphClass: 2
Flags: W
LayerCount: 2
Fore
SplineSet
298 436 m 1,0,1
 294 438 294 438 277 440 c 0,2,3
 265 440 265 440 263 439 c 2,4,5
 260 439 260 439 253 434 c 1,6,7
 247 428 247 428 236 426 c 1,8,9
 227 423 227 423 217 419 c 1,10,-1
 205 410 l 1,11,12
 205 409 205 409 201.5 405 c 128,-1,13
 198 401 198 401 196 398 c 0,14,15
 190 388 190 388 183 383 c 0,16,17
 175 378 175 378 170 366 c 0,18,19
 169 364 169 364 167 359.5 c 128,-1,20
 165 355 165 355 163 351.5 c 128,-1,21
 161 348 161 348 160 346 c 0,22,23
 154 337 154 337 154 329 c 0,24,25
 154 325 154 325 157 316 c 1,26,27
 161 312 161 312 166 310 c 0,28,29
 172 307 172 307 184 307 c 256,30,31
 196 307 196 307 210 312 c 0,32,33
 220 316 220 316 222.5 316.5 c 128,-1,34
 225 317 225 317 232 315 c 1,35,36
 238 312 238 312 249 312 c 0,37,38
 255 312 255 312 283 314 c 0,39,40
 301 315 301 315 304 315 c 0,41,42
 310 315 310 315 317 312 c 1,43,44
 329 309 329 309 330 309 c 0,45,46
 336 309 336 309 344 312 c 0,47,48
 352 314 352 314 369 313 c 0,49,50
 381 312 381 312 384 312.5 c 128,-1,51
 387 313 387 313 390 317 c 0,52,53
 393 320 393 320 393 321 c 0,54,55
 393 323 393 323 388 330 c 0,56,57
 383 338 383 338 383 343 c 0,58,59
 383 347 383 347 386 350 c 1,60,61
 388 354 388 354 388 357 c 0,62,63
 388 361 388 361 378 374 c 0,64,65
 367 387 367 387 366 396 c 0,66,67
 364 406 364 406 361 409 c 2,68,69
 359 413 359 413 357 413 c 1,70,-1
 347 421 l 2,71,72
 338 430 338 430 332 432 c 0,73,74
 324 434 324 434 316 434 c 128,-1,75
 308 434 308 434 298 436 c 1,0,1
284 517 m 2,76,-1
 299 517 l 1,77,78
 309 516.5 l 130,-1,79
 319 516 319 516 326 515 c 0,80,81
 350 514 350 514 360 509 c 0,82,83
 372 504 372 504 377 503 c 0,84,85
 386 500 386 500 398 489 c 0,86,87
 411 477 411 477 423 474 c 0,88,89
 432 472 432 472 434.5 470 c 128,-1,90
 437 468 437 468 441 462 c 0,91,92
 450 450 450 450 455 444 c 0,93,94
 464 433 464 433 464 431 c 0,95,96
 464 430 464 430 467 424 c 0,97,98
 469 420 469 420 470 417 c 0,99,100
 473 410 473 410 479 398 c 0,101,102
 483 390 483 390 483 381 c 0,103,104
 484 370 484 370 490 363 c 0,105,106
 494 358 494 358 494.5 350 c 128,-1,107
 495 342 495 342 495 299 c 0,108,109
 495 240 495 240 493 238 c 1,110,111
 492 236 492 236 482 232 c 0,112,113
 473 229 473 229 466 231 c 0,114,115
 456 234 456 234 444 235 c 0,116,117
 431 235 431 235 427 237 c 1,118,119
 425 239 425 239 409 235 c 0,120,121
 391 232 391 232 383 235 c 0,122,123
 372 238 372 238 367 236 c 0,124,125
 364 235 364 235 323 233 c 2,126,-1
 275 233 l 2,127,128
 265 232 265 232 256 237 c 0,129,130
 246 242 246 242 239 241 c 0,131,132
 231 239 231 239 226 237 c 1,133,134
 221 234 221 234 207 235 c 0,135,136
 191 237 191 237 181 237 c 256,137,138
 171 237 171 237 164 234 c 0,139,140
 157 230 157 230 155 225 c 0,141,142
 154 222 154 222 157 212 c 0,143,144
 160 197 160 197 161 190 c 0,145,146
 162 177 162 177 168 170 c 1,147,148
 172 163 172 163 173 151 c 0,149,150
 175 137 175 137 178 132 c 0,151,152
 180 128 180 128 195 113 c 0,153,154
 198 110 198 110 206.5 102.5 c 128,-1,155
 215 95 215 95 218 92 c 0,156,157
 229 82 229 82 241 80 c 0,158,159
 257 78 257 78 286 78 c 0,160,161
 310 78 310 78 315.5 79 c 128,-1,162
 321 80 321 80 329 84 c 1,163,164
 331 86 331 86 335 88 c 128,-1,165
 339 90 339 90 344.5 93 c 128,-1,166
 350 96 350 96 352 97 c 0,167,168
 366 106 366 106 368 110 c 0,169,170
 373 118 373 118 373 122 c 1,171,172
 379 137 l 2,173,174
 383 145 383 145 383 153 c 0,175,176
 383 160 383 160 390 166 c 0,177,178
 399 173 399 173 405 174 c 0,179,180
 413 176 413 176 435 176 c 0,181,182
 456 176 456 176 466 178 c 0,183,184
 475 179 475 179 481 177 c 0,185,186
 488 174 488 174 489 170 c 0,187,188
 489 169 489 169 489.5 163.5 c 128,-1,189
 490 158 490 158 490 155 c 0,190,191
 490 146 490 146 487 140 c 0,192,193
 483 134 483 134 483 131 c 1,194,-1
 486 119 l 2,195,196
 488 113 488 113 487 109 c 1,197,-1
 483 105 l 1,198,199
 482 105 482 105 477 96 c 1,200,201
 474 88 474 88 464 78 c 1,202,203
 452 69 452 69 447 66 c 0,204,205
 439 62 439 62 439 61 c 128,-1,206
 439 60 439 60 437 52 c 0,207,208
 434 43 434 43 424 33 c 256,209,210
 414 23 414 23 407 21 c 1,211,212
 402 21 402 21 392 19 c 0,213,214
 382 18 382 18 377 13 c 0,215,216
 375 10 375 10 365 5 c 1,217,218
 357 3 357 3 340 3 c 256,219,220
 323 3 323 3 313 -3 c 1,221,222
 300 -8 300 -8 299 -8 c 0,223,224
 295 -8 295 -8 283 -4 c 0,225,226
 271 -1 271 -1 263 -2 c 0,227,228
 256 -3 256 -3 247 -1 c 1,229,230
 245 0 245 0 229 2 c 0,231,232
 216 2 216 2 208 6 c 0,233,234
 205 7 205 7 192 11 c 128,-1,235
 179 15 179 15 175 16 c 0,236,237
 157 22 157 22 148 26 c 1,238,239
 143 31 143 31 134 37 c 2,240,241
 125 46 125 46 115 50 c 1,242,243
 106 56 106 56 105 61 c 1,244,245
 105 67 105 67 103 71 c 1,246,247
 103 74 103 74 97 78 c 0,248,249
 90 82 90 82 88 90 c 0,250,251
 86 95 86 95 81 105 c 0,252,253
 78 110 78 110 74 123 c 1,254,-1
 66 139 l 1,255,256
 63 143 63 143 60 165 c 0,257,258
 58 186 58 186 56 190 c 1,259,260
 54 199 54 199 55 207 c 0,261,262
 56 217 56 217 53 226 c 1,263,264
 50 231 50 231 50 235 c 0,265,266
 50 236 50 236 51 240 c 0,267,268
 53 246 53 246 53 261 c 0,269,270
 53 281 53 281 56 296 c 0,271,272
 57 311 57 311 60 324 c 0,273,274
 62 333 62 333 64 335 c 1,275,276
 66 339 66 339 66 357 c 0,277,278
 67 376 67 376 75 393 c 0,279,280
 80 406 80 406 94 429 c 0,281,282
 105 446 105 446 115 453 c 1,283,284
 123 456 123 456 139 472 c 0,285,286
 158 488 158 488 162 490 c 0,287,288
 171 495 171 495 184 496 c 0,289,290
 194 497 194 497 197 498 c 128,-1,291
 200 499 200 499 207 506 c 0,292,293
 218 515 218 515 221 515 c 2,294,-1
 230 515 l 2,295,296
 234 515 234 515 246 513 c 0,297,298
 256 510 256 510 264 513 c 1,299,300
 267 515 267 515 284 517 c 2,76,-1
244 739 m 2,301,302
 249 741 249 741 257 741 c 0,303,304
 258 741 258 741 271 738 c 0,305,306
 283 736 283 736 289 736 c 0,307,308
 299 736 299 736 303 737 c 0,309,310
 308 738 308 738 310.5 737 c 128,-1,311
 313 736 313 736 324 726 c 0,312,313
 340 710 340 710 343 708 c 0,314,315
 349 702 349 702 350 691 c 0,316,317
 352 679 352 679 352 678 c 1,318,319
 353 678 353 678 361 674 c 0,320,321
 369 669 369 669 374 660 c 0,322,323
 379 652 379 652 398 631 c 0,324,325
 416 611 416 611 416 608 c 0,326,327
 416 604 416 604 414 594 c 0,328,329
 412 583 412 583 409 580 c 128,-1,330
 406 577 406 577 370 577 c 0,331,332
 335 577 335 577 331 579 c 1,333,-1
 318 592 l 2,334,335
 310 601 310 601 308 610 c 0,336,337
 307 619 307 619 298 626 c 0,338,339
 288 636 288 636 284 643 c 0,340,341
 275 655 275 655 274 655 c 1,342,343
 272 657 272 657 268 657 c 0,344,345
 263 657 263 657 260 652 c 1,346,347
 258 650 258 650 252 642 c 0,348,349
 248 637 248 637 241 631 c 0,350,351
 235 626 235 626 232 617 c 0,352,353
 228 606 228 606 222 598 c 0,354,355
 220 595 220 595 216 589.5 c 128,-1,356
 212 584 212 584 211 583 c 2,357,358
 209 579 209 579 205 578.5 c 128,-1,359
 201 578 201 578 179 578 c 0,360,361
 163 578 l 0,362,363
 147 578 147 578 140 579 c 1,364,365
 131 582 131 582 129 587 c 1,366,367
 126 592 126 592 128 601 c 0,368,369
 129 609 129 609 137 619 c 0,370,371
 140 622 140 622 144 626.5 c 128,-1,372
 148 631 148 631 149 632 c 1,373,374
 152 633 152 633 156 642 c 0,375,376
 159 648 159 648 164 653 c 128,-1,377
 169 658 169 658 175 667 c 0,378,379
 182 678 182 678 184 678 c 0,380,381
 187 678 187 678 190 686 c 1,382,383
 190 687 190 687 195 693.5 c 128,-1,384
 200 700 200 700 203 704 c 0,385,386
 212 715 212 715 213 719 c 1,387,388
 217 726 217 726 222 730 c 0,389,390
 224 732 224 732 232 736 c 1,391,-1
 244 739 l 2,301,302
EndSplineSet
Validated: 524289
EndChar
StartChar: uni00EC
Encoding: 236 236 173
GlifName: uni00E_C_
Width: 262
GlyphClass: 2
Flags: W
LayerCount: 2
Fore
SplineSet
104 489 m 0,0,1
 120 492 120 492 133 492 c 0,2,3
 146 491 146 491 156 486 c 0,4,5
 168 480 168 480 169 480 c 0,6,7
 171 480 171 480 173 477 c 0,8,9
 175 475 175 475 177 459 c 0,10,11
 177 441 177 441 176 435 c 1,12,13
 174 429 174 429 177 412 c 0,14,15
 180 397 180 397 177 387 c 0,16,17
 175 376 175 376 176 372 c 1,18,19
 176 362 176 362 174 358 c 1,20,21
 173 348 173 348 175 343 c 1,22,23
 178 339 178 339 178 331 c 0,24,25
 178 325 178 325 176 313 c 0,26,27
 174 305 174 305 177 296 c 0,28,29
 180 286 180 286 179 268 c 0,30,31
 178 257 178 257 178 253 c 0,32,33
 178 246 178 246 182 234 c 0,34,35
 183 232 183 232 185 225 c 128,-1,36
 187 218 187 218 187 217 c 0,37,38
 187 214 187 214 181 206 c 1,39,40
 176 201 176 201 175 191 c 0,41,42
 174 185 174 185 176 174 c 0,43,44
 178 166 178 166 180 164 c 1,45,46
 181 160 181 160 182 157 c 0,47,48
 183 152 183 152 180 146 c 256,49,50
 177 140 177 140 177 114 c 0,51,52
 176 100 176 100 176 78 c 1,53,54
 177 72 177 72 177 33 c 0,55,56
 177 7 177 7 176.5 1.5 c 128,-1,57
 176 -4 176 -4 172 -8 c 0,58,59
 167 -12 167 -12 161.5 -12.5 c 128,-1,60
 156 -13 156 -13 127 -14 c 0,61,62
 90 -14 90 -14 82 -12 c 1,63,64
 79 -10 79 -10 76 -5 c 1,65,66
 75 -2 75 -2 75 21 c 0,67,68
 76 32 76 32 76 83 c 0,69,70
 76 126 76 126 73 133 c 0,71,72
 71 139 71 139 71 150 c 1,73,74
 73 160 73 160 73 169 c 0,75,76
 73 172 73 172 72.5 177.5 c 128,-1,77
 72 183 72 183 72 185 c 1,78,79
 71 187 71 187 71 189 c 256,80,81
 71 191 71 191 73 194 c 0,82,83
 78 199 78 199 80 202 c 0,84,85
 84 206 84 206 84 212 c 0,86,87
 84 220 84 220 81 232 c 0,88,89
 77 248 77 248 79 251 c 1,90,91
 79 255 79 255 83 263 c 0,92,93
 86 271 86 271 85 275 c 1,94,95
 85 281 85 281 81 283 c 1,96,97
 81 284 81 284 78.5 287.5 c 128,-1,98
 76 291 76 291 75 293 c 0,99,100
 72 302 72 302 74 306 c 2,101,102
 74 307 74 307 75 311.5 c 128,-1,103
 76 316 76 316 77 318 c 1,104,105
 77 324 77 324 82 331 c 1,106,107
 86 339 86 339 86 341 c 0,108,109
 86 344 86 344 82 348 c 128,-1,110
 78 352 78 352 76 358 c 2,111,112
 72 366 72 366 72 371 c 128,-1,113
 72 376 72 376 76 388 c 1,114,115
 76 390 76 390 77.5 400 c 128,-1,116
 79 410 79 410 80 415 c 0,117,118
 81 429 81 429 77 444 c 2,119,120
 77 447 77 447 75.5 453.5 c 128,-1,121
 74 460 74 460 74 462 c 0,122,123
 74 466 74 466 76 474 c 0,124,125
 78 480 78 480 83 483 c 1,126,127
 88 485 88 485 104 489 c 0,0,1
12 715 m 0,128,129
 17 719 17 719 24 719 c 0,130,131
 32 719 32 719 38 716 c 0,132,133
 46 712 46 712 52 712 c 1,134,-1
 70 715 l 2,135,136
 85 718 85 718 87 718 c 0,137,138
 95 718 95 718 107 710 c 0,139,140
 121 701 121 701 122 700 c 256,141,142
 123 699 123 699 134 677 c 0,143,144
 137 670 137 670 144 655 c 1,145,146
 147 652 147 652 152 641 c 0,147,148
 154 637 154 637 163 622 c 2,149,-1
 169 613 l 1,150,151
 169 612 169 612 173 606 c 0,152,153
 175 604 175 604 180 594 c 0,154,155
 181 592 181 592 183 587.5 c 128,-1,156
 185 583 185 583 185 582 c 1,157,158
 188 578 188 578 188 573 c 0,159,160
 188 570 188 570 184 566 c 0,161,162
 181 563 181 563 169 559 c 0,163,164
 158 555 158 555 142 555 c 0,165,166
 130 555 130 555 126.5 556 c 128,-1,167
 123 557 123 557 116 564 c 0,168,169
 113 567 113 567 107.5 572 c 128,-1,170
 102 577 102 577 101 578 c 0,171,172
 97 582 97 582 89 594 c 0,173,174
 85 600 85 600 54 631 c 2,175,-1
 24 661 l 2,176,177
 17 668 17 668 11 675 c 0,178,179
 2 685 2 685 2 689 c 0,180,181
 2 694 2 694 5 704 c 0,182,183
 7 712 7 712 12 715 c 0,128,129
EndSplineSet
Validated: 1
EndChar
StartChar: uni00F0
Encoding: 240 240 177
GlifName: uni00F_0
Width: 599
GlyphClass: 2
Flags: W
LayerCount: 2
Fore
SplineSet
320 437 m 0,0,1
 307 439 307 439 305 440 c 1,2,3
 299 440 299 440 297 439 c 2,4,5
 296 439 296 439 292 437 c 128,-1,6
 288 435 288 435 286 434 c 0,7,8
 278 430 278 430 272 431 c 0,9,10
 265 432 265 432 255 428 c 0,11,12
 245 423 245 423 238 423 c 0,13,14
 230 423 230 423 228 421 c 1,15,16
 228 420 228 420 225 413 c 0,17,18
 222 405 222 405 208 394 c 0,19,20
 191 379 191 379 190 378 c 0,21,22
 186 375 186 375 184 365 c 128,-1,23
 182 355 182 355 182 354 c 1,24,25
 180 350 180 350 175 347 c 1,26,-1
 168 340 l 1,27,28
 167 338 167 338 167 329 c 0,29,30
 167 323 167 323 171 311 c 0,31,32
 174 302 174 302 174 297 c 0,33,34
 174 291 174 291 171 282 c 2,35,36
 170 274 170 274 165 261 c 0,37,38
 160 251 160 251 160 245 c 0,39,40
 160 240 160 240 166 234 c 1,41,42
 171 225 171 225 170 212 c 0,43,44
 170 196 170 196 174 191 c 1,45,46
 178 188 178 188 181 170 c 0,47,48
 185 151 185 151 187 148 c 2,49,50
 188 143 188 143 193 138 c 1,51,-1
 208 128 l 2,52,53
 216 124 216 124 224 116 c 1,54,55
 230 108 230 108 233 102 c 0,56,57
 237 95 237 95 240 93 c 0,58,59
 244 91 244 91 252 91 c 128,-1,60
 260 91 260 91 267 87 c 0,61,62
 275 83 275 83 297 83 c 0,63,64
 305 83 305 83 316 82 c 2,65,-1
 326 82 l 2,66,67
 332 82 332 82 337 85 c 1,68,69
 341 89 341 89 347 91 c 1,70,71
 355 95 355 95 361 101 c 128,-1,72
 367 107 367 107 374 109 c 0,73,74
 380 110 380 110 384 116 c 0,75,76
 389 123 389 123 395 128 c 0,77,78
 403 134 403 134 406 140 c 0,79,80
 407 143 407 143 409 146 c 0,81,82
 410 148 410 148 410 149 c 0,83,84
 410 151 410 151 416 157 c 1,85,86
 422 166 422 166 422 171 c 128,-1,87
 422 176 422 176 424 184 c 1,88,89
 427 191 427 191 429 212 c 0,90,91
 429 232 429 232 433 242 c 0,92,93
 436 254 436 254 436 256 c 0,94,95
 436 266 436 266 433 278 c 0,96,97
 430 293 430 293 432 302 c 0,98,99
 435 311 435 311 433 317 c 0,100,101
 431 326 431 326 424 341 c 0,102,103
 417 364 417 364 417 367 c 0,104,105
 416 376 416 376 404 387 c 2,106,-1
 380 410 l 2,107,108
 366 422 366 422 360 425 c 128,-1,109
 354 428 354 428 349 428 c 128,-1,110
 344 428 344 428 338 432 c 0,111,112
 332 435 332 435 320 437 c 0,0,1
164 743 m 0,113,114
 176 754 176 754 182 754 c 0,115,116
 189 754 189 754 196 749 c 1,117,118
 208 744 208 744 215 743 c 0,119,120
 229 741 229 741 235 737 c 1,121,122
 244 733 244 733 246 724 c 0,123,124
 248 717 248 717 249.5 715 c 128,-1,125
 251 713 251 713 257 711 c 0,126,127
 261 709 261 709 270 703 c 1,128,129
 273 699 273 699 281 697 c 0,130,131
 288 696 288 696 298 705 c 2,132,-1
 309 714 l 1,133,134
 310 714 310 714 319 721 c 0,135,136
 325 727 325 727 331 730 c 2,137,138
 335 733 335 733 348 737 c 0,139,140
 365 742 365 742 370 745 c 1,141,142
 379 748 379 748 386 747 c 1,143,144
 391 745 391 745 402 736 c 2,145,-1
 413 726 l 1,146,147
 414 726 414 726 418 719 c 256,148,149
 422 712 422 712 421 706 c 1,150,151
 419 700 419 700 416 697 c 128,-1,152
 413 694 413 694 401 688 c 128,-1,153
 389 682 389 682 387 680 c 1,154,155
 381 678 381 678 374 678 c 128,-1,156
 367 678 367 678 355 674 c 0,157,158
 344 669 344 669 343 669 c 1,159,160
 340 668 340 668 340 662 c 0,161,162
 340 658 340 658 343 655 c 2,163,164
 345 651 345 651 349 651 c 0,165,166
 350 651 350 651 354 648.5 c 128,-1,167
 358 646 358 646 360 645 c 2,168,169
 361 644 361 644 365 640.5 c 128,-1,170
 369 637 369 637 373 632.5 c 128,-1,171
 377 628 377 628 381 624 c 0,172,173
 397 608 397 608 402 606 c 1,174,175
 411 599 411 599 417 591 c 0,176,177
 423 581 423 581 434 572 c 0,178,179
 443 565 443 565 447 557 c 0,180,181
 450 549 450 549 456 545 c 0,182,183
 457 544 457 544 461.5 540.5 c 128,-1,184
 466 537 466 537 469 534 c 0,185,186
 476 529 476 529 481 518 c 0,187,188
 486 509 486 509 488 499 c 0,189,190
 491 488 491 488 496 484 c 0,191,192
 502 479 502 479 503 468 c 0,193,194
 504 461 504 461 509 451 c 2,195,-1
 517 439 l 2,196,197
 522 433 522 433 524 426 c 0,198,199
 524 425 524 425 529 405 c 0,200,201
 531 397 531 397 535 385 c 1,202,203
 538 379 538 379 538 363 c 128,-1,204
 538 347 538 347 541 335 c 0,205,206
 544 325 544 325 546 312 c 1,207,208
 548 307 548 307 548 302 c 0,209,210
 548 299 548 299 547 296 c 0,211,212
 546 294 546 294 545.5 278 c 128,-1,213
 545 262 545 262 545 256 c 0,214,215
 545 220 545 220 544 215 c 0,216,217
 542 207 542 207 540 203 c 1,218,219
 537 200 537 200 533 190 c 128,-1,220
 529 180 529 180 529 174 c 0,221,222
 529 165 529 165 524 147 c 0,223,224
 522 141 522 141 516 122 c 0,225,226
 514 118 514 118 510 114 c 128,-1,227
 506 110 506 110 503 104 c 128,-1,228
 500 98 500 98 495 93 c 0,229,230
 494 92 494 92 486 79 c 0,231,232
 482 70 482 70 473 65 c 0,233,234
 465 59 465 59 454 46 c 0,235,236
 442 32 442 32 431 30 c 1,237,238
 419 26 419 26 410 23 c 1,239,240
 404 19 404 19 395 17 c 1,241,242
 392 17 392 17 378 10 c 0,243,244
 374 8 374 8 363 4 c 128,-1,245
 352 0 352 0 351 0 c 2,246,247
 338 -5 338 -5 328 -5 c 0,248,249
 316 -5 316 -5 305 -2 c 0,250,251
 290 1 290 1 264 1 c 0,252,253
 240 1 240 1 229 5 c 1,254,255
 227 7 227 7 224 9 c 2,256,-1
 220 11 l 1,257,258
 218 13 218 13 212 13 c 0,259,260
 204 13 204 13 201 10 c 0,261,262
 197 7 197 7 192 9 c 1,263,264
 189 9 189 9 181 19 c 0,265,266
 175 27 175 27 163 34 c 0,267,268
 153 39 153 39 144 48 c 0,269,270
 132 58 132 58 130 59 c 1,271,272
 126 60 126 60 119 67 c 0,273,274
 117 69 117 69 108 81 c 128,-1,275
 99 93 99 93 95 99 c 0,276,277
 94 101 94 101 80 118 c 0,278,279
 75 123 75 123 69 132 c 1,280,281
 67 140 67 140 67 160 c 0,282,283
 66 184 66 184 60 202 c 0,284,285
 53 223 53 223 53 231 c 0,286,287
 53 237 53 237 55 249 c 1,288,289
 58 256 58 256 58 281 c 0,290,291
 58 305 58 305 63 326 c 0,292,293
 67 349 67 349 66 356 c 0,294,295
 65 366 65 366 71 374 c 0,296,297
 80 389 80 389 81 391 c 0,298,299
 83 394 83 394 88 401 c 128,-1,300
 93 408 93 408 94 410 c 1,301,302
 101 416 101 416 108 429 c 1,303,304
 112 440 112 440 120 444 c 1,305,306
 128 450 128 450 131 456 c 0,307,308
 135 462 135 462 140 464 c 1,309,310
 141 464 141 464 143.5 464.5 c 128,-1,311
 146 465 146 465 147 465 c 0,312,313
 150 465 150 465 157 474 c 0,314,315
 164 482 164 482 174 488 c 0,316,317
 187 496 187 496 190 499 c 0,318,319
 197 505 197 505 205 504 c 0,320,321
 211 503 211 503 217 505 c 1,322,323
 223 509 223 509 226 510 c 0,324,325
 230 512 230 512 249 512 c 0,326,327
 253 512 253 512 263 512.5 c 128,-1,328
 273 513 273 513 275 514 c 1,329,330
 280 514 280 514 294 512 c 0,331,332
 302 511 302 511 320 508 c 1,333,334
 330 508 330 508 340 503 c 0,335,336
 348 499 348 499 354 499 c 0,337,338
 357 499 357 499 363 502 c 1,339,340
 366 505 366 505 366 510 c 128,-1,341
 366 515 366 515 361 522 c 128,-1,342
 356 529 356 529 350 531 c 1,343,344
 347 533 347 533 337 540 c 1,345,346
 332 545 332 545 322 549 c 0,347,348
 311 555 311 555 307 562 c 0,349,350
 302 570 302 570 293 573 c 0,351,352
 286 575 286 575 284 581 c 128,-1,353
 282 587 282 587 280 591 c 0,354,355
 277 595 277 595 268 595 c 0,356,357
 255 595 255 595 253 596 c 0,358,359
 249 599 249 599 242 597 c 0,360,361
 238 596 238 596 225 587 c 0,362,363
 209 578 209 578 203 577 c 0,364,365
 192 574 192 574 186 567 c 0,366,367
 179 560 179 560 173 558 c 0,368,369
 171 557 171 557 164 557 c 128,-1,370
 157 557 157 557 155 559 c 1,371,372
 150 562 150 562 150 563 c 1,373,374
 149 564 149 564 141 570 c 1,375,376
 138 571 138 571 130 579 c 1,377,378
 127 588 127 588 127 590 c 0,379,380
 127 596 127 596 131 602 c 2,381,382
 132 607 132 607 138 613 c 0,383,384
 141 616 141 616 153 620 c 1,385,386
 165 622 165 622 175 630 c 2,387,388
 186 636 186 636 186 641 c 128,-1,389
 186 646 186 646 183 649 c 1,390,-1
 178 652 l 2,391,392
 174 654 174 654 172 656 c 1,393,394
 169 657 169 657 161.5 661.5 c 128,-1,395
 154 666 154 666 152 667 c 0,396,397
 140 675 140 675 137 678 c 1,398,399
 134 684 134 684 135 697 c 0,400,401
 137 713 137 713 144 722 c 0,402,403
 155 736 155 736 164 743 c 0,113,114
EndSplineSet
Validated: 1
EndChar
